<?xml version="1.0" encoding="UTF-8"?>
<svg width="25px" height="24px" viewBox="0 0 25 24" version="1.1" xmlns="http://www.w3.org/2000/svg" xmlns:xlink="http://www.w3.org/1999/xlink">
    <title>编组 28</title>
    <g id="销售助手后台-佣金管理" stroke="none" stroke-width="1" fill="none" fill-rule="evenodd">
        <g id="兑费查看" transform="translate(-862.000000, -132.000000)">
            <g id="编组-27备份" transform="translate(862.500000, 132.000000)">
                <circle id="椭圆形" fill="#FFEFC2" cx="12" cy="12" r="12"></circle>
                <g id="transaction_fill" transform="translate(5.969896, 5.000000)" fill="#FFBF13" fill-rule="nonzero">
                    <path d="M6.62589483,8.28948173 L6.62589483,7.03537735 L8.50908002,7.03537735 C8.82564905,7.03537735 9.08219168,6.78975807 9.08219168,6.48671319 C9.08219168,6.1836683 8.82554502,5.93804902 8.50908002,5.93804902 L6.86308753,5.93804902 L6.86745687,5.93399178 L8.50502278,4.36643932 C8.7288994,4.15213364 8.7288994,3.80477117 8.50502278,3.59046549 C8.28114616,3.37615981 7.91828294,3.37615981 7.69451036,3.59046549 L6.05694445,5.15812197 L6.05278317,5.16207519 L6.0486219,5.15812197 L4.41105598,3.59036146 C4.18717937,3.37605577 3.82431615,3.37605577 3.60043953,3.59036146 C3.37656291,3.80466714 3.37656291,4.15202961 3.60043953,4.36633529 L5.23800544,5.93388775 L5.24237478,5.93794499 L3.59638229,5.93794499 C3.27981326,5.93794499 3.02327063,6.18356427 3.02327063,6.48660915 C3.02327063,6.78965404 3.27991729,7.03527332 3.59638229,7.03527332 L5.47956748,7.03527332 L5.47956748,8.2893777 L3.59638229,8.2893777 C3.27981326,8.2893777 3.02327063,8.53499698 3.02327063,8.83804187 C3.02327063,9.14108675 3.27991729,9.38670603 3.59638229,9.38670603 L5.47956748,9.38670603 L5.47956748,9.85682612 C5.47956748,10.159871 5.73621414,10.4054903 6.05267914,10.4054903 C6.36914414,10.4054903 6.6257908,10.159871 6.6257908,9.85682612 L6.6257908,9.38670603 L8.50897599,9.38670603 C8.82554502,9.38670603 9.08208765,9.14108675 9.08208765,8.83804187 C9.08208765,8.53499698 8.82544099,8.2893777 8.50897599,8.2893777 L6.62589483,8.2893777 L6.62589483,8.28948173 Z M1.41379333,1.35211544 L4.61631089,0.208909047 C5.39613391,-0.0694802792 6.66313824,-0.0697923749 7.44389755,0.208909047 L10.6464151,1.35211544 C11.4262381,1.63050476 12.0602084,2.53329347 12.0602084,3.36773322 L12.0602084,8.09847919 C12.0602084,11.8058635 6.03010422,14 6.03010422,14 C6.03010422,14 0,11.8058635 0,8.09847919 L0,3.36773322 C0,2.52476285 0.632929992,1.63081686 1.41379333,1.35211544 Z" id="形状"></path>
                </g>
            </g>
        </g>
    </g>
</svg>