<?xml version="1.0" encoding="UTF-8"?>
<svg width="16px" height="16px" viewBox="0 0 16 16" version="1.1" xmlns="http://www.w3.org/2000/svg" xmlns:xlink="http://www.w3.org/1999/xlink">
    <title>矩形</title>
    <g id="页面-1" stroke="none" stroke-width="1" fill="none" fill-rule="evenodd">
        <g id="画板" transform="translate(-109.000000, -285.000000)" fill="#CCCCCC" fill-rule="nonzero">
            <g id="内容管理" transform="translate(109.000000, 285.000000)">
                <path d="M10.4754275,1 C10.603615,1 10.7255496,1.05784074 10.8068393,1.15632634 L10.8068393,1.15632634 L13.9239863,4.95192966 C13.9865169,5.02852956 14.0209193,5.12388862 14.0209193,5.22393747 L14.0209193,5.22393747 L14.0209193,13.4695652 C14.0224719,14.3137274 13.3361993,15 12.4936004,15 L12.4936004,15 L2.52887151,15 C1.68783586,15 1,14.3121641 1,13.4711285 L1,13.4711285 L1,2.52887151 C1,1.68783586 1.68783586,1 2.52887151,1 L2.52887151,1 Z M9.00283341,2.00048851 L2.52887151,2.00048851 C2.23810453,2.00048851 2.00048851,2.23810453 2.00048851,2.52887151 L2.00048851,2.52887151 L2.00048851,13.4711285 C2.00048851,13.7618955 2.23810453,13.9995115 2.52887151,13.9995115 L2.52887151,13.9995115 L12.4920371,13.9995115 C12.7828041,13.9995115 13.0204201,13.7618955 13.0204201,13.4711285 L13.0204201,13.4711285 L13.0204201,6.02589155 L9.89076697,6.02589155 C9.40146556,6.02589155 9.00283341,5.6272594 9.00283341,5.13795799 L9.00283341,5.13795799 L9.00283341,2.00048851 Z M10.4957499,11.0283342 C10.7724475,11.0283342 10.9959941,11.2518808 10.9959941,11.5285784 C10.9959941,11.805276 10.7708842,12.0288227 10.4957499,12.0288227 L10.4957499,12.0288227 L3.49076697,12.0288227 C3.21406938,12.0288227 2.99052272,11.805276 2.99052272,11.5285784 C2.99052272,11.2518808 3.21406936,11.0283342 3.49076697,11.0283342 L3.49076697,11.0283342 Z M10.4957499,7.99091353 C10.7724475,7.99091353 10.9959941,8.21446019 10.9959941,8.4911578 C10.9959941,8.7678554 10.7708842,8.99140206 10.4957499,8.99140206 L10.4957499,8.99140206 L3.49076697,8.99140206 C3.21406938,8.99140206 2.99052272,8.7678554 2.99052272,8.4911578 C2.99052272,8.21446019 3.21406936,7.99091353 3.49076697,7.99091353 L3.49076697,7.99091353 Z M6.17176355,5.02540302 C6.44846116,5.02540302 6.67200782,5.24894968 6.67200782,5.52564729 C6.67200782,5.8023449 6.4468979,6.02589155 6.17176355,6.02589155 L6.17176355,6.02589155 L3.49076697,6.02589155 C3.21406938,6.02589155 2.99052272,5.8023449 2.99052272,5.52564729 C2.99052272,5.24894968 3.21406936,5.02540302 3.49076697,5.02540302 L3.49076697,5.02540302 Z M10.0033219,2.00048851 L10.0033219,5.02540302 L12.6890083,5.02540302 L10.3347338,2.15681485 C10.2534441,2.05832926 10.1315095,2.00048851 10.0033219,2.00048851 L10.0033219,2.00048851 Z" id="形状结合"></path>
            </g>
        </g>
    </g>
</svg>