<?xml version="1.0" encoding="UTF-8"?>
<svg width="16px" height="16px" viewBox="0 0 16 16" version="1.1" xmlns="http://www.w3.org/2000/svg" xmlns:xlink="http://www.w3.org/1999/xlink">
    <title>药瓶</title>
    <g id="页面-1" stroke="none" stroke-width="1" fill="none" fill-rule="evenodd">
        <g id="画板" transform="translate(-213.000000, -239.000000)" fill-rule="nonzero">
            <g id="药瓶" transform="translate(213.000000, 239.000000)">
                <rect id="矩形" fill="#000000" opacity="0" x="0" y="0" width="16" height="16"></rect>
                <path d="M11.8778029,3.9790441 C11.6463416,3.84057693 11.3474548,3.91688267 11.2091476,4.14803996 C11.0710005,4.37919725 11.1463462,4.67901209 11.3771835,4.81763926 C11.7638163,5.05006058 12.7674233,5.83683055 12.7674233,6.67574574 L12.7674233,13.0484194 C12.7674233,13.5859197 12.2561636,14.0232577 11.6278932,14.0232577 L8.13314134,14.0232577 L8.13314134,9.92630003 L8.42247595,9.92630003 C8.69225812,9.92630003 8.91083912,9.70770304 8.91083912,9.43792087 C8.91083912,9.1681387 8.69224212,8.9495577 8.42247595,8.9495577 L7.77130907,8.9495577 C7.74964457,8.9495577 7.7289561,8.95318979 7.70804362,8.95592585 C7.68711513,8.95318979 7.66644267,8.9495577 7.64477817,8.9495577 C7.374996,8.9495577 7.156415,9.16815469 7.156415,9.43792087 L7.156415,14.0232417 L5.11627237,14.0232417 C4.48800201,14.0232417 3.97674233,13.5859037 3.97674233,13.0484034 L3.97674233,9.92630003 L6.01686896,9.92630003 C6.28665113,9.92630003 6.50523213,9.70770304 6.50523213,9.43792087 C6.50523213,9.1681387 6.28663514,8.9495577 6.01686896,8.9495577 L3.97674233,8.9495577 L3.97674233,6.67574573 C3.97674233,5.91203227 4.99433359,5.06660495 5.38589454,4.80571898 C5.61084368,4.65675557 5.67236508,4.35375665 5.52340168,4.12896751 C5.37443827,3.90401836 5.07159935,3.84233696 4.84665021,3.99146037 C4.65762189,4.11656723 3,5.25547326 3,6.67574573 L3,13.0484194 C3,14.124524 3.94939771,15 5.11627237,15 L11.6278932,15 C12.7947679,15 13.7441656,14.124524 13.7441656,13.0484194 L13.7441656,6.67572973 C13.7441656,5.10855791 11.9539487,4.02435713 11.8778029,3.9790441 Z M5.44184782,3.37351026 C5.71162999,3.37351026 5.93021099,3.15491326 5.93021099,2.88513109 C5.93021099,2.38420765 6.4030058,1.97674233 6.98405907,1.97674233 L9.76007453,1.97674233 C10.3411278,1.97674233 10.8139226,2.38419164 10.8139226,2.88513109 C10.8139226,3.15491326 11.0325196,3.37351026 11.3023018,3.37351026 C11.5720839,3.37351026 11.7906649,3.15491326 11.7906649,2.88513109 C11.7906649,1.84558733 10.8797321,1 9.76007453,1 L6.98407507,1 C5.86441747,1 4.95348466,1.84558733 4.95348466,2.88513109 C4.95348466,3.15491326 5.17208165,3.37351026 5.44184782,3.37351026 Z M9.83719628,3.74852683 C10.1069784,3.74852683 10.3255754,3.52992984 10.3255754,3.26016367 C10.3255754,2.99039749 10.1069784,2.7718005 9.83719628,2.7718005 L6.90696931,2.7718005 C6.63718714,2.7718005 6.41859015,2.99039749 6.41859015,3.26016367 C6.41859015,3.52992984 6.63718714,3.74852683 6.90696931,3.74852683 L9.83719628,3.74852683 Z M6.74418158,4.71779697 C6.47439941,4.71779697 6.25581841,4.93639397 6.25581841,5.20617614 L6.25581841,5.6945393 C6.25581841,5.96432147 6.47441541,6.18291846 6.74418158,6.18291846 C7.01394775,6.18291846 7.23256074,5.96432147 7.23256074,5.6945393 L7.23256074,5.20617614 C7.23254475,4.93639398 7.01396375,4.71779697 6.74418158,4.71779697 Z M9.99998401,4.71779697 C9.73020184,4.71779697 9.51160485,4.93639397 9.51160485,5.20617614 L9.51160485,5.6945393 C9.51160485,5.96432147 9.73020184,6.18291846 9.99998401,6.18291846 C10.2697662,6.18291846 10.4883472,5.96432147 10.4883472,5.6945393 L10.4883472,5.20617614 C10.4883632,4.93639398 10.2697662,4.71779697 9.99998401,4.71779697 Z M8.36724269,8.1921964 C9.0546504,8.1921964 9.54158952,7.71829757 9.72100163,7.43817916 C9.86519692,7.21307001 9.79969143,6.91658323 9.57648632,6.76968388 C9.35336122,6.62262452 9.05146633,6.68510594 8.90163889,6.90656701 C8.89957485,6.90959109 8.68877002,7.21545407 8.36724267,7.21545407 C8.05461152,7.21545407 7.86019109,6.9323276 7.84707077,6.91259915 C7.70359549,6.68700999 7.40480466,6.61833642 7.17731147,6.75998765 C6.94815423,6.90226291 6.87780062,7.20337378 7.02017188,7.43245102 C7.1954399,7.71463349 7.6764909,8.1921964 8.36724269,8.1921964 Z" id="形状" fill="#CCCCCC"></path>
            </g>
        </g>
    </g>
</svg>