<?xml version="1.0" encoding="UTF-8"?>
<svg width="16px" height="16px" viewBox="0 0 16 16" version="1.1" xmlns="http://www.w3.org/2000/svg" xmlns:xlink="http://www.w3.org/1999/xlink">
    <title>编组 23</title>
    <g id="页面-1" stroke="none" stroke-width="1" fill="none" fill-rule="evenodd">
        <g id="画板" transform="translate(-42.000000, -188.000000)" fill="#CCCCCC" fill-rule="nonzero">
            <g id="编组-23" transform="translate(42.000000, 188.000000)">
                <path d="M11.5,0 C12.3284271,0 13,0.671572875 13,1.5 L13,8 L13.5,8 C14.3284271,8 15,8.67157288 15,9.5 L15,13.5 C15,14.3284271 14.3284271,15 13.5,15 L2.5,15 C1.67157288,15 1,14.3284271 1,13.5 L1,1.5 C1,0.972630467 1.27215392,0.508825889 1.68367584,0.241372196 C1.91859991,0.0886918458 2.19894241,0 2.5,0 L11.5,0 Z M11.5,1 L2.5,1 C2.25454011,1 2.05039163,1.17687516 2.00805567,1.41012437 L2,1.5 L2,13.5 C2,13.7454599 2.17687516,13.9496084 2.41012437,13.9919443 L2.5,14 L12,14 L12,1.5 C12,1.2852226 11.86458,1.10207424 11.6744662,1.03128126 L11.5898756,1.00805567 L11.5,1 Z M13.5,9 L13.073,9 L13.073,14 L13.5,14 C13.7454599,14 13.9496084,13.8231248 13.9919443,13.5898756 L14,13.5 L14,9.5 C14,9.25454011 13.8231248,9.05039163 13.5898756,9.00805567 L13.5,9 Z M8.5,10 C8.77614237,10 9,10.2238576 9,10.5 C9,10.7454599 8.82312484,10.9496084 8.58987563,10.9919443 L8.5,11 L4,11 C3.72385763,11 3.5,10.7761424 3.5,10.5 C3.5,10.2545401 3.67687516,10.0503916 3.91012437,10.0080557 L4,10 L8.5,10 Z M10,7 C10.2761424,7 10.5,7.22385763 10.5,7.5 C10.5,7.74545989 10.3231248,7.94960837 10.0898756,7.99194433 L10,8 L4,8 C3.72385763,8 3.5,7.77614237 3.5,7.5 C3.5,7.25454011 3.67687516,7.05039163 3.91012437,7.00805567 L4,7 L10,7 Z M10,4 C10.2761424,4 10.5,4.22385763 10.5,4.5 C10.5,4.74545989 10.3231248,4.94960837 10.0898756,4.99194433 L10,5 L4,5 C3.72385763,5 3.5,4.77614237 3.5,4.5 C3.5,4.25454011 3.67687516,4.05039163 3.91012437,4.00805567 L4,4 L10,4 Z" id="形状结合"></path>
            </g>
        </g>
    </g>
</svg>