<?xml version="1.0" encoding="UTF-8"?>
<svg width="17px" height="16px" viewBox="0 0 17 16" version="1.1" xmlns="http://www.w3.org/2000/svg" xmlns:xlink="http://www.w3.org/1999/xlink">
    <title>编组 6</title>
    <g id="页面-1" stroke="none" stroke-width="1" fill="none" fill-rule="evenodd">
        <g id="画板" transform="translate(-42.000000, -113.000000)">
            <g id="编组-6" transform="translate(42.000000, 113.000000)">
                <circle id="椭圆形-2" stroke="#CCCCCC" cx="6.89473684" cy="3.57894737" r="3.07894737"></circle>
                <path d="M12.7894737,12.7663697 C12.7894737,9.36215565 10.1503101,6.87163286 6.89473684,6.87163286 C3.63916358,6.87163286 1,9.51079644 1,12.7663697 C1,12.7663697 12.7894737,12.7663697 12.7894737,12.7663697 Z" id="椭圆形" stroke="#CCCCCC" stroke-linejoin="round"></path>
                <circle id="椭圆形" fill="#333333" cx="11.8819203" cy="11.220768" r="4.34913516"></circle>
                <path d="M11.993,8.474 L12.007139,8.53839887 C12.0370944,8.6487157 12.0832606,8.74783301 12.1431327,8.83639218 C12.241342,8.98165739 12.3781608,9.10151321 12.5614775,9.18815862 C12.7868566,9.29375996 13.023332,9.31334462 13.2417558,9.2610092 C13.3799896,9.22788772 13.5122484,9.1656158 13.6300651,9.07409847 C13.691803,9.1331795 13.7526677,9.19330773 13.8127115,9.25427205 C13.7361403,9.35942225 13.6819576,9.47352899 13.6493458,9.59169714 C13.5915572,9.80109237 13.5999285,10.0266561 13.687553,10.2504717 C13.7745924,10.4706437 13.9253442,10.6425926 14.1152472,10.7556319 C14.2351402,10.8269979 14.3717467,10.8752387 14.5196541,10.8941818 C14.5223486,10.9832357 14.5229664,11.0724514 14.5222299,11.1618201 C14.3071854,11.1952539 14.1167937,11.2930374 13.9691681,11.4331078 C13.7590373,11.6324847 13.6312121,11.9210708 13.6505682,12.2519276 C13.6641246,12.4787312 13.7382645,12.6742685 13.8704127,12.8379437 C13.8127402,12.8998595 13.7541642,12.9609557 13.6947777,13.0212795 C13.5887738,12.9416914 13.47524,12.8862722 13.3589097,12.852901 C13.1429508,12.7909497 12.9113443,12.8014986 12.6780501,12.9014275 C12.4510293,12.9998862 12.2837248,13.1589914 12.1782231,13.3584409 C12.1183327,13.4716628 12.0778944,13.5999003 12.0626252,13.7409884 C11.9799569,13.7428994 11.8971661,13.7435799 11.8143665,13.7434198 C11.7826306,13.5020747 11.6732623,13.2923761 11.46715,13.1123512 C11.2385035,12.913373 10.9555681,12.8332871 10.6844488,12.8607795 C10.4930172,12.8801913 10.3058447,12.9533512 10.1469134,13.0806432 C10.0858803,13.0220722 10.0259023,12.9623284 9.96676374,12.9016919 C10.0364902,12.8090051 10.0888914,12.7083013 10.1239636,12.6034443 C10.1888253,12.4095242 10.1955523,12.1996449 10.1354471,11.9916836 C10.0757702,11.785292 9.95853144,11.6094567 9.80253088,11.4792806 C9.64845037,11.3507067 9.4558359,11.2658529 9.23402663,11.2431138 L9.247,11.245 L9.24142229,11.1107683 L9.24142229,11.1107683 L9.245,10.984 L9.33912036,10.9690194 C9.50630079,10.9295315 9.64775774,10.8587525 9.76445561,10.7632147 L9.84735176,10.687021 C9.97590969,10.5546075 10.0699306,10.3842149 10.1154777,10.1719221 C10.1592251,9.96568438 10.1431819,9.77729504 10.0820904,9.60657979 C10.045277,9.50370784 9.99139046,9.40614289 9.91949082,9.31549903 C9.97892665,9.25222866 10.0396357,9.19000616 10.1012231,9.1287062 C10.2059484,9.2052063 10.3170266,9.25887766 10.4300016,9.29164868 C10.6456616,9.35420589 10.8735692,9.34436767 11.0988093,9.24993609 C11.3260546,9.15425692 11.4939791,8.99899552 11.6019333,8.80184179 C11.7758576,8.63563431 11.8935226,8.53901154 11.9783172,8.48339376 L11.993,8.474 Z" id="路径" stroke="#CCCCCC"></path>
            </g>
        </g>
    </g>
</svg>