<?xml version="1.0" encoding="UTF-8"?>
<svg width="16px" height="16px" viewBox="0 0 16 16" version="1.1" xmlns="http://www.w3.org/2000/svg" xmlns:xlink="http://www.w3.org/1999/xlink">
    <title>编组 5</title>
    <g id="页面-1" stroke="none" stroke-width="1" fill="none" fill-rule="evenodd">
        <g id="画板" transform="translate(-201.000000, -108.000000)" stroke="#CCCCCC">
            <g id="编组-5" transform="translate(201.000000, 108.000000)">
                <path d="M12.1479377,2.5 C12.53984,2.5 12.8987066,2.65086487 13.1671121,2.89941672 C13.4355176,3.14796856 13.6134619,3.49420737 13.6435194,3.88495525 L13.6435194,3.88495525 L14.3358271,12.8849553 C14.3675959,13.2979487 14.2289584,13.684721 13.9791303,13.9761871 C13.7328678,14.2634934 13.3785658,14.4581945 12.9729408,14.4941213 L12.9729408,14.4941213 L3.15975459,14.5 C2.74554102,14.5 2.37054102,14.3321068 2.09909441,14.0606602 C1.83151968,13.7930854 1.66456526,13.4248904 1.65985688,13.0177007 L1.65985688,13.0177007 L2.35648055,3.88495525 C2.38653808,3.49420737 2.5644824,3.14796856 2.83288789,2.89941672 C3.10129338,2.65086487 3.46016005,2.5 3.85206228,2.5 L3.85206228,2.5 Z" id="矩形"></path>
                <path d="M6.5,9.71011255 C8.15685425,9.71011255 9.5,8.3669668 9.5,6.71011255 C9.5,5.0532583 8.15685425,3.71011255 6.5,3.71011255" id="椭圆形" stroke-linecap="round" stroke-linejoin="round" transform="translate(8.000000, 6.710113) rotate(-270.000000) translate(-8.000000, -6.710113) "></path>
            </g>
        </g>
    </g>
</svg>