<?xml version="1.0" encoding="UTF-8"?>
<svg width="16px" height="16px" viewBox="0 0 16 16" version="1.1" xmlns="http://www.w3.org/2000/svg" xmlns:xlink="http://www.w3.org/1999/xlink">
    <title>基础配置</title>
    <g id="页面-1" stroke="none" stroke-width="1" fill="none" fill-rule="evenodd">
        <g id="画板" transform="translate(-128.000000, -108.000000)" fill-rule="nonzero">
            <g id="基础配置" transform="translate(128.000000, 108.000000)">
                <rect id="矩形" fill="#000000" opacity="0" x="0" y="0" width="16" height="16"></rect>
                <path d="M8,15.2666667 C7.63333333,15.2666667 7.23333333,15.1666667 6.93333333,14.9666667 L2.5,12.4333333 C1.83333333,12.0333333 1.43333333,11.3333333 1.43333333,10.5666667 L1.43333333,5.43333333 C1.43333333,4.66666666 1.83333333,3.93333333 2.5,3.56666667 L6.9,1 C7.56666667,0.6 8.4,0.6 9.06666667,1 L13.5,3.56666667 C14.1666667,3.96666667 14.5666667,4.66666667 14.5666667,5.43333333 L14.5666667,10.5333333 C14.5666667,11.3 14.1666667,12.0333333 13.5,12.4 L9.1,14.9333333 C8.76666667,15.1666667 8.36666667,15.2666667 8,15.2666667 Z M8,1.73333333 C7.8,1.73333333 7.6,1.8 7.43333333,1.9 L3,4.43333333 C2.63333333,4.63333333 2.43333333,5.03333333 2.4,5.43333333 L2.4,10.5333333 C2.4,10.9333333 2.63333333,11.3333333 3,11.5333333 L7.4,14.1 C7.76666667,14.3 8.2,14.3 8.56666667,14.1 L13,11.5666667 C13.3666667,11.3666667 13.5666667,10.9666667 13.6,10.5666667 L13.6,5.43333333 C13.6,5.03333333 13.3666667,4.63333333 13,4.43333333 L8.56666667,1.9 C8.4,1.8 8.2,1.73333333 8,1.73333333 Z M8,14.8333333 C7.73333333,14.8333333 7.5,14.6 7.5,14.3333333 L7.5,8 C7.5,7.73333333 7.73333333,7.5 8,7.5 C8.26666667,7.5 8.5,7.73333333 8.5,8 L8.5,14.3333333 C8.5,14.6 8.26666667,14.8333333 8,14.8333333 Z M8,8.5 C7.73333333,8.5 7.5,8.26666667 7.5,8 C7.5,7.83333333 7.6,7.66666667 7.76666667,7.56666667 L13.2666667,4.4 C13.5,4.26666667 13.8,4.33333333 13.9333333,4.6 C14.0666667,4.83333333 14,5.13333333 13.7666667,5.3 L8.26666667,8.46666667 C8.16666667,8.46666667 8.1,8.5 8,8.5 Z M8,8.5 C7.9,8.5 7.83333333,8.46666667 7.73333333,8.43333333 L2.26666667,5.26666667 C2.03333334,5.1 2,4.8 2.16666667,4.56666667 C2.3,4.4 2.53333334,4.33333334 2.76666667,4.4 L8.26666667,7.56666667 C8.5,7.7 8.6,8 8.46666667,8.23333333 C8.33333334,8.4 8.16666667,8.5 8,8.5 Z M9.9,9.86666667 C9.63333333,9.86666667 9.4,9.63333334 9.4,9.36666667 C9.4,9.2 9.5,9.03333334 9.66666667,8.93333333 L12.2,7.46666667 C12.4333333,7.33333334 12.7333333,7.4 12.9,7.63333333 C13.0333333,7.86666666 12.9666667,8.16666666 12.7,8.33333333 L10.1666667,9.8 C10.1,9.83333333 10,9.86666667 9.9,9.86666667 Z M6.1,9.86666667 C6,9.86666667 5.93333333,9.83333334 5.86666667,9.8 L3.3,8.33333333 C3.06666667,8.2 2.96666667,7.9 3.1,7.63333333 C3.23333333,7.4 3.53333333,7.3 3.8,7.46666667 L6.33333333,8.93333333 C6.56666666,9.06666666 6.66666666,9.36666666 6.53333333,9.6 C6.43333333,9.76666667 6.26666666,9.86666667 6.1,9.86666667 Z" id="形状" fill="#CCCCCC"></path>
            </g>
        </g>
    </g>
</svg>