<?xml version="1.0" encoding="UTF-8"?>
<svg width="16px" height="16px" viewBox="0 0 16 16" version="1.1" xmlns="http://www.w3.org/2000/svg" xmlns:xlink="http://www.w3.org/1999/xlink">
    <title>活动管理</title>
    <g id="页面-1" stroke="none" stroke-width="1" fill="none" fill-rule="evenodd">
        <g id="画板" transform="translate(-42.000000, -242.000000)" fill-rule="nonzero">
            <g id="活动管理" transform="translate(42.000000, 242.000000)">
                <rect id="矩形" fill="#000000" opacity="0" x="0" y="0" width="16" height="16"></rect>
                <path d="M13.95,3.75276407 L12.921,3.75276407 C13.299,2.94436899 13.292,2.12894438 12.83,1.57361211 C12.452,1.11669315 11.829,0.926896043 11.087,1.03233888 C10.408,1.13075219 9.687,1.46816927 9.064,1.99538346 C8.602,2.38903671 8.238,2.83189663 8,3.28881559 C7.755,2.82486711 7.384,2.37497767 6.936,1.99538346 C6.32,1.46816927 5.599,1.12372267 4.92,1.02530936 C4.178,0.926896043 3.555,1.11669315 3.177,1.57361211 C2.799,2.03053107 2.715,2.67724713 2.946,3.3872289 C2.988,3.50673078 3.03,3.63326219 3.086,3.75276407 L2.05,3.75276407 C1.469,3.75276407 1,4.22374207 1,4.80719244 L1,6.91604918 C1,7.49949954 1.469,7.97047754 2.05,7.97047754 L2.113,7.97047754 C2.071,8.0829499 2.05,8.19542226 2.05,8.32195367 L2.05,13.9455716 C2.05,14.529022 2.519,15 3.1,15 L12.9,15 C13.481,15 13.95,14.529022 13.95,13.9455716 L13.95,8.32195367 C13.95,8.19542226 13.929,8.0829499 13.887,7.97047754 L13.95,7.97047754 C14.531,7.97047754 15,7.49949954 15,6.91604918 L15,4.80719244 C15,4.22374207 14.531,3.75276407 13.95,3.75276407 Z M9.519,2.52962716 C10.044,2.08676725 10.632,1.80558635 11.192,1.72123208 C11.29,1.70717304 11.388,1.70014351 11.472,1.70014351 C11.836,1.70014351 12.123,1.81261587 12.298,2.02350155 C12.627,2.4171548 12.529,3.09198896 12.13,3.75276407 L8.56,3.75276407 C8.756,3.33099272 9.085,2.89516233 9.519,2.52962716 L9.519,2.52962716 Z M3.716,2.02350155 C3.891,1.81261587 4.178,1.70014351 4.542,1.70014351 C4.633,1.70014351 4.724,1.70717304 4.822,1.72123208 C5.375,1.79855683 5.97,2.08676725 6.495,2.52962716 C6.922,2.88813281 7.258,3.31693368 7.461,3.75276407 L3.884,3.75276407 C3.765,3.56296696 3.674,3.36614034 3.611,3.16931371 C3.457,2.69130618 3.492,2.28359388 3.716,2.02350155 Z M1.7,6.91604918 L1.7,4.80719244 C1.7,4.61036581 1.854,4.45571632 2.05,4.45571632 L7.65,4.45571632 L7.65,7.2675253 L2.05,7.2675253 C1.854,7.2675253 1.7,7.1128758 1.7,6.91604918 Z M2.75,13.9455716 L2.75,8.32195367 C2.75,8.12512704 2.904,7.97047754 3.1,7.97047754 L7.65,7.97047754 L7.65,14.2970478 L3.1,14.2970478 C2.904,14.2970478 2.75,14.1423983 2.75,13.9455716 L2.75,13.9455716 Z M13.25,8.32195367 L13.25,13.9455716 C13.25,14.1423983 13.096,14.2970478 12.9,14.2970478 L8.35,14.2970478 L8.35,7.97047754 L12.9,7.97047754 C13.096,7.97047754 13.25,8.12512704 13.25,8.32195367 L13.25,8.32195367 Z M14.3,6.91604918 C14.3,7.1128758 14.146,7.2675253 13.95,7.2675253 L8.35,7.2675253 L8.35,4.45571632 L13.95,4.45571632 C14.146,4.45571632 14.3,4.61036581 14.3,4.80719244 L14.3,6.91604918 Z" id="形状" stroke="#CCCCCC" stroke-width="0.3" fill="#CCCCCC"></path>
            </g>
        </g>
    </g>
</svg>