<?xml version="1.0" encoding="UTF-8"?>
<svg width="16px" height="16px" viewBox="0 0 16 16" version="1.1" xmlns="http://www.w3.org/2000/svg" xmlns:xlink="http://www.w3.org/1999/xlink">
    <title>矩形</title>
    <g id="2022/11/02-订单数据报表" stroke="none" stroke-width="1" fill="none" fill-rule="evenodd">
        <g id="订单报表备份" transform="translate(-383.000000, -580.000000)" fill-rule="nonzero">
            <g id="编组-27" transform="translate(198.000000, 483.000000)">
                <g id="编组-28" transform="translate(16.000000, 15.000000)">
                    <g id="向右备份" transform="translate(177.000000, 90.000000) scale(1, -1) rotate(-90.000000) translate(-177.000000, -90.000000) translate(169.000000, 82.000000)">
                        <rect id="矩形" fill="#000000" opacity="0" x="0" y="0" width="16" height="16"></rect>
                        <path d="M3.00740596,7.80160976 C3.00740596,7.49055929 3.08331709,7.28134081 3.23513935,7.17395434 C3.38696161,7.06656786 3.62580394,7.01287463 3.95166634,7.01287463 C4.09978562,7.01287463 4.33307347,7.01472612 4.65152992,7.0184291 C4.96998636,7.02213208 5.3088092,7.02398357 5.66799844,7.02398357 C6.02718768,7.02398357 6.37711947,7.02583506 6.7177938,7.02953804 C7.05846813,7.03324103 7.32878581,7.03509252 7.52874683,7.03509252 C7.81017346,7.04249848 8.03235237,7.0184291 8.19528357,6.96288437 C8.35821477,6.90733964 8.43968037,6.77958677 8.43968037,6.57962575 C8.43968037,6.43150647 8.44523485,6.25561483 8.45634379,6.05195083 C8.46745274,5.84828683 8.47300721,5.67239519 8.47300721,5.52427591 C8.48041317,5.26506718 8.55447281,5.10028449 8.69518612,5.02992783 C8.83589943,4.95957118 9.01364256,5.01326441 9.22841551,5.19100754 C9.45059443,5.36875067 9.70980316,5.57982064 10.0060417,5.82421744 C10.3022803,6.06861425 10.6096278,6.31856552 10.9280842,6.57407127 C11.2465406,6.82957702 11.5575911,7.08137979 11.8612356,7.32947958 C12.1648801,7.57757936 12.4351978,7.7942038 12.6721887,7.97935289 C12.8869616,8.15709602 12.9961996,8.3255817 13,8.48480992 C13.0036055,8.64403814 12.9017735,8.80882083 12.6944065,8.979158 C12.4796336,9.15690113 12.2259793,9.36056513 11.9334438,9.59015001 C11.6409082,9.81973489 11.3372637,10.0567257 11.0225102,10.3011225 C10.7077568,10.5455193 10.3985578,10.7880646 10.0949133,11.0287585 C9.79126876,11.2694523 9.52095108,11.4823737 9.28396024,11.6675228 C9.02475151,11.8748898 8.81183005,11.9526524 8.64519587,11.9008107 C8.47856168,11.848969 8.39894757,11.6897407 8.40635354,11.423126 L8.40635354,11.1565113 L8.40635354,10.8343519 C8.40635354,10.7232625 8.40450205,10.6140245 8.40079906,10.506638 C8.39709608,10.3992515 8.39524459,10.3011225 8.39524459,10.212251 C8.39524459,10.0271019 8.33969986,9.91045794 8.22861041,9.86231918 C8.11752095,9.81418041 7.96569869,9.79011103 7.77314364,9.79011103 C7.55837069,9.79011103 7.27694407,9.78825954 6.92886377,9.78455656 C6.58078347,9.78085358 6.21789125,9.77900209 5.8401871,9.77900209 C5.46248295,9.77900209 5.09588774,9.77715059 4.74040148,9.77344761 C4.38491522,9.76974463 4.09608263,9.76789314 3.87390372,9.76789314 C3.77762619,9.76789314 3.67764568,9.75863569 3.57396219,9.74012078 C3.4702787,9.72160587 3.37585266,9.68642754 3.29068408,9.63458579 C3.20551549,9.58274405 3.13701033,9.50683292 3.08516858,9.40685241 C3.03332684,9.3068719 3.00740596,9.17171306 3.00740596,9.00137589 C3.00740596,8.80141487 3.00555447,8.60885981 3.00185149,8.42371072 C2.99814851,8.23856163 3,8.03119464 3.00740596,7.80160976 L3.00740596,7.80160976 Z" id="路径" fill="#52C41A"></path>
                    </g>
                </g>
            </g>
        </g>
    </g>
</svg>