<?xml version="1.0" encoding="UTF-8"?>
<svg width="16px" height="16px" viewBox="0 0 16 16" version="1.1" xmlns="http://www.w3.org/2000/svg" xmlns:xlink="http://www.w3.org/1999/xlink">
    <title>矩形</title>
    <g id="页面-1" stroke="none" stroke-width="1" fill="none" fill-rule="evenodd">
        <g id="画板" transform="translate(-43.000000, -283.000000)" fill="#CCCCCC" fill-rule="nonzero">
            <g id="反馈" transform="translate(43.000000, 283.000000)">
                <path d="M12.2629947,1 C12.5624516,1 12.8060513,1.24411373 12.8060513,1.54420258 L12.8060513,1.54420258 L12.8060513,8.60328743 L14.2397207,7.9782319 C14.4072925,7.90515327 14.5996897,7.92070191 14.7532971,8.0217681 C14.9069046,8.12127943 15.0000003,8.29231453 15.0000003,8.47578854 L15.0000003,8.47578854 L15.0000003,14.4557974 C15.0000003,14.7558863 14.7564003,15 14.4569434,15 L14.4569434,15 L1.5430572,15 C1.24360027,15 1.00000029,14.7558863 1.00000029,14.4557974 L1.00000029,14.4557974 L1.00000029,8.47578854 C0.999810291,8.29221476 1.09198821,8.12091652 1.24515186,8.02021324 C1.39720771,7.92070191 1.5911565,7.9035984 1.75872825,7.97667703 L1.75872825,7.97667703 L3.1768818,8.59395824 L3.1768818,1.54420258 C3.1768818,1.24411373 3.42048148,1 3.71993841,1 L3.71993841,1 Z M13.9123352,9.30608618 L8.21799873,11.7860951 C8.07990719,11.8467348 7.92319657,11.8467348 7.78510503,11.7860951 L7.78510503,11.7860951 L2.08456222,9.30608618 L2.08456222,13.9115948 L13.9123352,13.9115948 L13.9123352,9.30608618 Z M11.7199381,2.08840515 L4.26299502,2.08840515 L4.26299502,9.06819191 L8.00232768,10.6945802 L11.7199381,9.07441137 L11.7199381,2.08840515 Z M7.91543862,8.1663705 C8.21536051,8.1663705 8.45849523,8.41001829 8.45849523,8.71057308 C8.45849523,9.01112786 8.21536051,9.25477566 7.91543862,9.25477566 C7.61551674,9.25477566 7.37238201,9.01112786 7.37238201,8.71057308 C7.37238201,8.41001829 7.61551674,8.1663705 7.91543862,8.1663705 Z M7.99146655,2.72745446 C8.97982958,2.72745446 9.78355336,3.53287428 9.78355336,4.52332297 C9.78355336,5.32407819 9.25601265,6.00510884 8.52986839,6.23833852 L8.52986839,6.23833852 L8.52366202,6.83229676 C8.52055884,7.13083074 8.27851076,7.37027988 7.98060541,7.37027988 L7.98060541,7.37027988 C7.67494212,7.36717015 7.43444562,7.11994669 7.4375488,6.81985784 L7.4375488,6.81985784 L7.44840994,5.76876944 C7.45151312,5.47023545 7.69356121,5.23078632 7.99146655,5.23078632 C8.38091572,5.23078632 8.69744014,4.91359396 8.69744014,4.52332297 C8.69744014,4.13305198 8.38091572,3.81585962 7.99146655,3.81585962 C7.60201738,3.81585962 7.28549295,4.13305198 7.28549295,4.52332297 C7.28549295,4.82341182 7.04189327,5.06752554 6.74243634,5.06752554 C6.44297941,5.06752554 6.19937973,4.82341182 6.19937973,4.52332297 C6.19937973,3.53287428 7.00310352,2.72745446 7.99146655,2.72745446 Z" id="形状结合"></path>
            </g>
        </g>
    </g>
</svg>