<?xml version="1.0" standalone="no"?><!DOCTYPE svg PUBLIC "-//W3C//DTD SVG 1.1//EN" "http://www.w3.org/Graphics/SVG/1.1/DTD/svg11.dtd"><svg t="1675408194472" class="icon" viewBox="0 0 1024 1024" version="1.1" xmlns="http://www.w3.org/2000/svg" p-id="5255" width="64" height="64" xmlns:xlink="http://www.w3.org/1999/xlink"><path d="M697.856 509.147c0-14.628 10.533-26.624 23.771-26.843h241.664c13.312 0 24.138 12.069 24.138 26.843 0 14.848-10.826 26.844-24.138 26.844H721.627c-13.165-0.293-23.771-12.215-23.771-26.844zM924.086 89.82A27.502 27.502 0 0 0 899 73.143H64a27.502 27.502 0 0 0-25.088 16.676c-4.17 9.802-2.78 22.309 4.17 29.258l271.432 299.227v378.587a27.94 27.94 0 0 0 55.662 0V407.186a26.478 26.478 0 0 0-6.875-18.14L126.537 128.806h709.778L599.771 389.12a26.478 26.478 0 0 0-6.948 18.14V891.61L492.617 841.51a27.867 27.867 0 0 0-37.522 12.434 27.867 27.867 0 0 0 12.434 37.668l140.654 69.486a40.667 40.667 0 0 0 12.434 2.853 31.744 31.744 0 0 0 15.36-4.17 27.355 27.355 0 0 0 12.508-23.698V418.377l271.36-299.227c7.021-6.949 8.411-19.456 4.242-29.257z m-226.23 580.462c0-14.628 10.533-26.624 23.771-26.843h241.664c13.312 0 24.138 11.995 24.138 26.843 0 14.775-10.826 26.844-24.138 26.844H721.627c-13.165-0.22-23.771-12.215-23.771-26.844z m0 161.134c0-14.629 10.533-26.624 23.771-26.844h241.664c13.312 0 24.138 12.069 24.138 26.844 0 14.848-10.826 26.843-24.138 26.843H721.627c-13.165-0.292-23.771-12.141-23.771-26.843z" p-id="5256" fill="#666666"></path></svg>