<?xml version="1.0" encoding="UTF-8"?>
<svg width="16px" height="16px" viewBox="0 0 16 16" version="1.1" xmlns="http://www.w3.org/2000/svg" xmlns:xlink="http://www.w3.org/1999/xlink">
    <title>商品管理</title>
    <g id="页面-1" stroke="none" stroke-width="1" fill="none" fill-rule="evenodd">
        <g id="画板" transform="translate(-287.000000, -242.000000)" fill-rule="nonzero">
            <g id="商品管理" transform="translate(287.000000, 242.000000)">
                <rect id="矩形" fill="#000000" opacity="0" x="0" y="0" width="16" height="16"></rect>
                <path d="M14.3356436,6.08625 C14.2852145,5.50847212 13.8024896,5.06450614 13.2225186,5.0625 L12.4912686,5.0625 C12.4912686,2.82 10.6793936,1 8.4531436,1 C6.2268936,1 4.4150186,2.82 4.4150186,5.0625 L3.6837686,5.0625 C3.1068936,5.0625 2.6275186,5.50125 2.5706436,6.08625 L2.0100186,11.749375 C1.9531436,12.32625 2.1400186,12.903125 2.5300186,13.33375 C2.9118936,13.75625 3.4562686,14 4.0331436,14 L12.8731436,14 C13.4500186,14 14.0025186,13.75625 14.3843936,13.325625 C14.7662686,12.895 14.9612686,12.318125 14.9043936,11.74125 L14.3356436,6.08625 Z M8.4531436,1.8125 C10.2325186,1.8125 11.6787686,3.266875 11.6787686,5.0625 L5.2275186,5.0625 C5.2275186,3.266875 6.6737686,1.8125 8.4531436,1.8125 Z M13.7831436,12.78125 C13.5475186,13.04125 13.2225186,13.1875 12.8731436,13.1875 L4.0331436,13.1875 C3.6837686,13.1875 3.3587686,13.04125 3.1231436,12.78125 C2.8875186,12.52125 2.7737686,12.18 2.8062686,11.8225 L3.3668936,6.159375 C3.3831436,5.996875 3.5212686,5.875 3.6837686,5.875 L4.4150186,5.875 L4.4150186,7.09375 C4.4150186,7.32125 4.5937686,7.5 4.8212686,7.5 C5.0406436,7.5 5.2275186,7.32125 5.2275186,7.09375 L5.2275186,5.875 L11.6868936,5.875 L11.6868936,7.09375 C11.6868936,7.32125 11.8656436,7.5 12.0931436,7.5 C12.3125186,7.5 12.4993936,7.32125 12.4993936,7.09375 L12.4993936,5.875 L13.2306436,5.875 C13.3931436,5.875 13.5312686,5.996875 13.5475186,6.159375 L14.1081436,11.8225 C14.1325186,12.18 14.0187686,12.513125 13.7831436,12.78125 L13.7831436,12.78125 Z M11.5000186,9.620625 C9.58191362,10.5794281 7.32437357,10.5794281 5.4062686,9.620625 C5.31047954,9.57154668 5.19903859,9.56282434 5.09678017,9.59640173 C4.99452175,9.62997912 4.90994353,9.70306597 4.8618936,9.799375 C4.7643936,10.0025 4.8456436,10.24625 5.0406436,10.34375 C6.1050186,10.88 7.2831436,11.148125 8.4531436,11.148125 C9.6231436,11.148125 10.7931436,10.88 11.8656436,10.34375 C12.0687686,10.24625 12.1418936,10.0025 12.0443936,9.799375 C11.9963437,9.70306597 11.9117654,9.62997912 11.809507,9.59640173 C11.7072486,9.56282434 11.5958077,9.57154668 11.5000186,9.620625 L11.5000186,9.620625 Z" id="形状" stroke="#CCCCCC" stroke-width="0.1" fill="#CCCCCC"></path>
            </g>
        </g>
    </g>
</svg>