<?xml version="1.0" standalone="no"?><!DOCTYPE svg PUBLIC "-//W3C//DTD SVG 1.1//EN" "http://www.w3.org/Graphics/SVG/1.1/DTD/svg11.dtd"><svg t="1629787087491" class="icon" viewBox="0 0 1024 1024" version="1.1" xmlns="http://www.w3.org/2000/svg" p-id="2670" xmlns:xlink="http://www.w3.org/1999/xlink" width="128" height="128"><defs><style type="text/css"></style></defs><path d="M544 64A160 160 0 0 1 704 224v63.424c24.512-19.328 54.976-31.808 88.512-34.304l10.752-0.384a160 160 0 0 1 160 160v377.408a160.256 160.256 0 0 1-149.312 159.616l-10.752 0.384a159.808 159.808 0 0 1-129.6-66.176A159.68 159.68 0 0 1 544 950.144h-320a160 160 0 0 1-160-160V224A160 160 0 0 1 224 64z m0 64h-320A96 96 0 0 0 128 224v566.144a96 96 0 0 0 96 96h320a96 96 0 0 0 96-96V224A96 96 0 0 0 544 128z m259.648 188.736l-7.616 0.32a96 96 0 0 0-88.832 95.68v377.408c0 53.056 43.008 96 94.848 96l8.384-0.256a96 96 0 0 0 88.832-95.744V412.8a96 96 0 0 0-95.616-96z m11.008 324.864a32 32 0 0 1 31.488 26.24l0.512 5.76v98.432a32 32 0 0 1-63.488 5.76l-0.512-5.76v-98.432a32 32 0 0 1 32-32z m-289.728 26.752a32 32 0 0 1 5.76 63.488l-5.76 0.512H250.624a32 32 0 0 1-5.76-63.488l5.76-0.512h274.304z m289.728-271.168a32 32 0 0 1 31.488 26.24l0.512 5.76v98.432a32 32 0 0 1-63.488 5.76l-0.512-5.76V429.184a32 32 0 0 1 32-32zM524.928 480.256a32 32 0 0 1 5.76 63.488l-5.76 0.512H250.624a32 32 0 0 1-5.76-63.488l5.76-0.512h274.304z m0-188.096a32 32 0 0 1 5.76 63.488l-5.76 0.512H250.624a32 32 0 0 1-5.76-63.488l5.76-0.512h274.304z" p-id="2671"></path></svg>