<?xml version="1.0" standalone="no"?><!DOCTYPE svg PUBLIC "-//W3C//DTD SVG 1.1//EN" "http://www.w3.org/Graphics/SVG/1.1/DTD/svg11.dtd"><svg t="1629787824122" class="icon" viewBox="0 0 1024 1024" version="1.1" xmlns="http://www.w3.org/2000/svg" p-id="6381" width="128" height="128" xmlns:xlink="http://www.w3.org/1999/xlink"><defs><style type="text/css"></style></defs><path d="M473.28 64a229.056 229.056 0 1 1 0 458.112 229.056 229.056 0 0 1 0-458.112z m0 64a165.056 165.056 0 1 0 0 330.112 165.056 165.056 0 0 0 0-330.112z" p-id="6382"></path><path d="M473.28 471.808c76.672 0 147.84 19.776 208.64 54.848a276.928 276.928 0 0 0-64.384 38.976 354.88 354.88 0 0 0-130.176-29.568l-14.08-0.256a345.344 345.344 0 0 0-342.848 304l-0.896 9.216h392.64c5.568 22.592 13.888 44.032 24.576 64H96a32 32 0 0 1-32-32 409.28 409.28 0 0 1 409.28-409.216z" p-id="6383"></path><path d="M763.712 571.648l25.472-2.88 26.56 1.728c9.984 0.704 13.888 3.904 14.336 12.16v11.648c0.96 13.44 7.424 23.04 19.456 28.8a33.28 33.28 0 0 0 37.376-5.568l4.16-4.48c8.448-10.624 13.056-11.84 22.976-2.944 12.8 11.52 24.96 23.68 36.8 36.224 6.656 7.168 6.912 12.416 1.344 18.304l-3.2 3.008a34.752 34.752 0 0 0-11.2 40.64c5.696 14.4 19.584 22.656 35.904 21.376 14.784-1.216 17.6 0.192 18.752 15.36 1.28 17.472 1.088 35.072 0.576 52.736-0.256 8.448-4.352 12.032-12.544 12.16l-4.48-0.192a34.176 34.176 0 0 0-38.4 36.48 33.472 33.472 0 0 0 9.28 21.76l4.672 4.224c10.24 7.808 11.392 12.992 2.944 22.656a624.64 624.64 0 0 1-36.8 38.4c-6.528 6.336-11.84 6.272-17.536 0.832l-2.88-3.2c-11.072-13.888-26.176-18.24-41.152-11.84a33.472 33.472 0 0 0-20.544 31.744l0.32 6.464c1.408 12.288-1.024 16.64-13.056 17.408-18.496 1.152-37.12 1.024-55.68 0.64-6.912 0-10.496-3.84-10.88-10.688l0.064-4.48c1.408-12.928-1.344-23.936-11.52-32.768a33.728 33.728 0 0 0-49.472 4.992c-9.024 11.648-13.184 12.8-23.936 3.2a529.152 529.152 0 0 1-36.224-35.84c-8.32-9.024-7.232-14.4 2.304-22.272a34.624 34.624 0 0 0-17.472-62.016c-4.032-0.384-8.32 0.576-12.416 0.832-7.808 0.576-12.032-2.56-13.44-10.432a193.792 193.792 0 0 1-0.768-60.096c1.024-7.232 5.568-10.56 12.8-10.496l10.88 0.32a32.64 32.64 0 0 0 30.976-27.136 32.768 32.768 0 0 0-8.128-30.464l-4.16-4.032c-11.2-9.472-12.352-13.184-2.56-24.256 11.264-12.928 23.488-25.216 36.032-36.992 6.272-6.144 11.52-6.144 17.088-0.96l2.816 3.008c11.456 13.44 26.304 17.856 40.768 11.776a33.536 33.536 0 0 0 20.928-31.36l-0.192-6.592c-0.96-11.968 1.6-15.36 13.056-16.896z m27.968 86.912c-9.856 11.52-22.208 20.736-37.056 26.944a97.088 97.088 0 0 1-35.712 7.68l-6.272-0.192 0.32 8.704c-0.064 3.264-0.256 6.592-0.64 9.984l-1.664 10.112a98.752 98.752 0 0 1-25.6 48.64l-4.672 4.224 2.88 2.432c10.88 9.984 19.584 22.528 25.152 36.736l3.008 8.768c2.56 8.96 3.84 17.984 3.84 26.88l-0.192 5.632 2.24-0.192c21.376-1.152 43.2 4.8 61.888 18.048l7.808 6.144 3.84 3.52 3.968 4.096 5.312-5.76c6.4-6.4 13.824-11.904 22.144-16.512l8.64-4.224c12.096-5.12 24.448-7.808 36.544-8.064l6.464 0.128-0.256-2.368a98.112 98.112 0 0 1 27.392-74.496l4.992-4.864-2.112-1.792a97.408 97.408 0 0 1-21.888-28.608l-3.84-8.576a99.84 99.84 0 0 1-7.04-35.456l0.192-6.08-6.016 0.384a98.688 98.688 0 0 1-34.688-5.952l-8.512-3.584a98.56 98.56 0 0 1-24.064-15.872l-6.4-6.464z" p-id="6384"></path></svg>