<?xml version="1.0" encoding="UTF-8"?>
<svg width="16px" height="16px" viewBox="0 0 16 16" version="1.1" xmlns="http://www.w3.org/2000/svg" xmlns:xlink="http://www.w3.org/1999/xlink">
    <title>erp-@2x</title>
    <g id="优惠券" stroke="none" stroke-width="1" fill="none" fill-rule="evenodd">
        <g id="画板" transform="translate(-59.000000, -127.000000)" stroke="#CCCCCC">
            <g id="erp-" transform="translate(59.000000, 127.000000)">
                <path d="M7.83016947,14.2498674 L7.83016947,14.2498674 L6.53423347,14.2498674 L3.70429449,14.2498674 C3.15200974,14.2498674 2.70429449,13.8021521 2.70429449,13.2498674 L2.70429449,7.17610068 C2.70429449,7.06564373 2.61475144,6.97610068 2.50429449,6.97610068 L1.21427147,6.97610068 L1.21427147,6.97610068 C1.09593261,6.97610068 1,6.88498832 1,6.77259553 C1,6.71318731 1.02733305,6.65674525 1.07482545,6.61808289 L7.85564999,1.09798504 C8.01613492,0.967338319 8.25294916,0.967338319 8.41343409,1.09798504 L15.1942586,6.61808289 C15.2841082,6.69122715 15.2945136,6.81969995 15.2174996,6.90503492 C15.1767919,6.95014101 15.1173638,6.97610068 15.0548126,6.97610068 L13.4609186,6.97610068 C13.447075,6.97610068 13.4358526,6.98732312 13.4358526,7.00116671 L13.4358526,7.94476861 L13.4358526,7.94476861" id="路径" stroke-linecap="round"></path>
                <path d="M12.6764096,9.69573576 C12.6953756,9.82837089 12.735578,9.94657758 12.7924688,10.0511111 C12.892635,10.2351605 13.0462577,10.3839899 13.2639682,10.4868923 C13.4915837,10.5935415 13.7304064,10.6133562 13.9510051,10.5604997 C14.0931501,10.5264411 14.2290294,10.4618518 14.349624,10.3666269 C14.4166575,10.4306447 14.4826833,10.4958785 14.5477663,10.5620704 C14.4678786,10.6700844 14.4115529,10.7876231 14.3779324,10.9094461 C14.3195648,11.1209391 14.3280538,11.3487576 14.4165473,11.5747929 C14.5044429,11.797131 14.6566658,11.9707844 14.8484403,12.0849376 C14.9717374,12.1583299 15.1125326,12.2074947 15.2650524,12.2258708 C15.2681017,12.3222165 15.2687417,12.4187529 15.2678458,12.5154757 C15.0473776,12.5480384 14.8521843,12.6474573 14.7012527,12.7906646 C14.489017,12.9920387 14.3599587,13.2835277 14.3795075,13.6176777 C14.3933758,13.8497003 14.4700225,14.0493223 14.6067284,14.2159403 C14.5441241,14.2832737 14.4804704,14.3496536 14.4158814,14.4151349 C14.3069223,14.332047 14.1899422,14.2744205 14.07,14.2400132 C13.8519309,14.1774565 13.6180696,14.1881599 13.3825277,14.2890515 C13.1532815,14.3884754 12.984305,14.5491132 12.8777649,14.7505257 C12.816077,14.8671459 12.7748424,14.9995313 12.7601374,15.1453354 C12.6701647,15.1475009 12.5800426,15.1482185 12.4899091,15.1479659 C12.4592439,14.9008124 12.3487095,14.6863095 12.1382207,14.502462 C11.9073066,14.3015104 11.6215697,14.2206008 11.347754,14.2483667 C11.1517895,14.2682381 10.9602545,14.3438913 10.7983542,14.4756678 C10.7319808,14.4121281 10.6668333,14.3472217 10.6026445,14.2812925 C10.6755614,14.1858697 10.730156,14.081873 10.7664124,13.9734757 C10.831915,13.7776396 10.8386967,13.5656875 10.7779985,13.3556744 C10.7177243,13.1472169 10.5993224,12.9696128 10.4417583,12.8381321 C10.2861328,12.7082689 10.0915823,12.6225789 9.86760534,12.5996173 L9.872,12.6 L9.86641369,12.4553721 L9.86641369,12.4553721 L9.87,12.318 L9.97338885,12.3013317 C10.1422285,12.2614519 10.2851097,12.1899987 10.4029773,12.0935204 L10.4867028,12.0165717 C10.6165584,11.8828215 10.7114744,11.7106851 10.7574763,11.4962725 C10.8016584,11.2879851 10.7855014,11.0977155 10.7238,10.9252962 C10.6857448,10.8189541 10.6296144,10.7182396 10.5544047,10.624894 C10.6187572,10.5562262 10.6845896,10.4887713 10.7514183,10.4223782 C10.85913,10.5022399 10.9736197,10.5580493 11.0901239,10.5918441 C11.3078693,10.6550062 11.5379756,10.6450413 11.76538,10.5497023 C11.9948527,10.4530853 12.1644571,10.2963317 12.2734742,10.097237 C12.5176372,9.710123 12.607243,9.70072747 12.6764096,9.69573576 Z" id="路径"></path>
            </g>
        </g>
    </g>
</svg>