<?xml version="1.0" standalone="no"?><!DOCTYPE svg PUBLIC "-//W3C//DTD SVG 1.1//EN" "http://www.w3.org/Graphics/SVG/1.1/DTD/svg11.dtd"><svg t="1630035123269" class="icon" viewBox="0 0 1024 1024" version="1.1" xmlns="http://www.w3.org/2000/svg" p-id="5892" xmlns:xlink="http://www.w3.org/1999/xlink" width="128" height="128"><defs><style type="text/css"></style></defs><path d="M475.84 64.96l409.728 78.08a12.8 12.8 0 0 1 9.92 8.96l0.512 3.584v414.848a198.72 198.72 0 0 1-21.312 87.616 414.016 414.016 0 0 1-55.808 84.48c-23.872 28.16-50.24 54.08-78.848 77.568-28.416 23.68-58.496 45.376-89.856 65.088-28.288 17.984-57.92 33.92-88.512 47.552-18.176 8.32-36.928 15.36-56.064 20.864l-19.328 5.12-10.24 1.792-9.344-1.792a82.304 82.304 0 0 1-20.16-6.976l-19.008-10.24a250.048 250.048 0 0 0-8.192-4.224l-9.92-4.48a737.28 737.28 0 0 1-91.2-47.616c-32.32-19.584-63.36-41.344-92.8-65.088a640.192 640.192 0 0 1-81.408-77.504 414.144 414.144 0 0 1-57.856-84.544 192.96 192.96 0 0 1-21.568-74.56L64 570.432V155.52a12.8 12.8 0 0 1 6.912-11.392l3.392-1.216 391.808-77.952 4.864-0.448 4.864 0.448z m-3.968 64.128L128 197.568V569.6c0.192 16.384 3.456 32.512 9.728 47.744l5.312 11.264c13.248 25.728 29.696 49.728 48.96 71.552 22.4 25.408 46.912 48.704 73.6 70.016a787.2 787.2 0 0 0 147.84 93.952l29.568 13.568 33.472 17.344 11.264-2.944c10.752-3.2 21.44-6.848 32-11.072l15.872-6.848a622.528 622.528 0 0 0 80.512-43.264c29.184-18.368 56.96-38.4 83.264-60.416 25.792-21.12 49.344-44.288 70.784-69.504 18.688-22.016 34.56-45.952 47.36-71.872 7.488-14.72 12.16-30.72 13.76-46.72L832 570.432v-372.48L471.872 129.088z" p-id="5893"></path><path d="M701.696 323.712a32 32 0 0 1 3.584 40.832l-3.712 4.416-244.736 243.904a38.4 38.4 0 0 1-49.472 4.032l-4.736-4.032-131.712-131.2a32 32 0 0 1 40.768-49.088l4.48 3.712 113.6 113.216 226.624-225.92A32 32 0 0 1 697.216 320l4.48 3.712z" p-id="5894"></path></svg>