<?xml version="1.0" encoding="UTF-8"?>
<svg width="16px" height="16px" viewBox="0 0 16 16" version="1.1" xmlns="http://www.w3.org/2000/svg" xmlns:xlink="http://www.w3.org/1999/xlink">
    <title>抽奖管理</title>
    <g id="结算单" stroke="none" stroke-width="1" fill="none" fill-rule="evenodd">
        <g id="画板备份" transform="translate(-20.000000, -52.000000)" fill-rule="nonzero">
            <g id="礼物-活动" transform="translate(20.000000, 52.000000)">
                <rect id="矩形" fill="#000000" opacity="0" x="0" y="0.240179811" width="16" height="15.0588235"></rect>
                <path d="M13.5081457,3.73487107 L13.028887,3.73487107 C13.271915,3.34704759 13.3785664,2.97713367 13.3444939,2.63401096 C13.3162179,2.34684137 13.1716122,1.93612355 12.6417018,1.60879958 C12.2023641,1.3367792 11.6373805,1.2700609 11.010566,1.41744518 C9.99409929,1.65764081 8.79108743,2.48341173 8.00010351,3.481361 C7.20863654,2.48342796 6.00659079,1.6576408 4.99014136,1.41744518 C4.36280929,1.26910291 3.79734264,1.33629209 3.35805666,1.60879958 C2.82861206,1.93612357 2.68397185,2.34684137 2.65571317,2.63401096 C2.6216406,2.97713367 2.7273087,3.34704759 2.97132006,3.73487107 L2.49206134,3.73487107 C1.76639324,3.73487107 1.17582505,4.29112213 1.17582505,4.97462345 L1.17582505,6.57144622 C1.17582505,7.11212588 1.55472927,7.58998416 2.10292673,7.75045556 C2.05082588,7.88613289 2.02355058,8.02638909 2.02355058,8.16851255 L2.02355058,12.9592244 C2.02355058,13.6422548 2.61479161,14.1987332 3.34052871,14.1987332 L12.6611793,14.1987332 C13.3868646,14.1987332 13.977174,13.6422711 13.977174,12.9592244 L13.977174,8.1684963 C13.977174,8.02546356 13.9508993,7.88475272 13.8987812,7.74996843 C14.4461678,7.58860399 14.8241749,7.11074573 14.8241749,6.57142997 L14.8241749,4.97502937 C14.8241749,4.29157676 14.2338483,3.73487107 13.5081457,3.73487107 M12.661162,13.3158563 L8.46866603,13.3158563 L8.46866603,7.81140968 L12.6611792,7.81140968 C12.8701347,7.81140968 13.0395832,7.97183236 13.0395832,8.1684963 L13.0395832,12.9592081 C13.0395832,13.1558883 12.8701174,13.3158563 12.661162,13.3158563 M8.98493015,3.73487107 C9.65170014,3.01102052 10.5268908,2.4421857 11.2375324,2.27439135 C11.6066893,2.18731171 11.9086499,2.21114779 12.1273527,2.34684135 C12.3597017,2.49052358 12.4010373,2.6186344 12.4103361,2.71539137 C12.447307,3.07017231 12.043077,3.54850147 11.8521671,3.73487107 L8.98493015,3.73487107 Z M13.8860838,4.97504562 L13.8860838,6.57144622 C13.8860838,6.76811015 13.7170839,6.92804572 13.5081457,6.92804572 L8.46866603,6.92804572 L8.46866603,4.61818631 L13.5081457,4.61818631 C13.7170839,4.61818631 13.8860838,4.77841416 13.8860838,4.97504562 M7.53107518,7.81140968 L7.53107518,13.3158563 L3.34051143,13.3158563 C3.1310557,13.3158563 2.96155545,13.1558721 2.96155545,12.9592081 L2.96155545,8.1684963 C2.96155545,7.97183236 3.1310557,7.81140968 3.34051143,7.81140968 L7.53107518,7.81140968 Z M3.58988814,2.71539137 C3.59911792,2.6186344 3.64102288,2.49050733 3.87238855,2.34684135 C4.08957315,2.21114779 4.39155099,2.18614264 4.7627091,2.27439135 C5.46940008,2.44124393 6.34364181,3.01012746 7.01187823,3.73487107 L4.14705659,3.73487107 C3.97610718,3.57191539 3.55236518,3.07868056 3.58988814,2.71539137 M2.11313985,4.97504562 C2.11313985,4.7784304 2.2826401,4.61818631 2.49204408,4.61818631 L7.53105793,4.61818631 L7.53105793,6.92804571 L2.49204408,6.92804571 C2.2826401,6.92804571 2.11313985,6.76811013 2.11313985,6.5714462 L2.11313985,4.97504562 Z" id="形状" stroke="#CCCCCC" stroke-width="0.1" fill="#CCCCCC"></path>
            </g>
        </g>
    </g>
</svg>