<?xml version="1.0" standalone="no"?><!DOCTYPE svg PUBLIC "-//W3C//DTD SVG 1.1//EN" "http://www.w3.org/Graphics/SVG/1.1/DTD/svg11.dtd"><svg t="1630034887302" class="icon" viewBox="0 0 1024 1024" version="1.1" xmlns="http://www.w3.org/2000/svg" p-id="4111" xmlns:xlink="http://www.w3.org/1999/xlink" width="128" height="128"><defs><style type="text/css"></style></defs><path d="M848.128 697.856a187.52 187.52 0 0 0 69.376 4.928 448.128 448.128 0 0 1-610.112 207.872c10.88-9.6 20.032-23.168 29.568-44.928a27.008 27.008 0 0 0 0.96-11.2C390.144 880.96 449.28 896 512 896c144.64 0 270.592-80 336.128-198.144zM162.944 231.168c7.552 9.984 16.96 13.184 38.08 44.352l4.352 5.248A382.336 382.336 0 0 0 128 512c0 54.656 11.392 106.624 32 153.728-19.328 11.136-36.48 25.6-50.816 42.56A445.952 445.952 0 0 1 64 512a446.08 446.08 0 0 1 93.376-273.728l5.568-7.04zM512 64a448.128 448.128 0 0 1 438.4 355.392l9.6 1.152a413.12 413.12 0 0 0-75.776-3.328l-0.768-2.88a384.192 384.192 0 0 0-444.16-279.488 190.656 190.656 0 0 0-30.336-58.88A449.216 449.216 0 0 1 512 64z" p-id="4112"></path><path d="M256 64a128 128 0 1 1 0 256 128 128 0 0 1 0-256z m0 64a64 64 0 1 0 0 128 64 64 0 0 0 0-128zM256 704a128 128 0 1 1 0 256 128 128 0 0 1 0-256z m0 64a64 64 0 1 0 0 128 64 64 0 0 0 0-128zM896 384a128 128 0 1 1 0 256 128 128 0 0 1 0-256z m0 64a64 64 0 1 0 0 128 64 64 0 0 0 0-128z" p-id="4113"></path></svg>