<?xml version="1.0" standalone="no"?><!DOCTYPE svg PUBLIC "-//W3C//DTD SVG 1.1//EN" "http://www.w3.org/Graphics/SVG/1.1/DTD/svg11.dtd"><svg t="1629787121833" class="icon" viewBox="0 0 1024 1024" version="1.1" xmlns="http://www.w3.org/2000/svg" p-id="3664" xmlns:xlink="http://www.w3.org/1999/xlink" width="128" height="128"><defs><style type="text/css"></style></defs><path d="M767.168 64a127.744 127.744 0 0 1 126.272 107.392l1.28 10.816 44.352 576a127.68 127.68 0 0 1-105.152 135.808l-13.952 1.6L191.872 896a127.68 127.68 0 0 1-127.36-115.2L64 766.72l44.608-584.512a127.744 127.744 0 0 1 116.8-117.76L236.16 64zM237.76 128l-7.808 0.32a63.744 63.744 0 0 0-57.6 58.752l-44.48 580.096 0.448 8.064a63.68 63.68 0 0 0 18.304 38.016 63.68 63.68 0 0 0 45.248 18.752l623.68-0.064 8-1.088a63.68 63.68 0 0 0 51.712-67.776l-44.16-574.464-0.896-7.68A63.744 63.744 0 0 0 767.168 128H237.76z m455.936 109.44a32 32 0 0 1 32 32 224 224 0 1 1-448 0 32 32 0 1 1 64 0 160 160 0 1 0 320 0 32 32 0 0 1 32-32z" p-id="3665"></path></svg>