<?xml version="1.0" standalone="no"?><!DOCTYPE svg PUBLIC "-//W3C//DTD SVG 1.1//EN" "http://www.w3.org/Graphics/SVG/1.1/DTD/svg11.dtd"><svg t="1629787134310" class="icon" viewBox="0 0 1024 1024" version="1.1" xmlns="http://www.w3.org/2000/svg" p-id="4090" xmlns:xlink="http://www.w3.org/1999/xlink" width="128" height="128"><defs><style type="text/css"></style></defs><path d="M705.28 64a32 32 0 0 1 31.424 26.24l0.512 5.76v33.344h62.784a160 160 0 0 1 159.68 149.504l0.32 10.56v452.544a160 160 0 0 1-160 160h-576a160 160 0 0 1-160-160V289.408a160 160 0 0 1 160-160l62.72-0.064V96a32 32 0 0 1 63.552-5.76l0.512 5.76-0.064 33.344h322.496V96a32 32 0 0 1 32-32zM286.72 193.344H224a96 96 0 0 0-96 96v452.608a96 96 0 0 0 96 96h576a96 96 0 0 0 96-96V289.408a96 96 0 0 0-96-96l-62.784-0.064v21.504a32 32 0 0 1-63.488 5.76l-0.512-5.76v-21.504H350.72v21.504a32 32 0 0 1-63.424 5.76l-0.512-5.76-0.064-21.504z m367.936 170.56a32 32 0 0 1 0.448 40.96l-4.032 4.096-52.224 44.544h71.04a32 32 0 0 1 5.76 63.552l-5.76 0.512-125.952-0.064v44.992h125.952a32 32 0 0 1 5.76 63.488l-5.76 0.512H543.936l0.064 73.6a32 32 0 0 1-63.488 5.76l-0.512-5.76-0.064-73.6H354.112a32 32 0 0 1-5.76-63.488l5.76-0.512H480v-44.992H354.112a32 32 0 0 1-5.76-63.424l5.76-0.512 70.976-0.064-52.16-44.544a32 32 0 0 1 36.8-52.032l4.736 3.392L512 443.456l97.536-83.2a32 32 0 0 1 45.12 3.648z" p-id="4091"></path></svg>