<?xml version="1.0" standalone="no"?><!DOCTYPE svg PUBLIC "-//W3C//DTD SVG 1.1//EN" "http://www.w3.org/Graphics/SVG/1.1/DTD/svg11.dtd"><svg t="1629787065463" class="icon" viewBox="0 0 1024 1024" version="1.1" xmlns="http://www.w3.org/2000/svg" p-id="2386" xmlns:xlink="http://www.w3.org/1999/xlink" width="128" height="128"><defs><style type="text/css"></style></defs><path d="M771.2 534.4c68.864 3.008 126.592 64 127.552 134.592 0.768 30.912-9.152 61.504-27.776 87.04l-7.424 9.28a95.36 95.36 0 0 0-16.256 24.64l-3.712 9.344-2.752 9.344h101.312c29.568 0 54.4 21.376 60.864 49.792l1.28 7.232 0.384 7.488v91.392c0 13.632-9.6 25.088-22.4 27.456l-4.864 0.448h-423.68a27.52 27.52 0 0 1-26.88-22.912l-0.448-4.992v-91.392a64 64 0 0 1 55.296-64l7.296-0.448 100.928-0.064-2.56-8.256a120.96 120.96 0 0 0-9.152-19.008l-5.888-9.152-6.784-8.96a140.16 140.16 0 0 1-33.216-91.2c0-37.568 14.464-72.832 40.832-99.2a130.112 130.112 0 0 1 85.568-38.208l12.544-0.192zM686.72 0c79.616 0 144.64 62.336 149.888 141.12l0.32 10.368V480a32 32 0 0 1-63.488 5.76l-0.512-5.76V151.488a87.04 87.04 0 0 0-77.888-87.04L686.72 64H214.208c-44.672 0-81.536 34.56-85.76 79.04L128 151.488v657.024a87.04 87.04 0 0 0 77.888 87.04l8.32 0.448h208.512a32 32 0 0 1 5.76 63.488l-5.76 0.512H214.144a150.72 150.72 0 0 1-149.76-141.12L64 808.512V151.488C64 71.36 125.696 5.696 203.84 0.32L214.144 0h472.64z m81.92 590.208a74.56 74.56 0 0 0-57.344 22.848 82.56 82.56 0 0 0-24.448 59.008c0 16.896 5.248 33.792 14.72 47.488l5.056 6.592c27.136 32 41.984 70.848 41.984 110.464 0 13.568-9.6 25.024-22.4 27.456l-4.864 0.448H588.992a8.256 8.256 0 0 0-7.68 5.888l-0.448 2.816v63.424h369.216v-63.488a8.704 8.704 0 0 0-5.504-8.32l-2.56-0.384h-132.352a27.648 27.648 0 0 1-27.264-27.904c0-36.48 11.264-71.232 32.192-98.88l8.32-9.984c13.824-15.168 21.312-35.456 21.312-57.344-0.768-42.56-34.816-78.592-75.52-80.128z m-345.344-22.592a32 32 0 0 1 5.76 63.488l-5.76 0.512H233.472a32 32 0 0 1-5.76-63.488l5.76-0.512h189.824z m223.68-179.328a32 32 0 0 1 5.76 63.488l-5.76 0.512H233.472a32 32 0 0 1-5.76-63.488l5.76-0.512h413.504z m0-179.392a32 32 0 0 1 5.76 63.488l-5.76 0.512H233.472a32 32 0 0 1-5.76-63.488l5.76-0.512h413.504z" p-id="2387"></path></svg>