<?xml version="1.0" encoding="UTF-8"?>
<svg width="16px" height="16px" viewBox="0 0 16 16" version="1.1" xmlns="http://www.w3.org/2000/svg" xmlns:xlink="http://www.w3.org/1999/xlink">
    <title>证件审核@3x</title>
    <g id="优惠券" stroke="none" stroke-width="1" fill="none" fill-rule="evenodd">
        <g id="画板" transform="translate(-157.000000, -126.000000)" stroke="#CCCCCC">
            <g id="证件审核" transform="translate(157.000000, 126.000000)">
                <path d="M14,2.06841987 C14.4142136,2.06841987 14.7892136,2.23631309 15.0606602,2.5077597 C15.3321068,2.77920631 15.5,3.15420631 15.5,3.56841987 L15.5,3.56841987 L15.5,12 C15.5,12.4142136 15.3321068,12.7892136 15.0606602,13.0606602 C14.7892136,13.3321068 14.4142136,13.5 14,13.5 L14,13.5 L2,13.5 C1.58578644,13.5 1.21078644,13.3321068 0.939339828,13.0606602 C0.667893219,12.7892136 0.5,12.4142136 0.5,12 L0.5,12 L0.5,3.56841987 C0.5,3.15420631 0.667893219,2.77920631 0.939339828,2.5077597 C1.21078644,2.23631309 1.58578644,2.06841987 2,2.06841987 L2,2.06841987 Z" id="矩形"></path>
                <line x1="3.13567337" y1="5.5" x2="12.5" y2="5.5" id="直线" stroke-linecap="round"></line>
                <line x1="3.13567337" y1="9.5" x2="8.5" y2="9.5" id="直线备份" stroke-linecap="round"></line>
                <g id="审核" transform="translate(10.598420, 7.208708)" fill="#CCCCCC" fill-rule="nonzero" stroke-width="0.2">
                    <path d="M3.44064839,4.30744729 L0.153723645,4.30744729 C0.0688253316,4.30744729 0,4.23862196 0,4.15372364 C0,4.06882533 0.0688253316,4 0.153723645,4 L3.44069991,4 C3.52559822,4 3.59442355,4.06882533 3.59442355,4.15372364 C3.59442355,4.23862196 3.52559822,4.30744729 3.44064839,4.30744729 Z M3.43508377,3.38835093 L0.155577321,3.38835093 C0.0706790076,3.38835093 0.00185367591,3.31952559 0.00185367591,3.23462728 L0.00185367591,2.6910308 C0.00185367591,2.42222048 0.220435923,2.20353521 0.48909169,2.20353521 L1.11037425,2.20353521 C1.10202866,2.04162052 1.04675203,1.7821346 0.997039123,1.72469429 C0.832497125,1.51301519 0.742807826,1.26774767 0.732350085,1.00887994 C0.731474314,0.72564515 0.847642819,0.457762123 1.05113089,0.268234881 C1.25137345,0.081644049 1.52188379,-0.0152574846 1.79563964,0.00205188025 C2.0671803,-0.0155150644 2.33629971,0.0803561498 2.53628469,0.265040891 C2.73936064,0.45255901 2.85676552,0.718072303 2.85841404,0.993476661 C2.84867752,1.26017482 2.7589367,1.50662721 2.59887659,1.71274259 C2.5453515,1.77533449 2.48966274,2.03399616 2.48044139,2.19591084 L3.10162091,2.19591084 C3.37027668,2.19591084 3.58885893,2.41459612 3.58885893,2.68335492 L3.58885893,3.2346788 C3.58880741,3.31957711 3.51998208,3.38835093 3.43508377,3.38835093 Z M0.309300966,3.08090364 L3.28130861,3.08090364 L3.28130861,2.6833034 C3.28130861,2.58408365 3.2006346,2.50330662 3.10151788,2.50330662 L2.37534881,2.50330662 C2.32527529,2.50330662 2.27829273,2.47888805 2.24949531,2.43788134 C2.20678857,2.37704098 2.18030936,2.30533076 2.17273652,2.23058109 C2.17206681,2.22403856 2.17186075,2.21744452 2.17201529,2.21074744 C2.17479716,2.11374288 2.2171948,1.68549064 2.3607698,1.51826982 C2.47637163,1.36913109 2.54375451,1.18393119 2.55101826,0.988582645 C2.54978188,0.804619127 2.46838665,0.620758642 2.32769655,0.490835373 C2.18736705,0.361272717 1.99814891,0.295280763 1.8071277,0.309344622 C1.79950334,0.309962814 1.79193049,0.309911298 1.78430613,0.309396138 C1.59261521,0.294611056 1.40128491,0.362148488 1.26069784,0.493102076 C1.11969864,0.624519307 1.03917918,0.81007982 1.03969434,1.00223438 C1.04742174,1.19098888 1.11485614,1.37536452 1.23463076,1.52980939 C1.37532087,1.69187862 1.41627606,2.12183088 1.41859428,2.21924758 C1.41874883,2.22486282 1.41854276,2.23052957 1.41807912,2.2360933 C1.41163962,2.3106369 1.38500587,2.38311987 1.34101123,2.44566025 C1.31219571,2.48656394 1.2652952,2.51090763 1.21526076,2.51093098 L0.489143206,2.51093098 C0.390026486,2.51093098 0.309352482,2.59170802 0.309352482,2.69097928 L0.309352482,3.08090364 L0.309300966,3.08090364 Z" id="形状"></path>
                </g>
            </g>
        </g>
    </g>
</svg>