<?xml version="1.0" encoding="UTF-8"?>
<svg width="16px" height="16px" viewBox="0 0 16 16" version="1.1" xmlns="http://www.w3.org/2000/svg" xmlns:xlink="http://www.w3.org/1999/xlink">
    <title>营销管理</title>
    <g id="结算单" stroke="none" stroke-width="1" fill="none" fill-rule="evenodd">
        <g id="画板" transform="translate(-20.000000, -252.000000)">
            <g id="编组-4" transform="translate(0.000000, 240.000000)">
                <g id="编组-45" transform="translate(20.000000, 12.000000)">
                    <rect id="矩形" x="0" y="0" width="16" height="16"></rect>
                    <g id="编组-44" transform="translate(1.000000, 2.000000)" fill="#CCCCCC" fill-rule="nonzero">
                        <path d="M12.5,0 L1.5,0 C0.671572875,0 0,0.671572875 0,1.5 L0,9.5 C0,10.3284271 0.671572875,11 1.5,11 L12.5,11 C13.3284271,11 14,10.3284271 14,9.5 L14,1.5 C14,0.671572875 13.3284271,0 12.5,0 Z M1.5,1 L12.5,1 C12.7761424,1 13,1.22385763 13,1.5 L13,9.5 C13,9.77614237 12.7761424,10 12.5,10 L1.5,10 C1.22385763,10 1,9.77614237 1,9.5 L1,1.5 C1,1.22385763 1.22385763,1 1.5,1 Z" id="矩形"></path>
                        <path d="M11.3247514,2.40447452 C11.5217182,2.21093211 11.8382885,2.21370819 12.0318309,2.41067506 C12.2038686,2.58575672 12.2207905,2.85533988 12.0840909,3.04901676 L12.0256304,3.11775466 L7.85043953,7.22035572 C7.68391485,7.3839852 7.43064227,7.40798007 7.23867374,7.29008494 L7.16058646,7.23086473 L6.019,6.176 L3.31231125,8.59993032 C3.12944412,8.76366843 2.85936638,8.76807742 2.6722334,8.62254813 L2.60627891,8.56096463 C2.4425408,8.37809749 2.43813181,8.10801975 2.5836611,7.92088677 L2.64524461,7.85493228 L5.69131353,5.12750098 C5.85942571,4.97697437 6.10358102,4.95993252 6.2888554,5.07530278 L6.36426039,5.13285092 L7.489,6.173 L11.3247514,2.40447452 Z" id="路径-17"></path>
                    </g>
                </g>
            </g>
        </g>
    </g>
</svg>