<?xml version="1.0" encoding="UTF-8"?>
<svg width="16px" height="18px" viewBox="0 0 16 18" version="1.1" xmlns="http://www.w3.org/2000/svg" xmlns:xlink="http://www.w3.org/1999/xlink">
    <title>企业审核</title>
    <g id="结算单" stroke="none" stroke-width="1" fill="none" fill-rule="evenodd">
        <g id="画板备份" transform="translate(-20.000000, -171.000000)" fill-rule="nonzero">
            <g id="编组-2" transform="translate(0.000000, 160.000000)">
                <g id="审核" transform="translate(20.000000, 11.500000)">
                    <rect id="矩形" fill="#000000" opacity="0" x="0" y="0.0330469073" width="16" height="16"></rect>
                    <path d="M13.9846094,15.0991274 L2.01523437,15.0991274 C1.75773437,15.0991274 1.54898437,14.8559647 1.54898437,14.5560156 C1.54898437,14.2560664 1.75773437,14.0129038 2.01523437,14.0129038 L13.9847656,14.0129038 C14.2422656,14.0129038 14.4510156,14.2560664 14.4510156,14.5560156 C14.4510156,14.8559647 14.2422656,15.0991274 13.9846094,15.0991274 Z M13.9836719,12.9381466 L2.03679687,12.9381466 C1.77929687,12.9381466 1.57054687,12.6949839 1.57054687,12.3950348 L1.57054687,10.4744865 C1.57054687,9.52476887 2.23351562,8.75214498 3.04835937,8.75214498 L5.93273437,8.75214498 C5.90742187,8.18009389 5.73976562,7.26331967 5.58898437,7.06038077 C5.08992187,6.31250996 4.81789062,5.44596995 4.78617187,4.53137983 C4.78351562,3.53069993 5.13585937,2.58425841 5.75304687,1.91465104 C6.36039062,1.25541812 7.18085937,0.9130611 8.01117187,0.974215783 C8.83476562,0.91215106 9.65101562,1.25086792 10.2575781,1.90336654 C10.8735156,2.5658756 11.2296094,3.50394476 11.2346094,4.47695944 C11.2050781,5.41921477 10.9328906,6.28994097 10.4474219,7.01815492 C10.2850781,7.23929462 10.1161719,8.1531567 10.0882031,8.7252078 L12.9722656,8.7252078 C13.7871094,8.7252078 14.4500781,9.49783169 14.4500781,10.4473673 L14.4500781,12.3952168 C14.4499219,12.695166 14.2411719,12.9381466 13.9836719,12.9381466 Z M13.5172656,11.851923 L13.5172656,10.4471853 C13.5172656,10.096638 13.2725781,9.81124944 12.9719531,9.81124944 L9.76945312,9.81124944 C9.61757812,9.81124944 9.47507812,9.72497766 9.38773437,9.5800993 C9.25820312,9.36514787 9.17789062,9.11179276 9.15492187,8.84769917 C9.15289062,8.82458416 9.15226562,8.80128714 9.15273437,8.7776261 C9.16117187,8.43490506 9.28976562,6.92187269 9.72523437,6.33107477 C10.0758594,5.80416166 10.2802344,5.14984296 10.3022656,4.45966868 C10.2985156,3.80971817 10.0516406,3.16013167 9.62492187,2.70110754 C9.19929687,2.24335746 8.62539062,2.01020523 8.04601562,2.05989341 C8.02289062,2.0620775 7.99992187,2.0618955 7.97679687,2.06007542 C7.39539062,2.00783913 6.81507812,2.24645159 6.38867187,2.70911589 C5.96101562,3.17341826 5.71679687,3.82901102 5.71835937,4.5079008 C5.74179687,5.17477805 5.94632812,5.82618463 6.30960937,6.37184456 C6.73632812,6.94444168 6.86054687,8.46348032 6.86757812,8.80765742 C6.86804687,8.82749629 6.86742187,8.84751716 6.86601562,8.86717403 C6.84648437,9.13053958 6.76570312,9.38662481 6.63226562,9.60758251 C6.54486699,9.75209688 6.40261585,9.83810412 6.25085937,9.83818662 L3.04851562,9.83818662 C2.74789062,9.83818662 2.50320312,10.1235751 2.50320312,10.4743045 L2.50320312,11.851923 L13.5172656,11.851923 Z" id="形状" fill="#CCCCCC"></path>
                </g>
            </g>
        </g>
    </g>
</svg>