<?xml version="1.0" encoding="UTF-8"?>
<svg width="16px" height="16px" viewBox="0 0 16 16" version="1.1" xmlns="http://www.w3.org/2000/svg" xmlns:xlink="http://www.w3.org/1999/xlink">
    <title>会员管理</title>
    <g id="结算单" stroke="none" stroke-width="1" fill="none" fill-rule="evenodd">
        <g id="画板备份" transform="translate(-20.000000, -91.000000)" fill-rule="nonzero">
            <g id="会员" transform="translate(20.000000, 91.000000)">
                <rect id="矩形" fill="#000000" opacity="0" x="0.788285351" y="0.00963961551" width="15.0588235" height="15.0588235"></rect>
                <path d="M10.6031967,2.80486346 C10.7134908,2.80486346 10.8458437,2.87676294 10.916432,2.97422667 L10.9193731,2.97901997 L10.9223143,2.98381327 L13.491432,6.46055234 C13.616432,6.63790438 13.5973143,6.90473132 13.4458437,7.08687666 L8.3487849,13.0577287 L8.34731431,13.0593264 L8.34584372,13.0609242 C8.28407901,13.1344214 8.18849078,13.1791589 8.06202019,13.191941 L8.05319666,13.191941 C7.9605496,13.191941 7.85466725,13.1488013 7.77819666,13.0800974 L7.73996137,13.0385555 L2.53996137,7.05971464 C2.40172607,6.89035143 2.3855496,6.63630662 2.50466725,6.47972554 L2.50907901,6.47333447 L2.51349078,6.46694341 L5.08702019,2.98381327 L5.08702019,2.98061773 C5.1737849,2.86398081 5.28113784,2.8032657 5.40613784,2.8032657 L10.6031967,2.8032657 M10.6031967,1.7183825 L5.40760842,1.7183825 C4.98702019,1.7183825 4.58849078,1.9212988 4.30760842,2.3031649 L1.73407901,5.78629504 C1.28996137,6.37107744 1.3355496,7.23546891 1.80466725,7.79628482 L7.0237849,13.7974944 L7.09437313,13.8741871 C7.35172607,14.128232 7.70319666,14.2816175 8.05319666,14.2816175 L8.10025548,14.2816175 C8.47525548,14.2560532 8.82525548,14.1042655 9.08260842,13.7990921 L14.184079,7.82344684 C14.6752555,7.23866444 14.6987849,6.37427297 14.2781967,5.78949057 L11.7046672,2.30636043 C11.4458437,1.94686306 11.0237849,1.7183825 10.6031967,1.7183825 Z M5.19584372,6.61234012 C5.08260842,6.61234012 4.96937313,6.65707758 4.87084372,6.75294354 C4.68407901,6.93029558 4.68407901,7.26103317 4.84731431,7.46554723 L7.37525548,10.363895 L7.42231431,10.4150235 C7.60025548,10.5971688 7.82672607,10.685046 8.05466725,10.685046 C8.30613784,10.685046 8.5605496,10.5763979 8.75613784,10.363895 L11.1899614,7.49111149 C11.3531967,7.28819519 11.3531967,6.95745761 11.166432,6.7785078 C11.0723143,6.6986195 10.9620202,6.66027311 10.8546672,6.66027311 C10.7223143,6.66027311 10.591432,6.71779269 10.4884908,6.82963632 L8.18113784,9.50269904 C8.14584372,9.54264319 8.0987849,9.56341415 8.05172607,9.56341415 C8.00466725,9.56341415 7.95907901,9.54424095 7.9237849,9.5042968 L5.5487849,6.7785078 C5.4487849,6.66985971 5.3237849,6.61234012 5.19584372,6.61234012 Z" id="形状" fill="#CCCCCC"></path>
            </g>
        </g>
    </g>
</svg>