<?xml version="1.0" encoding="UTF-8"?>
<svg width="16px" height="16px" viewBox="0 0 16 16" version="1.1" xmlns="http://www.w3.org/2000/svg" xmlns:xlink="http://www.w3.org/1999/xlink">
    <title>文章管理</title>
    <g id="客户管理" stroke="none" stroke-width="1" fill="none" fill-rule="evenodd">
        <g id="客户列表-渠道商列表" transform="translate(-19.000000, -712.000000)">
            <g id="编组-22" transform="translate(0.000000, 700.000000)">
                <g id="编组-11" transform="translate(19.000000, 12.000000)">
                    <path d="M7.23006969,15 L3.97115385,15 C2.95155123,15 2.125,14.1642649 2.125,13.1333333 L2.125,2.86666667 C2.125,1.83573513 2.95155123,1 3.97115385,1 L11.3557692,1 C12.3753718,1 13.2019231,1.83573513 13.2019231,2.86666667 L13.2019231,8.59988002" id="路径" stroke="#CCCCCC" stroke-linecap="round"></path>
                    <path d="M11.2691577,10.98875 C11.4796059,11.1826501 11.7540709,11.2922908 12.0401929,11.2967561 C12.3340032,11.3029738 12.6184031,11.1930253 12.8316258,10.9907898 C13.015534,11.0641555 13.1863623,11.1667901 13.3374902,11.2947163 C13.2168553,11.8857807 13.5539987,12.4744714 14.1248436,12.6695251 C14.139122,12.7817128 14.1493209,12.8939004 14.1534076,13.0060881 C14.1536976,13.1127204 14.1448259,13.2191808 14.1268833,13.3242931 C13.5596468,13.5137556 13.2269354,14.1008415 13.3558482,14.6848234 C13.2003129,14.8054033 13.0312258,14.9074033 12.8520236,14.98875 C12.6396887,14.793445 12.3633072,14.6824571 12.0748691,14.6766643 C11.7795032,14.6749069 11.494737,14.7866229 11.2793566,14.98875 C11.0896687,14.9156029 10.9137857,14.8107628 10.7592138,14.6787041 C10.8798486,14.0876397 10.5427053,13.498949 9.97186039,13.3038953 C9.95620251,13.2013017 9.94869984,13.0976285 9.94942286,12.9938494 C9.94937519,12.8825699 9.95755954,12.7714393 9.97390017,12.661366 C10.242018,12.5688743 10.4688546,12.3846599 10.6143897,12.1412232 C10.7576631,11.8859637 10.8047025,11.5878065 10.7469751,11.3008357 C10.9082386,11.1767534 11.0834963,11.0720096 11.2691577,10.98875 L11.2691577,10.98875 Z M11.1526662,10.01 C11.1135001,10.0103663 11.0746563,10.0171218 11.0376662,10.03 C10.6835137,10.1747563 10.3531509,10.3719626 10.0576662,10.615 C9.95505644,10.6873595 9.91316077,10.8191776 9.9551662,10.9375 C10.0338369,11.1966526 10.0059446,11.4764758 9.8776662,11.715 C9.74170517,11.9333811 9.52681564,12.0909667 9.2776662,12.155 C9.2626662,12.155 9.2626662,12.155 9.2476662,12.17 C9.16033525,12.217414 9.09291669,12.2945905 9.0576662,12.3875 L9.0576662,12.4025 C9.0184889,12.6009182 8.99922663,12.8027532 9.0001662,13.005 C8.99798569,13.2015115 9.0172666,13.3976737 9.0576662,13.59 C9.06808949,13.7126259 9.15736065,13.8140705 9.2776662,13.84 L9.2926662,13.84 C9.54606546,13.9029707 9.76275757,14.0666945 9.89255664,14.2932529 C10.0223557,14.5198113 10.054002,14.7895509 9.9801662,15.04 C9.93881158,15.1557109 9.97487102,15.2849239 10.0701662,15.3625 C10.3542947,15.6349505 10.6960611,15.8400104 11.0701662,15.9625 C11.0851662,15.9625 11.1001662,15.9775 11.1276662,15.9775 L11.1726662,15.9775 C11.2611443,15.9742861 11.3451167,15.9376598 11.4076662,15.875 C11.5810709,15.6772091 11.8321382,15.5649136 12.0951662,15.5675 C12.359173,15.5778512 12.6078847,15.6940969 12.7851662,15.89 C12.8377373,15.9493079 12.9111772,15.9860279 12.9901662,15.9925 C13.0250054,15.9947112 13.0599216,15.9896016 13.0926662,15.9775 C13.4477862,15.8346882 13.778434,15.6373118 14.0726662,15.3925 C14.1775282,15.3218084 14.2199735,15.1882609 14.1751662,15.07 C14.1006568,14.8094356 14.1321061,14.5299859 14.2626662,14.2925 C14.3992204,14.0736029 14.6150928,13.9159533 14.8651662,13.8525 L14.8776662,13.8525 C14.9669841,13.8056893 15.0356262,13.7272413 15.0701662,13.6325 L15.0701662,13.6175 C15.1093432,13.4199252 15.1286063,13.2189193 15.127699,13.0175 C15.1172297,12.8152516 15.0930068,12.6139508 15.0551662,12.415 C15.0447429,12.2923741 14.9554718,12.1909295 14.8351662,12.165 L14.8201662,12.165 C14.5606016,12.1037679 14.3383351,11.9370562 14.2068898,11.7050103 C14.0754446,11.4729644 14.046732,11.1966118 14.1276662,10.9425 C14.1690208,10.8267891 14.1329614,10.6975761 14.0376662,10.62 C13.7501839,10.3519712 13.409448,10.1475297 13.0376662,10.02 C13.0076106,10.0071898 12.9753355,10.000395 12.9426662,10 C12.8556788,10.0046485 12.7739897,10.0432488 12.7151662,10.1075 C12.5468744,10.3121056 12.2923659,10.4259404 12.0276662,10.415 C11.7636594,10.4046488 11.5149477,10.2884031 11.3376662,10.0925 C11.2844913,10.0339882 11.2092295,10.0004378 11.1301662,10 L11.1526662,10.01 Z" id="形状" fill="#CCCCCC" fill-rule="nonzero"></path>
                    <path d="M12.0376662,12.455 C12.3269602,12.4563809 12.5606199,12.6915324 12.5601602,12.9808293 C12.5596993,13.2701263 12.3252925,13.5045331 12.0359956,13.504994 C11.7466986,13.5054537 11.5115471,13.271794 11.5101662,12.9825 C11.5088045,12.8424132 11.5640245,12.7077031 11.6633205,12.6088777 C11.7626165,12.5100523 11.8975875,12.4554728 12.0376662,12.4575 L12.0376662,12.455 Z M12.0378067,11.9700299 C11.5616835,11.9744998 11.1547483,12.3140641 11.0651055,12.7816937 C10.9754627,13.2493234 11.2279784,13.7153019 11.6686964,13.8955268 C12.1094143,14.0757516 12.6160831,13.92023 12.8797916,13.5237819 C13.1435002,13.1273338 13.0910981,12.5999305 12.7545344,12.2631247 C12.5635091,12.0752022 12.3057661,11.9706879 12.0378067,11.9724928 L12.0378067,11.9700299 Z" id="形状" fill="#CCCCCC" fill-rule="nonzero"></path>
                    <path d="M4.27293362,4.26441593 L10.7344721,4.26441593 M4.27293362,7.06666667 L10.7344721,7.06666667 M4.27293362,9.8689174 L7.23880691,9.8689174" id="形状结合" stroke="#CCCCCC" stroke-linecap="round"></path>
                </g>
            </g>
        </g>
    </g>
</svg>