<?xml version="1.0" encoding="UTF-8"?>
<svg width="16px" height="16px" viewBox="0 0 16 16" version="1.1" xmlns="http://www.w3.org/2000/svg" xmlns:xlink="http://www.w3.org/1999/xlink">
    <title>折线图</title>
    <g id="erp流向管理" stroke="none" stroke-width="1" fill="none" fill-rule="evenodd">
        <g id="药品销售流向" transform="translate(-19.000000, -641.000000)" fill-rule="nonzero">
            <g id="折线图" transform="translate(19.000000, 641.000000)">
                <rect id="矩形" fill="#000000" opacity="0" x="0" y="0" width="16" height="16"></rect>
                <path d="M14,13 L2,13 L2,3.5 C2,3.22385763 1.77614237,3 1.5,3 C1.22385763,3 1,3.22385763 1,3.5 L1,13.5 C1,13.7761424 1.22385763,14 1.5,14 L14,14 C14.2761424,14 14.5,13.7761424 14.5,13.5 C14.5,13.2238576 14.2761424,13 14,13 Z M3.8595,10.0000006 C3.9755,10.0000006 4.092,9.96 4.187,9.878 L6.9955,7.443 L9.723,9.873 C9.9258592,10.0541191 10.2363351,10.0396732 10.4215,9.8405 L14.3345,5.634 C14.4562382,5.50315148 14.4989222,5.31729587 14.4464732,5.1464432 C14.3940241,4.97559052 14.2544104,4.84569735 14.0802232,4.8056932 C13.9060359,4.76568904 13.7237382,4.82165148 13.602,4.9525 L10.0225,8.801 L7.333,6.4035 C7.14513151,6.23653239 6.86262605,6.23460768 6.6725,6.399 L3.532,9.1215 C3.37373621,9.25810702 3.31717397,9.47875917 3.39020329,9.67465614 C3.46323261,9.87055311 3.65043352,10.0003317 3.8595,10.0000006 Z" id="形状" fill="#FFFFFF"></path>
            </g>
        </g>
    </g>
</svg>