<?xml version="1.0" encoding="UTF-8"?>
<svg width="16px" height="17px" viewBox="0 0 16 17" version="1.1" xmlns="http://www.w3.org/2000/svg" xmlns:xlink="http://www.w3.org/1999/xlink">
    <title>编组 2</title>
    <g id="销售助手后台-团队管理-1" stroke="none" stroke-width="1" fill="none" fill-rule="evenodd">
        <g id="icon" transform="translate(-55.000000, -15.000000)" fill="#CCCCCC" fill-rule="nonzero">
            <g id="编组-2" transform="translate(55.500000, 17.500000)">
                <path d="M3.89618405,1.43298954 C3.60392017,1.89556455 3.4007042,2.42001035 3.31061873,2.98224436 C3.1550277,3.20896942 3.06427474,3.48381704 3.06427474,3.77986115 C3.06427474,4.1233663 3.18645878,4.43833384 3.38973709,4.683674 C3.55456271,5.31949212 3.86669515,5.89647987 4.2876872,6.37508679 C4.20090147,6.42583764 4.11546513,6.47864539 4.03144505,6.53344316 C2.56863342,6.72201649 1.39082314,7.81827509 1.08030667,9.23887633 L1.04557076,9.42103762 L1.036,9.485 L1.63755745,9.48561659 C1.51346867,9.80684905 1.41546238,10.1410569 1.34613535,10.4856434 L0.5,10.4858021 C0.223857625,10.4858021 0,10.2619445 0,9.98580208 C0,8.00749348 1.2817766,6.32855984 3.06015105,5.73417991 C2.45648309,5.2956974 2.06427474,4.58358186 2.06427474,3.77986115 C2.06427474,2.65832932 2.82798694,1.71517202 3.86372771,1.4420729 Z M12.9357253,3.77986115 C12.9357253,4.57869234 12.5482745,5.28702955 11.9510437,5.72720202 C13.738562,6.30557481 15,7.95259931 15,9.98580208 C15,10.231262 14.8231248,10.4354105 14.5898756,10.4777464 L14.5,10.4858021 L13.4623836,10.4851236 C13.3962207,10.1394564 13.3023984,9.80545952 13.1832635,9.48530999 L13.966,9.485 L13.9554347,9.40554835 C13.7108581,7.84027204 12.4848182,6.68605567 10.904077,6.52364927 L10.7939002,6.51356719 C10.7083454,6.45855446 10.6212775,6.40562083 10.5327635,6.35482833 C10.8883017,5.94462916 11.1645931,5.46387329 11.3378214,4.93637687 C11.6995094,4.67992564 11.9357253,4.25747898 11.9357253,3.77986115 C11.9357253,3.34679281 11.7415201,2.95908352 11.4354482,2.69907183 C11.3259244,2.22677492 11.1346344,1.78457394 10.8776573,1.38897986 C12.042383,1.56254098 12.9357253,2.56687543 12.9357253,3.77986115 Z" id="形状结合"></path>
                <path d="M7.40101861,0 C5.3891722,0 3.75824845,1.63092375 3.75824845,3.64277016 C3.75824845,5.65461656 5.3891722,7.28554032 7.40101861,7.28554032 C9.41286501,7.28554032 11.0437888,5.65461656 11.0437888,3.64277016 C11.0437888,1.63092375 9.41286501,0 7.40101861,0 Z M7.40101861,1 C8.86058026,1 10.0437888,2.1832085 10.0437888,3.64277016 C10.0437888,5.10233182 8.86058026,6.28554032 7.40101861,6.28554032 C5.94145695,6.28554032 4.75824845,5.10233182 4.75824845,3.64277016 C4.75824845,2.1832085 5.94145695,1 7.40101861,1 Z" id="椭圆形"></path>
                <path d="M7.40101861,6.03416605 C4.26606959,6.03416605 1.72469129,8.57554436 1.72469129,11.7104934 C1.72469129,11.9866357 1.94854891,12.2104934 2.22469129,12.2104934 L12.5773459,12.2104934 C12.8534883,12.2104934 13.0773459,11.9866357 13.0773459,11.7104934 C13.0773459,8.48811308 10.5798992,6.03416605 7.40101861,6.03416605 Z M7.61884147,7.03879027 C9.92718135,7.13713069 11.7415026,8.79405605 12.0355699,11.058411 L12.051,11.21 L2.751,11.21 L2.76738064,11.0759435 C3.07703097,8.79342459 5.03357637,7.03416605 7.40101861,7.03416605 L7.61884147,7.03879027 Z" id="椭圆形"></path>
            </g>
        </g>
    </g>
</svg>