<?xml version="1.0" encoding="UTF-8"?>
<svg width="17px" height="16px" viewBox="0 0 17 16" version="1.1" xmlns="http://www.w3.org/2000/svg" xmlns:xlink="http://www.w3.org/1999/xlink">
    <title>b2b管理</title>
    <g id="结算单" stroke="none" stroke-width="1" fill="none" fill-rule="evenodd">
        <g id="画板备份" transform="translate(-20.000000, -12.000000)" fill-rule="nonzero">
            <g id="组管理" transform="translate(20.000000, 12.000000)">
                <rect id="矩形" fill="#000000" opacity="0" x="0.5" y="0" width="16" height="16"></rect>
                <path d="M14.5,14.5 L2.5,14.5 C1.7,14.5 1,13.8 1,13 L1,3 C1,2.2 1.7,1.5 2.5,1.5 L7.4,1.5 L9.2,3.8 L14.5,3.8 C15.3,3.8 16,4.5 16,5.3 L16,13 C16,13.8 15.3,14.5 14.5,14.5 Z M2.5,2.5 C2.2,2.5 2,2.7 2,3 L2,13 C2,13.3 2.2,13.5 2.5,13.5 L14.5,13.5 C14.8,13.5 15,13.3 15,13 L15,5.3 C15,5 14.8,4.8 14.5,4.8 L8.7,4.8 L6.9,2.5 L2.5,2.5 Z" id="形状" fill="#CCCCCC"></path>
                <path d="M8.05148392,6.06130516 L8.44939497,6.01624049 L8.86448827,6.04387225 C9.01964093,6.05509437 9.08084779,6.10472262 9.08793585,6.23402593 L9.08759941,6.41528575 C9.10289333,6.62515323 9.20456032,6.77663732 9.3916999,6.86509283 C9.59527037,6.96047576 9.81650071,6.92562031 9.9764173,6.77910117 L10.0409688,6.70952485 C10.1731058,6.54238236 10.2449056,6.52352635 10.400085,6.66303708 C10.5996852,6.84182523 10.7907528,7.03221159 10.9746475,7.22845637 C11.0792479,7.34055558 11.0826177,7.42278723 10.9964037,7.51446357 L10.9458854,7.56127081 C10.7461914,7.72691904 10.6801581,7.96528743 10.770617,8.19635059 C10.8596928,8.42167393 11.0766393,8.55100953 11.3322869,8.53068299 C11.5635324,8.51175583 11.6066638,8.53362406 11.6253229,8.77052191 C11.6454587,9.04373239 11.6425755,9.31843713 11.6339492,9.59458867 C11.6302321,9.72665187 11.5664276,9.78287864 11.4378857,9.7852701 L11.3681985,9.78208142 C11.0248815,9.74716816 10.7476917,10.0088041 10.7677572,10.3517937 C10.7758209,10.4867031 10.8252308,10.6001636 10.9130584,10.6922481 L10.9860867,10.7573046 C11.1455558,10.8794061 11.1642383,10.9607834 11.0321014,11.1119398 C10.84966,11.3198065 10.657186,11.5189449 10.4575155,11.7107781 C10.3553261,11.8104151 10.2721153,11.8097326 10.1834673,11.7242046 L10.1385772,11.6744417 C9.96480901,11.4578467 9.72920348,11.3895619 9.49507473,11.4898426 C9.29275542,11.5775883 9.17835856,11.7554766 9.1741205,11.9855002 L9.17911343,12.087163 C9.20065571,12.279091 9.16326731,12.3473521 8.97508293,12.3589741 C8.68638352,12.3764544 8.39482431,12.3749602 8.10467156,12.3691492 C7.99688201,12.367983 7.94102079,12.3082295 7.93453762,12.2016929 L7.93655268,12.1322513 C7.95814184,11.9301956 7.9150104,11.7572421 7.75699459,11.6192257 C7.52145937,11.4142526 7.17523574,11.4476953 6.9827851,11.6977331 C6.84204531,11.8794148 6.77737158,11.8967766 6.60932302,11.7471382 C6.41110588,11.5712436 6.22430452,11.3822804 6.04336341,11.1875299 C5.91263293,11.0465723 5.92986207,10.9622777 6.07925159,10.8401287 C6.26171636,10.6918896 6.33494606,10.4738952 6.27320246,10.260265 C6.21141197,10.0465636 6.03328378,9.89400782 5.80637486,9.8707165 C5.74310759,9.86490553 5.6770274,9.87944482 5.61242399,9.88385641 C5.4903198,9.89251357 5.42426305,9.84462643 5.40272076,9.72105437 C5.34669676,9.40859018 5.34807978,9.09463175 5.38973445,8.78214385 C5.40560401,8.66872319 5.47742724,8.61642446 5.5908817,8.61791871 L5.76080641,8.62231624 C5.78863002,8.62129987 5.81592316,8.61840098 5.84226303,8.61210774 C6.05775619,8.56120838 6.19704263,8.41878031 6.24444034,8.19786855 C6.28382123,8.01221567 6.23667898,7.85329374 6.11750956,7.7228951 L6.0519897,7.66008103 C5.87672131,7.51179455 5.85946843,7.45368484 6.0117415,7.2807551 C6.18841634,7.07869936 6.37946053,6.8868899 6.57479442,6.70229078 C6.673327,6.60637419 6.75491318,6.60652521 6.84228594,6.68724 L6.88655977,6.73423926 C7.06466452,6.9449996 7.29736337,7.01335559 7.52286583,6.91881466 C7.72520565,6.83362168 7.84071779,6.66050145 7.85008678,6.42870632 L7.84754718,6.32585849 C7.83167762,6.13838946 7.87194927,6.08599586 8.05148392,6.06130516 Z M8.48807972,7.41969848 C8.33447501,7.60051578 8.14137029,7.74342183 7.90950689,7.84104494 C7.72477629,7.91849245 7.53639466,7.95738731 7.35100857,7.96098856 L7.25307972,7.95769848 L7.25779071,8.09359497 C7.2570852,8.1451207 7.25380782,8.19712595 7.24789527,8.24950394 L7.22218879,8.40764933 C7.15818725,8.7059484 7.01894998,8.96534548 6.82188898,9.16760457 L6.74907972,9.23369848 L6.79455114,9.27196507 C6.96494561,9.42815796 7.10026505,9.62324888 7.18745143,9.84584277 L7.23388282,9.9826083 C7.27435118,10.1226271 7.29424386,10.2638894 7.29492955,10.4032169 L7.29107972,10.4906985 L7.32574567,10.4875365 C7.65990945,10.4699884 8.00099009,10.5622495 8.29290061,10.7699609 L8.41483119,10.866065 L8.47486842,10.9211179 L8.53707972,10.9846985 L8.61995957,10.8949068 C8.71992661,10.7952864 8.83565699,10.7082482 8.96607749,10.6367799 L9.10135494,10.5706121 C9.29002232,10.4898031 9.48277651,10.4487643 9.67228068,10.4443296 L9.77307972,10.4466985 L9.76946402,10.4101956 C9.74272188,9.95307889 9.91065026,9.54129525 10.1966572,9.24577367 L10.2750797,9.16969848 L10.2420333,9.14179069 C10.1040937,9.01827078 9.98748735,8.86807504 9.899727,8.69496743 L9.83943276,8.56089957 C9.76794849,8.37830402 9.73252467,8.1912791 9.73068355,8.00706466 L9.73307972,7.91169848 L9.63943756,7.91801435 C9.45868652,7.91974322 9.27530831,7.88915618 9.09701127,7.82429118 L8.96436165,7.76918465 C8.82382104,7.70275514 8.69799638,7.61945113 8.58842227,7.52051987 L8.48807972,7.41969848 Z" id="路径" fill="#CCCCCC"></path>
            </g>
        </g>
    </g>
</svg>