<?xml version="1.0" encoding="UTF-8"?>
<svg width="24px" height="24px" viewBox="0 0 24 24" version="1.1" xmlns="http://www.w3.org/2000/svg" xmlns:xlink="http://www.w3.org/1999/xlink">
    <title>编组 28</title>
    <g id="订单审核管理" stroke="none" stroke-width="1" fill="none" fill-rule="evenodd">
        <g id="审核订单详情-启用" transform="translate(-1062.000000, -388.000000)">
            <g id="编组-27" transform="translate(1062.000000, 388.000000)">
                <circle id="椭圆形" fill="#FFFFFF" cx="11.4028183" cy="11.4028183" r="11.4028183"></circle>
                <g id="编组-24" transform="translate(6.335357, 6.335357)">
                    <circle id="椭圆形" stroke="#666666" stroke-width="0.5" cx="4.56071502" cy="4.56071502" r="4.31071502"></circle>
                    <rect id="矩形" fill="#666666" x="2.53373057" y="4.12113966" width="4.0539689" height="1" rx="0.433723459"></rect>
                    <path d="M2.88667174,4.12113966 L6.23475829,4.12113966 C6.42968232,4.12113966 6.58769947,4.27915681 6.58769947,4.47408084 C6.58769947,4.66900487 6.42968232,4.82702202 6.23475829,4.82702202 L2.88667174,4.82702202 C2.69174771,4.82702202 2.53373057,4.66900487 2.53373057,4.47408084 C2.53373057,4.27915681 2.69174771,4.12113966 2.88667174,4.12113966 Z" id="矩形" fill="#666666" transform="translate(4.560715, 4.474081) rotate(-90.000000) translate(-4.560715, -4.474081) "></path>
                </g>
                <path d="M15.0559157,13.2469355 L15.2617569,13.2469355 C15.3985777,13.2469355 15.5099818,13.35692 15.5117364,13.4937296 L15.5466997,16.2199326 C15.5484703,16.3579924 15.437986,16.4713474 15.2999262,16.473118 C15.2988576,16.4731317 15.2977889,16.4731385 15.2967202,16.4731385 L15.090879,16.4731385 C14.9540582,16.4731385 14.8426541,16.363154 14.8408996,16.2263445 L14.8059362,13.5001415 C14.8041656,13.3620817 14.9146499,13.2487267 15.0527097,13.2469561 C15.0537783,13.2469424 15.054847,13.2469355 15.0559157,13.2469355 Z" id="矩形" fill="#666666" transform="translate(15.176318, 14.860037) rotate(-45.000000) translate(-15.176318, -14.860037) "></path>
            </g>
        </g>
    </g>
</svg>