<?xml version="1.0" encoding="UTF-8"?>
<svg width="16px" height="16px" viewBox="0 0 16 16" version="1.1" xmlns="http://www.w3.org/2000/svg" xmlns:xlink="http://www.w3.org/1999/xlink">
    <title>编组 8</title>
    <g id="页面-1" stroke="none" stroke-width="1" fill="none" fill-rule="evenodd">
        <g id="画板" transform="translate(-42.000000, -14.000000)" stroke="#CCCCCC">
            <g id="编组-8" transform="translate(42.000000, 14.000000)">
                <path d="M15,8.32150003 L15,3.66748556 C15,3.30776751 14.6991114,3.00971386 14.3105878,2.98274581 C11.9697273,2.82034306 10.197425,1.86527433 9.25644376,1.22868794 C8.80568378,0.923770686 8.19432702,0.923770686 7.74356705,1.22868794 C6.80258583,1.86527433 5.03028355,2.82034306 2.68942299,2.98274581 C2.30089939,3.00971386 2,3.30776751 2,3.66748556 L2,8.32150003 C2,8.32150003 1.93983473,12.7676606 8.12494781,14.7875618 C8.36774579,14.8667905 8.63226502,14.8667905 8.875063,14.7875618 C15.0601761,12.7676606 15,8.32150003 15,8.32150003" id="Fill-1"></path>
                <text id="保" stroke-width="1.5" font-family="STYuanti-SC-Regular, Yuanti SC" font-size="6" font-weight="normal" fill="#CCCCCC">
                    <tspan x="5" y="10">保</tspan>
                </text>
            </g>
        </g>
    </g>
</svg>