<?xml version="1.0" encoding="UTF-8"?>
<svg width="16px" height="16px" viewBox="0 0 16 16" version="1.1" xmlns="http://www.w3.org/2000/svg" xmlns:xlink="http://www.w3.org/1999/xlink">
    <title>编组 11</title>
    <g id="页面-1" stroke="none" stroke-width="1" fill="none" fill-rule="evenodd" stroke-linecap="round">
        <g id="画板" transform="translate(-200.000000, -14.000000)" stroke="#CCCCCC">
            <g id="编组-11备份" transform="translate(200.000000, 14.000000)">
                <path d="M7.10506969,15 L3.84615385,15 C2.82655123,15 2,14.1642649 2,13.1333333 L2,2.86666667 C2,1.83573513 2.82655123,1 3.84615385,1 L11.2307692,1 C12.2503718,1 13.0769231,1.83573513 13.0769231,2.86666667 L13.0769231,7.55998456" id="路径"></path>
                <path d="M9.61844644,10 L11.4668743,11.576669 M11.4668743,11.576669 L13.3153023,10 M11.4668743,11.576669 L11.4668743,14.9291073 M9,11.576669 L13.9337487,11.576669 M9,13.2792576 L13.9337487,13.2792576" id="形状结合"></path>
                <path d="M4.14793362,4.26441593 L10.6094721,4.26441593 M4.14793362,7.06666667 L10.6094721,7.06666667 M4.14793362,9.8689174 L7.11380691,9.8689174" id="形状结合"></path>
            </g>
        </g>
    </g>
</svg>