<?xml version="1.0" encoding="UTF-8"?>
<svg width="16px" height="16px" viewBox="0 0 16 16" version="1.1" xmlns="http://www.w3.org/2000/svg" xmlns:xlink="http://www.w3.org/1999/xlink">
    <title>矩形</title>
    <g id="页面-1" stroke="none" stroke-width="1" fill="none" fill-rule="evenodd">
        <g id="画板" transform="translate(-265.000000, -14.000000)" fill-rule="nonzero">
            <g id="统计图" transform="translate(265.000000, 14.000000)">
                <path d="M7.42857813,1.14285937 C3.32534375,1.14285937 0,4.46875 0,8.57140625 C0,12.6740625 3.32534375,16 7.42857813,16 C11.53125,16 14.8571406,12.6741094 14.8571406,8.57142187 L7.42859375,8.57142187 L7.42859375,1.14285937 L7.42857813,1.14285937 Z M13.6104688,9.71428125 C13.0714063,12.6367187 10.5044375,14.8571406 7.4285625,14.8571406 C3.96257813,14.8571406 1.14284375,12.0374062 1.14284375,8.57142187 C1.14284375,5.49554687 3.36326563,2.92857812 6.28570313,2.38979687 L6.28570313,9.71428125 L13.6104688,9.71428125 Z" id="形状" fill="#CCCCCC"></path>
                <path d="M8.57142187,0 L8.57142187,7.42857812 L16,7.42857812 C16,3.32589062 12.6741094,0 8.57142187,0 Z M9.71428125,1.2469375 C12.2661719,1.71734375 14.282375,3.73407812 14.7533437,6.28571875 L9.71428125,6.28571875 L9.71428125,1.2469375 Z" id="形状" fill="#CCCCCC"></path>
                <rect id="矩形" fill="#000000" opacity="0" x="0" y="0" width="16" height="16"></rect>
            </g>
        </g>
    </g>
</svg>