<?xml version="1.0" encoding="UTF-8"?>
<svg width="16px" height="16px" viewBox="0 0 16 16" version="1.1" xmlns="http://www.w3.org/2000/svg" xmlns:xlink="http://www.w3.org/1999/xlink">
    <title>编组 11</title>
    <g id="页面-1" stroke="none" stroke-width="1" fill="none" fill-rule="evenodd">
        <g id="画板" transform="translate(-128.000000, -14.000000)" stroke="#CCCCCC">
            <g id="编组-11" transform="translate(128.000000, 14.000000)">
                <path d="M7.10506969,15 L3.84615385,15 C2.82655123,15 2,14.1642649 2,13.1333333 L2,2.86666667 C2,1.83573513 2.82655123,1 3.84615385,1 L11.2307692,1 C12.2503718,1 13.0769231,1.83573513 13.0769231,2.86666667 L13.0769231,7.55998456" id="路径" stroke-linecap="round"></path>
                <path d="M4.14793362,4.26441593 L10.6094721,4.26441593 M4.14793362,7.06666667 L10.6094721,7.06666667 M4.14793362,9.8689174 L7.11380691,9.8689174" id="形状结合" stroke-linecap="round"></path>
                <path d="M12.2395512,9.52688162 C12.258822,9.65468286 12.298125,9.76882596 12.3531996,9.87002247 C12.4523889,10.0522769 12.6044737,10.1997047 12.8200888,10.3016166 C13.0454679,10.407218 13.2819433,10.4268026 13.5003671,10.3744672 C13.6386009,10.3413457 13.7708597,10.2790738 13.8886764,10.1875565 C13.9504143,10.2466375 14.011279,10.3067657 14.0713228,10.36773 C13.9947516,10.4728802 13.9405689,10.586987 13.907957,10.7051551 C13.8501685,10.9145504 13.8585398,11.1401141 13.9461643,11.3639297 C14.0332037,11.5841017 14.1839554,11.7560506 14.3738585,11.8690899 C14.4937515,11.9404559 14.630358,11.9886966 14.7782653,12.0076398 C14.7809599,12.0966937 14.7815777,12.1859094 14.7808411,12.2752781 C14.5657967,12.3087119 14.375405,12.4064953 14.2277794,12.5465658 C14.0176486,12.7459427 13.8898234,13.0345288 13.9091795,13.3653856 C13.9227358,13.5921892 13.9968758,13.7877265 14.129024,13.9514017 C14.0713515,14.0133175 14.0127755,14.0744137 13.953389,14.1347375 C13.847385,14.0551494 13.7338513,13.9997302 13.617521,13.966359 C13.4015621,13.9044077 13.1699556,13.9149566 12.9366614,14.0148855 C12.7096406,14.1133442 12.542336,14.2724494 12.4368343,14.4718989 C12.376944,14.5851208 12.3365057,14.7133583 12.3212365,14.8544464 C12.2385682,14.8563574 12.1557774,14.8570379 12.0729777,14.8568778 C12.0412419,14.6155327 11.9318736,14.4058341 11.7257613,14.2258092 C11.4971148,14.026831 11.2141793,13.9467451 10.9430601,13.9742375 C10.7516285,13.9936493 10.5644559,14.0668092 10.4055247,14.1941012 C10.3444916,14.1355302 10.2845136,14.0757864 10.225375,14.0151499 C10.2951015,13.9224631 10.3475027,13.8217593 10.3825749,13.7169023 C10.4474366,13.5229822 10.4541636,13.3131029 10.3940584,13.1051416 C10.3343815,12.89875 10.2171427,12.7229147 10.0611422,12.5927386 C9.90706165,12.4641647 9.71444719,12.3793109 9.49263792,12.3565718 L9.506,12.358 L9.50003358,12.2242263 L9.50003358,12.2242263 L9.504,12.097 L9.59773165,12.0824774 C9.76491208,12.0429895 9.90636903,11.9722105 10.0230669,11.8766727 L10.105963,11.800479 C10.234521,11.6680655 10.3285419,11.4976729 10.374089,11.2853801 C10.4178364,11.0791424 10.4017932,10.890753 10.3407017,10.7200378 C10.3038883,10.6171658 10.2500017,10.5196009 10.1781021,10.428957 C10.2375379,10.3656866 10.2982469,10.3034642 10.3598344,10.2421642 C10.4645597,10.3186643 10.5756379,10.3723356 10.6886129,10.4051067 C10.9042729,10.4676639 11.1321805,10.4578257 11.3574206,10.3633941 C11.5846659,10.2677149 11.7525903,10.1124535 11.8605446,9.91529978 C12.0912714,9.54060891 12.1744654,9.53180303 12.2395512,9.52688162 Z" id="路径"></path>
            </g>
        </g>
    </g>
</svg>