<?xml version="1.0" encoding="UTF-8"?>
<svg width="16px" height="16px" viewBox="0 0 16 16" version="1.1" xmlns="http://www.w3.org/2000/svg" xmlns:xlink="http://www.w3.org/1999/xlink">
    <title>编组 38</title>
    <g id="销售订单" stroke="none" stroke-width="1" fill="none" fill-rule="evenodd">
        <g id="编组-22备份" transform="translate(-18.000000, -12.000000)" fill="#C7C7C7" fill-rule="nonzero">
            <g id="编组-38" transform="translate(18.000000, 12.000000)">
                <path d="M10,1 C10.5522847,1 11,1.44771525 11,2 L11,6 L14,6 C14.5522847,6 15,6.44771525 15,7 L15,14 C15,14.5522847 14.5522847,15 14,15 L2,15 C1.44771525,15 1,14.5522847 1,14 L1,2 C1,1.44771525 1.44771525,1 2,1 L10,1 Z M11,7 L11,14 L14,14 L14,7 L11,7 Z M10,2 L2,2 L2,14 L4,14 L4,11 C4,10.4477153 4.44771525,10 5,10 L7,10 C7.55228475,10 8,10.4477153 8,11 L8,14 L10,14 L10,2 Z M7,11 L5,11 L5,14 L7,14 L7,11 Z M6.5,4 L6.5,5.5 L8,5.5 L8,6.5 L6.5,6.5 L6.5,8 L5.5,8 L5.5,6.5 L4,6.5 L4,5.5 L5.5,5.5 L5.5,4 L6.5,4 Z" id="形状结合"></path>
            </g>
        </g>
    </g>
</svg>