<?xml version="1.0" encoding="UTF-8"?>
<svg width="16px" height="16px" viewBox="0 0 16 16" version="1.1" xmlns="http://www.w3.org/2000/svg" xmlns:xlink="http://www.w3.org/1999/xlink">
    <title>编组 11备份 2</title>
    <g id="页面-1" stroke="none" stroke-width="1" fill="none" fill-rule="evenodd">
        <g id="画板" transform="translate(-43.000000, -202.000000)" stroke="#CCCCCC">
            <g id="编组-11备份-2" transform="translate(43.000000, 202.000000)">
                <path d="M3.41880342,13.3333333 C2.51248998,13.3333333 1.77777778,12.5904577 1.77777778,11.6740741 L1.77777778,2.54814815 C1.77777778,1.63176456 2.51248998,0.888888889 3.41880342,0.888888889 L9.98290598,0.888888889 C10.8892194,0.888888889 11.6239316,1.63176456 11.6239316,2.54814815 L11.6239316,4.38413448" id="路径" stroke-linecap="round"></path>
                <path d="M14.7597614,12.5475646 C14.5655371,12.5475646 14.4084118,12.7017628 14.4084118,12.8912982 L14.4084118,13.7554512 C14.4084118,14.1334511 14.0952523,14.4407769 13.710077,14.4407769 L6.73436744,14.4407769 C6.34919218,14.4407769 6.03603268,14.1334511 6.03603268,13.7554512 L6.03603268,7.59073204 C6.03603268,7.21273207 6.34919218,6.90540631 6.73436744,6.90540631 L9.16217188,6.90540631 L10.0645513,8.43989345 C10.1365671,8.5619671 10.2740518,8.62407474 10.408263,8.60908324 L13.7089859,8.60908324 C14.0941611,8.60908324 14.4073206,8.916409 14.4073206,9.29440897 L14.4073206,10.1510661 C14.4073206,10.3406015 14.5644459,10.4947998 14.7586703,10.4947998 C14.9528946,10.4947998 15.11002,10.3406015 15.11002,10.1510661 C15.11002,10.1424996 15.11002,10.133933 15.1089288,10.1253664 L15.1089288,9.29547979 C15.1089288,8.70438635 14.7281181,8.20110027 14.1934556,8.00835241 L14.1934556,7.99764419 C14.1934556,7.26734396 13.584595,6.66982559 12.840432,6.66982559 L9.82995449,6.66982559 L9.66846458,6.39462448 C9.58771962,6.25648851 9.47205793,6.2211514 9.37058116,6.22329304 L9.36949001,6.22222222 L6.73000285,6.22222222 C5.95856117,6.22222222 5.33333333,6.83580292 5.33333333,7.59287368 L5.33333333,13.7404597 C5.33333333,14.4975304 5.95856117,15.1111111 6.73000285,15.1111111 L13.7133504,15.1111111 C14.4847921,15.1111111 15.11002,14.4975304 15.11002,13.7404597 L15.11002,12.916998 C15.1111111,12.9084314 15.1111111,12.8998648 15.1111111,12.8912982 C15.1111111,12.7017628 14.9539858,12.5475646 14.7597614,12.5475646 Z M12.7858746,7.35300968 C13.1306774,7.35300968 13.4187405,7.60144025 13.474389,7.92482833 L10.5686617,7.92482833 L10.2325881,7.35300968 L12.7858746,7.35300968 L12.7858746,7.35300968 Z" id="形状" stroke-width="0.2" fill="#CCCCCC" fill-rule="nonzero"></path>
                <path d="M3.68705211,3.87577712 L9.43064185,3.87577712" id="形状结合" stroke-linecap="round"></path>
            </g>
        </g>
    </g>
</svg>