<?xml version="1.0" encoding="UTF-8"?>
<svg width="16px" height="16px" viewBox="0 0 16 16" version="1.1" xmlns="http://www.w3.org/2000/svg" xmlns:xlink="http://www.w3.org/1999/xlink">
    <title>抽奖1</title>
    <g id="页面-1" stroke="none" stroke-width="1" fill="none" fill-rule="evenodd">
        <g id="画板" transform="translate(-135.000000, -239.000000)" fill-rule="nonzero">
            <g id="抽奖1" transform="translate(135.000000, 239.000000)">
                <rect id="矩形" fill="#000000" opacity="0" x="0" y="0" width="16" height="16"></rect>
                <path d="M7.99987777,1.00000947 C9.85659684,0.998194624 11.6375314,1.73619784 12.9487419,3.05078373 C14.2639211,4.36194701 15.002596,6.14301816 15.0014185,8.00012456 C15.003665,9.85690527 14.2654943,11.6379514 12.9504103,12.9487503 C11.6393678,14.2636451 9.85836532,15.001848 8.00154623,14.9999959 C6.14462361,15.0020169 4.36348471,14.263793 3.05244376,12.9487503 C2.4130983,12.3113464 1.90361005,11.5558564 1.55226792,10.7242284 C1.18669017,9.86262549 0.998850906,8.93607611 1.00000529,8.00012456 C0.998043394,6.14319031 1.73615616,4.36202683 3.05101365,3.05078373 C3.68876797,2.41169197 4.4442667,1.90217145 5.27577393,1.55036955 C6.13757503,1.18564675 7.06407788,0.998465446 7.99987777,1.00000947 Z M8.39959097,1.97749302 L8.39959097,4.47611761 C8.39959097,4.69659151 8.22035165,4.87606916 7.99987777,4.87606916 C7.7794039,4.87606916 7.60016458,4.69659151 7.60016456,4.47611761 L7.60016456,1.97796972 C6.27836164,2.06676029 5.02246514,2.58787986 4.02610411,3.46098434 L5.79061025,5.22549048 C5.8659289,5.30057078 5.90764018,5.4009162 5.90764018,5.50817376 C5.90764018,5.61543133 5.86616726,5.71553839 5.79061025,5.79109539 C5.6387812,5.94292443 5.37826448,5.94268607 5.2266738,5.79109539 L3.46049921,4.02658925 C2.58824307,5.02357126 2.06725152,6.27924295 1.97748458,7.60088806 L4.47634753,7.60088806 C4.69682142,7.60088806 4.87606072,7.78012738 4.87606074,8.00060125 C4.87606074,8.22083679 4.69682142,8.40007611 4.47634753,8.40007611 L1.97748458,8.40007611 C2.06764928,9.72186639 2.58924862,10.9775065 3.46216766,11.9741366 L5.2252437,10.2093921 C5.37635769,10.0589931 5.63997296,10.0592315 5.7908486,10.2091537 C5.94669275,10.3656693 5.94669275,10.6187198 5.7908486,10.7752353 L4.02634245,12.5397415 C5.02307801,13.4120579 6.27864912,13.9329934 7.60016456,14.0225177 L7.60016456,11.5236548 C7.60042694,11.3029694 7.77919262,11.1240972 7.99987777,11.1237033 C8.22056293,11.1240972 8.39932859,11.3029694 8.39959097,11.5236548 L8.39959097,14.022041 C9.72114723,13.9326907 10.9767719,13.4117329 11.9734131,12.5392648 L10.2091453,10.7747586 C10.0533287,10.6183247 10.0533287,10.3653493 10.2091453,10.2089154 C10.3602593,10.0585164 10.6238745,10.0589931 10.7745118,10.208677 L12.5392563,11.9753283 C13.4114493,10.9784006 13.9324355,9.72282569 14.022271,8.40126786 L11.5231697,8.40126786 C11.3025771,8.40100588 11.1237432,8.22238507 11.1232181,8.00179301 C11.1233494,7.78092169 11.3022985,7.60186602 11.5231697,7.60160312 L14.0206025,7.60160312 C13.931589,6.27987934 13.410401,5.0241034 12.5373495,4.027781 L10.7728434,5.79228714 C10.6210144,5.94459288 10.360736,5.94459288 10.2091453,5.79228714 C10.1339861,5.71746405 10.0919241,5.6156567 10.0923537,5.50960386 C10.0923537,5.40258464 10.1338266,5.30223923 10.2091453,5.22668224 L11.9734131,3.46050765 C10.9766621,2.58818071 9.72111455,2.06717117 8.39959097,1.97749302 Z M8.00655158,5.40878174 L9.08818455,7.14039558 C9.36848432,7.41926526 9.54247993,7.80467744 9.54247993,8.2298941 C9.54247993,9.07627547 8.85340965,9.76606081 8.00655158,9.76606081 C7.15869437,9.76474833 6.47169735,9.07775131 6.47038487,8.2298941 C6.47038487,7.82056936 6.63415699,7.42825973 6.92515695,7.14039558 L6.92515695,7.14039558 L8.00655158,5.40878174 Z M8.00631322,7.35014371 C7.5207514,7.35080048 7.12732638,7.74433212 7.12680118,8.2298941 C7.12732638,8.71545608 7.5207514,9.10898772 8.00631322,9.1096445 C8.49187505,9.10898773 8.88530008,8.71545609 8.88582527,8.2298941 C8.88530008,7.74433211 8.49187505,7.35080047 8.00631322,7.35014371 Z" id="形状结合" fill="#CCCCCC"></path>
            </g>
        </g>
    </g>
</svg>