<?xml version="1.0" encoding="UTF-8"?>
<svg width="16px" height="16px" viewBox="0 0 16 16" version="1.1" xmlns="http://www.w3.org/2000/svg" xmlns:xlink="http://www.w3.org/1999/xlink">
    <title>会议</title>
    <g id="页面-1" stroke="none" stroke-width="1" fill="none" fill-rule="evenodd">
        <g id="画板" transform="translate(-133.000000, -202.000000)" fill-rule="nonzero">
            <g id="会议" transform="translate(133.000000, 202.000000)">
                <rect id="矩形" fill="#000000" opacity="0" x="0" y="0" width="16" height="16"></rect>
                <path d="M14.5,1 L1.5,1 C1.225,1 1,1.225 1,1.5 C1,1.775 1.225,2 1.5,2 L2,2 L2,11 C2,11.55 2.45,12 3,12 L6.125,12 L4.825,14.25 C4.675,14.475 4.775,14.8 5,14.925 C5.25,15.05 5.55,14.975 5.675,14.75 L7.275,12 L8.975,12 L10.575,14.75 C10.725,14.975 11.025,15.075 11.25,14.925 C11.5,14.8 11.575,14.475 11.425,14.25 L10.125,12 L13,12 C13.55,12 14,11.55 14,11 L14,2 L14.5,2 C14.775,2 15,1.775 15,1.5 C15,1.225 14.775,1 14.5,1 Z M13,10.5 C13,10.775 12.775,11 12.5,11 L3.5,11 C3.225,11 3,10.775 3,10.5 L3,2 L13,2 L13,10.5 Z M5.175,8.35 L6.75,6.75 L8.35,8.35 C8.45,8.45 8.575,8.5 8.7,8.5 C8.825,8.5 8.95,8.45 9.05,8.35 L11.525,5.875 C11.725,5.675 11.725,5.35 11.525,5.175 C11.325,4.975 11,4.975 10.825,5.175 L8.7,7.3 L7.1,5.7 C7,5.6 6.875,5.55 6.75,5.55 C6.625,5.55 6.5,5.6 6.4,5.7 L4.45,7.65 C4.25,7.85 4.25,8.175 4.45,8.35 C4.65,8.55 4.975,8.55 5.175,8.35 Z" id="形状" fill="#CCCCCC"></path>
            </g>
        </g>
    </g>
</svg>