<?xml version="1.0" encoding="UTF-8"?>
<svg width="24px" height="24px" viewBox="0 0 24 24" version="1.1" xmlns="http://www.w3.org/2000/svg" xmlns:xlink="http://www.w3.org/1999/xlink">
    <title>编组 28</title>
    <defs>
        <filter color-interpolation-filters="auto" id="filter-1">
            <feColorMatrix in="SourceGraphic" type="matrix" values="0 0 0 0 0.976471 0 0 0 0 0.274510 0 0 0 0 0.274510 0 0 0 1.000000 0"></feColorMatrix>
        </filter>
    </defs>
    <g id="发票管理" stroke="none" stroke-width="1" fill="none" fill-rule="evenodd">
        <g id="编组-36备份" transform="translate(-725.000000, -5.000000)">
            <g id="编组-17" transform="translate(725.000000, 5.000000)">
                <circle id="椭圆形" fill="#FEECEC" cx="12" cy="12" r="12"></circle>
                <g filter="url(#filter-1)" id="采购管理-采购需求">
                    <g transform="translate(4.000000, 4.000000)">
                        <rect id="矩形" fill="#000000" fill-rule="nonzero" opacity="0" x="0" y="0" width="16" height="16"></rect>
                        <path d="M13.628125,9.2046875 C12.128125,8.103125 10.0203125,8.4265625 8.91875,9.9265625 C7.8734375,11.35 8.1046875,13.3375 9.4484375,14.484375 L2.878125,14.484375 C2.2828125,14.484375 1.8,14.0015625 1.8,13.40625 L1.8,2.625 C1.8,2.0296875 2.2828125,1.546875 2.878125,1.546875 L8.596875,1.546875 L8.596875,6.03125 C8.596875,6.3296875 8.8375,6.5703125 9.1359375,6.5703125 L13.6296875,6.5703125 L13.628125,9.2046875 Z M13.628125,5.7625 L9.4046875,5.7625 L9.4046875,1.546875 L9.4203125,1.546875 L13.628125,5.7546875 L13.628125,5.7625 Z M3.2828125,4.78125 C3.059375,4.78125 2.878125,4.9625 2.878125,5.1859375 C2.878125,5.409375 3.059375,5.590625 3.2828125,5.590625 L6.7875,5.590625 C7.0109375,5.590625 7.1921875,5.409375 7.1921875,5.1859375 C7.1921875,4.9625 7.009375,4.78125 6.7859375,4.78125 L3.2828125,4.78125 Z M3.2828125,6.3984375 C3.059375,6.3984375 2.878125,6.5796875 2.878125,6.803125 C2.878125,7.0265625 3.059375,7.2078125 3.2828125,7.2078125 L6.7875,7.2078125 C7.0109375,7.2078125 7.1921875,7.0265625 7.1921875,6.803125 C7.1921875,6.5796875 7.0109375,6.3984375 6.7875,6.3984375 L3.2828125,6.3984375 Z" id="形状" fill="#000000" fill-rule="nonzero"></path>
                        <path d="M11.6375,9.36405456 C13.0515625,9.36405456 14.1984375,10.5093718 14.1984375,11.9234343 C14.1984375,13.3374968 13.053125,14.4843718 11.6390625,14.4843718 C10.2234375,14.4843718 9.078125,13.3374968 9.078125,11.9234343 C9.078125,10.5093718 10.2234375,9.36249683 11.6375,9.36405456 Z M11.978125,12.4148358 L11.178125,12.4148358 L11.178125,12.9275311 L11.978125,12.9275311 L11.978125,12.4148358 Z M12.078125,10.3640546 L11.078125,10.3640546 L11.078125,10.8035077 L11.178125,12.2683514 L11.978125,12.2683514 L12.078125,10.8035077 L12.078125,10.3640546 Z" id="形状结合" fill="#000000" fill-rule="nonzero"></path>
                    </g>
                </g>
            </g>
        </g>
    </g>
</svg>