<?xml version="1.0" encoding="UTF-8"?>
<svg width="16px" height="16px" viewBox="0 0 16 16" version="1.1" xmlns="http://www.w3.org/2000/svg" xmlns:xlink="http://www.w3.org/1999/xlink">
    <title>编组 37</title>
    <g id="流向" stroke="none" stroke-width="1" fill="none" fill-rule="evenodd">
        <g id="流向接口备份" transform="translate(-20.000000, -595.000000)" fill="#CCCCCC" fill-rule="nonzero">
            <g id="编组-37" transform="translate(20.000000, 595.000000)">
                <g id="编组-36备份-3" transform="translate(0.000000, 1.000000)">
                    <path d="M5.85714286,0 C8.69910838,0 11.1113577,1.84979594 11.617203,4.35088699 C14.0932765,4.70277712 16,6.41827354 16,8.53571429 C16,9.72921715 15.3864099,10.8297175 14.3498088,11.616748 L14.2191429,11.7107143 L14.3873731,12.833257 C14.4431694,13.2068756 14.0850357,13.4938496 13.7435678,13.3846719 L13.6652594,13.3523039 L12.2051429,12.6057143 L12.0668171,12.6402895 C11.7302782,12.7124008 11.3841652,12.7581466 11.0322631,12.7765125 L10.6785714,12.7857143 C8.78753392,12.7857143 7.11076943,11.9983341 6.16594685,10.7958812 L6.04888435,10.6395008 L5.85714286,10.6428571 C5.19210176,10.6428571 4.54185329,10.5420318 3.9271032,10.3472873 L3.837,10.316 L2.05492073,11.2355807 C1.70526909,11.4158928 1.30659902,11.1416825 1.32586511,10.7690265 L1.33656071,10.6877946 L1.682,9.052 L1.52906131,8.90793403 C0.617711724,8.00110459 0.0712410698,6.83011654 0.00649219731,5.57378072 L0,5.32142857 C0,2.37005216 2.63339129,0 5.85714286,0 Z M5.42060264,9.19572473 C5.41084817,9.14788006 5.40256749,9.09952148 5.39530308,9.0508906 L5.38508665,8.97496599 C5.37720908,8.91499425 5.37114087,8.85460127 5.36664897,8.7938326 C5.36636028,8.78855335 5.36599599,8.78352099 5.36564267,8.77848704 L5.3640368,8.75564002 C5.35945973,8.68284702 5.35714286,8.60952486 5.35714286,8.53571429 C5.35714286,6.22139575 7.63492115,4.38724126 10.4433452,4.28978829 L10.574,4.287 L10.5148135,4.09285593 C9.93798553,2.36221916 8.17953818,1.09037814 6.08328552,1.0046169 L5.85714286,1 C3.16355782,1 1,2.94720204 1,5.32142857 C1,6.53512267 1.5659883,7.67093528 2.55043477,8.4858276 C2.69362175,8.60435306 2.75924029,8.79252636 2.72080195,8.97438699 L2.532,9.864 L3.56916314,9.32956124 C3.66955987,9.27778757 3.78372496,9.26190466 3.89306733,9.28300485 L3.97387937,9.3057814 C4.39569738,9.46394965 4.84112879,9.56814068 5.30025416,9.61476671 L5.53393827,9.63223139 L5.48031739,9.45448249 L5.473,9.424 L5.49121732,9.49043221 L5.47,9.409 L5.45,9.329 L5.464,9.389 L5.45270024,9.34376565 L5.444,9.305 L5.442,9.297 L5.442,9.296 L5.437,9.278 L5.439,9.283 L5.42060264,9.19572473 Z M8.80357143,6.92857143 C9.24737167,6.92857143 9.60714286,7.28834261 9.60714286,7.73214286 C9.60714286,8.1759431 9.24737167,8.53571429 8.80357143,8.53571429 C8.35977118,8.53571429 8,8.1759431 8,7.73214286 C8,7.28834261 8.35977118,6.92857143 8.80357143,6.92857143 Z M12.5535714,6.92857143 C12.9973717,6.92857143 13.3571429,7.28834261 13.3571429,7.73214286 C13.3571429,8.1759431 12.9973717,8.53571429 12.5535714,8.53571429 C12.1097712,8.53571429 11.75,8.1759431 11.75,7.73214286 C11.75,7.28834261 12.1097712,6.92857143 12.5535714,6.92857143 Z M3.98214286,2.64285714 C4.4259431,2.64285714 4.78571429,3.00262833 4.78571429,3.44642857 C4.78571429,3.89022882 4.4259431,4.25 3.98214286,4.25 C3.53834261,4.25 3.17857143,3.89022882 3.17857143,3.44642857 C3.17857143,3.00262833 3.53834261,2.64285714 3.98214286,2.64285714 Z M7.73214286,2.64285714 C8.1759431,2.64285714 8.53571429,3.00262833 8.53571429,3.44642857 C8.53571429,3.89022882 8.1759431,4.25 7.73214286,4.25 C7.28834261,4.25 6.92857143,3.89022882 6.92857143,3.44642857 C6.92857143,3.00262833 7.28834261,2.64285714 7.73214286,2.64285714 Z M6.612,9.632 L6.607,9.62 L6.62741347,9.66240046 L6.66225323,9.73228409 L6.678,9.76 L6.66949593,9.74388671 C7.30587908,10.928589 8.84833645,11.7857143 10.6785714,11.7857143 C11.1824499,11.7857143 11.6739465,11.7204303 12.1378669,11.5944021 C12.2579054,11.5617926 12.3857887,11.5750976 12.4965436,11.6317189 L13.2541429,12.0187143 L13.1839633,11.5454602 C13.1586665,11.3760696 13.2218944,11.2077104 13.3474696,11.0968408 L13.4153316,11.0464581 C14.4187969,10.425362 15,9.50856102 15,8.53571429 C15,6.88771327 13.3310263,5.48166151 11.1454383,5.30451228 L10.9865172,5.29385846 C10.8848656,5.28846103 10.7821796,5.28571429 10.6785714,5.28571429 C8.26831798,5.28571429 6.35714286,6.77218383 6.35714286,8.53571429 L6.36332929,8.71033849 L6.38181107,8.88345628 L6.381,8.884 L6.383,8.897 L6.385,8.907 L6.38942606,8.93136166 L6.395,8.968 L6.396,8.974 L6.412,9.05 L6.41523077,9.06512922 L6.417,9.075 L6.43561386,9.15262513 L6.447,9.195 L6.436,9.152 L6.47803412,9.29622918 C6.49356621,9.34432242 6.51053563,9.39203068 6.52890772,9.43932427 L6.58819739,9.57993137 L6.604,9.614 L6.603,9.613 L6.612,9.632 Z" id="形状结合"></path>
                </g>
            </g>
        </g>
    </g>
</svg>