<?xml version="1.0" encoding="UTF-8"?>
<svg width="24px" height="24px" viewBox="0 0 24 24" version="1.1" xmlns="http://www.w3.org/2000/svg" xmlns:xlink="http://www.w3.org/1999/xlink">
    <title>编组 29</title>
    <defs>
        <filter color-interpolation-filters="auto" id="filter-1">
            <feColorMatrix in="SourceGraphic" type="matrix" values="0 0 0 0 0.976471 0 0 0 0 0.274510 0 0 0 0 0.274510 0 0 0 1.000000 0"></feColorMatrix>
        </filter>
    </defs>
    <g id="发票管理" stroke="none" stroke-width="1" fill="none" fill-rule="evenodd">
        <g id="编组-36备份" transform="translate(-286.000000, -5.000000)">
            <g id="编组-29" transform="translate(286.000000, 5.000000)">
                <circle id="椭圆形" fill="#FEECEC" cx="12" cy="12" r="12"></circle>
                <g filter="url(#filter-1)" id="云上传">
                    <g transform="translate(4.000000, 4.000000)">
                        <rect id="矩形" fill="#000000" fill-rule="nonzero" opacity="0" x="0" y="0" width="16" height="16"></rect>
                        <path d="M8.496,0.96 C9.25333333,0.96 9.968,1.104 10.64,1.392 C11.312,1.68 11.8986667,2.072 12.4,2.568 C12.9013333,3.064 13.296,3.648 13.584,4.32 C13.872,4.992 14.016,5.70666667 14.016,6.464 C14.016,6.85866667 13.9733333,7.24533333 13.888,7.624 C13.8026667,8.00266667 13.6853333,8.36266667 13.536,8.704 C13.5893333,8.69333333 13.6453333,8.68533333 13.704,8.68 C13.7626667,8.67466667 13.8186667,8.672 13.872,8.672 C14.16,8.672 14.4346667,8.728 14.696,8.84 C14.9573333,8.952 15.184,9.10666667 15.376,9.304 C15.568,9.50133333 15.72,9.73066667 15.832,9.992 C15.9216,10.2010667 15.97536,10.42208 15.99328,10.65504 L16,10.832 C16,11.0986667 15.9546667,11.3493333 15.864,11.584 C15.7733333,11.8186667 15.6453333,12.0293333 15.48,12.216 C15.3146667,12.4026667 15.1226667,12.56 14.904,12.688 C14.6853333,12.816 14.448,12.9013333 14.192,12.944 L14.208,12.96 L3.248,12.96 C3.19466667,12.9706667 3.10933333,12.976 2.992,12.976 C2.576,12.976 2.18666667,12.896 1.824,12.736 C1.46133333,12.576 1.144,12.36 0.872,12.088 C0.6,11.816 0.386666667,11.4986667 0.232,11.136 C0.0773333333,10.7733333 0,10.384 0,9.968 C0,9.552 0.0773333333,9.16266667 0.232,8.8 C0.386666667,8.43733333 0.6,8.12 0.872,7.848 C1.144,7.576 1.46133333,7.36 1.824,7.2 C2.18666667,7.04 2.576,6.96 2.992,6.96 L3.008,6.96 C2.99733333,6.87466667 2.992,6.79466667 2.992,6.72 L2.992,6.464 C2.992,5.70666667 3.136,4.992 3.424,4.32 C3.712,3.648 4.10666667,3.064 4.608,2.568 C5.10933333,2.072 5.69333333,1.68 6.36,1.392 C7.02666667,1.104 7.73866667,0.96 8.496,0.96 Z M8.62332012,5.45240571 C8.52446108,5.45700381 8.42215346,5.52597524 8.31639727,5.65932 C8.20144489,5.80645905 8.06924965,5.97658857 7.91981155,6.16970857 C7.77037346,6.36282857 7.61748679,6.55824762 7.46115155,6.75596571 C7.30481631,6.95368381 7.15307917,7.14680381 7.00594012,7.33532571 C6.85880108,7.52384762 6.73005441,7.68708 6.61970012,7.82502286 C6.51394393,7.96296571 6.48290679,8.07561905 6.5265887,8.16298286 C6.5702706,8.25034667 6.67257822,8.29402857 6.83351155,8.29402857 C6.93007155,8.28943048 7.04157536,8.28943048 7.16802298,8.29402857 C7.2944706,8.29862667 7.40367536,8.30092571 7.49563727,8.30092571 C7.61978584,8.29632762 7.69910298,8.34460762 7.7335887,8.44576571 C7.76807441,8.54692381 7.78531727,8.68716571 7.78531727,8.86649143 C7.78531727,8.99064 7.78761631,9.15847048 7.79221441,9.36998286 C7.79681251,9.58149524 7.80026108,9.79875524 7.80256012,10.0217629 C7.80485917,10.2447705 7.80715822,10.4551333 7.80945727,10.6528514 C7.81060679,10.7517105 7.81146893,10.83735 7.8120437,10.90977 L7.81290584,11.0873714 C7.81290584,11.2896876 7.84739155,11.4368267 7.91636298,11.5287886 C7.98533441,11.6207505 8.11867917,11.6667314 8.31639727,11.6667314 C8.45893822,11.6621333 8.58653536,11.6586848 8.6991887,11.6563857 C8.81184203,11.6540867 8.93024298,11.6529371 9.05439155,11.6529371 C9.15554965,11.6529371 9.23716584,11.6345448 9.29924012,11.59776 C9.36131441,11.5609752 9.40959441,11.5161438 9.44408012,11.4632657 C9.47856584,11.4103876 9.50040679,11.3517619 9.50960298,11.2873886 C9.51879917,11.2230152 9.52339727,11.160941 9.52339727,11.1011657 C9.52339727,10.9632229 9.52109822,10.7838971 9.51650012,10.5631886 C9.51190203,10.34248 9.50845346,10.1148743 9.50615441,9.88037143 C9.50385536,9.64586857 9.50155631,9.4205619 9.49925727,9.20445143 C9.49695822,8.98834095 9.4958087,8.81361333 9.4958087,8.68026857 C9.4912106,8.5607181 9.50385536,8.46645714 9.53374298,8.39748571 C9.5636306,8.32851429 9.6360506,8.29172952 9.75100298,8.28713143 C9.80618012,8.28713143 9.86710489,8.2859819 9.93377727,8.28368286 C10.0004496,8.28138381 10.0682716,8.27908476 10.137243,8.27678571 C10.2062144,8.27448667 10.2717373,8.27218762 10.3338116,8.26988857 C10.3958858,8.26758952 10.4522125,8.26644 10.5027916,8.26644 C10.668323,8.26644 10.7660325,8.21471143 10.7959201,8.11125429 C10.8258077,8.00779714 10.7740792,7.8756019 10.6407344,7.71466857 C10.5211839,7.57212762 10.3855401,7.40774571 10.233803,7.22152286 C10.0820658,7.0353 9.92802965,6.8467781 9.77169441,6.65595714 C9.61535917,6.46513619 9.46477155,6.28006286 9.31993155,6.10073714 C9.17509155,5.92141143 9.04749441,5.76507619 8.93714012,5.63173143 C8.82678584,5.50758286 8.72217917,5.44780762 8.62332012,5.45240571 Z" id="形状结合" fill="#000000" fill-rule="nonzero"></path>
                    </g>
                </g>
            </g>
        </g>
    </g>
</svg>