<?xml version="1.0" encoding="UTF-8"?>
<svg width="16px" height="16px" viewBox="0 0 16 16" version="1.1" xmlns="http://www.w3.org/2000/svg" xmlns:xlink="http://www.w3.org/1999/xlink">
    <title>疑问</title>
    <g id="页面-1" stroke="none" stroke-width="1" fill="none" fill-rule="evenodd">
        <g id="画板" transform="translate(-213.000000, -202.000000)" fill-rule="nonzero">
            <g id="疑问" transform="translate(213.000000, 202.000000)">
                <rect id="矩形" fill="#000000" opacity="0" x="0" y="0" width="16" height="16"></rect>
                <path d="M7.25,12.2555 C7.25,12.6697187 7.58578125,13.0055 8,13.0055 C8.41421875,13.0055 8.75,12.6697187 8.75,12.2555 C8.75,11.8412812 8.41421875,11.5055 8,11.5055 C7.58578125,11.5055 7.25,11.8412812 7.25,12.2555 Z M8,15 C4.14,15 1,11.86 1,8 C1,4.14 4.14,1 8,1 C11.86,1 15,4.14 15,8 C15,11.86 11.86,15 8,15 Z M8,2.00448437 C4.694,2.00448437 2.00448437,4.694 2.00448437,8 C2.00448437,11.3055 4.694,13.9955156 8,13.9955156 C11.3055,13.9955156 13.9955156,11.3055156 13.9955156,8 C13.9955156,4.694 11.3055,2.00448437 8,2.00448437 Z M8,10.5264844 C7.72398437,10.5264844 7.5,10.3024844 7.5,10.0265 L7.5,9.181 C7.5,8.36298438 8.12498438,7.738 8.67698437,7.1865 C9.08146875,6.7815 9.49998438,6.3635 9.49998438,6.03 C9.49998438,5.1965 8.82698438,4.5185 8,4.5185 C7.15901563,4.5185 6.5,5.1675 6.5,5.996 C6.5,6.272 6.27601563,6.49598438 6,6.49598438 C5.72398437,6.49598438 5.5,6.27198438 5.5,5.99598438 C5.5,4.63 6.62146875,3.5185 8,3.5185 C9.37853125,3.5185 10.5,4.645 10.5,6.03 C10.5,6.7785 9.9325,7.34548437 9.384,7.894 C8.949,8.328 8.50001562,8.777 8.50001562,9.18048437 L8.50001562,10.0259844 C8.50001562,10.302 8.27601562,10.5264844 8,10.5264844 Z" id="形状" fill="#CCCCCC"></path>
            </g>
        </g>
    </g>
</svg>