<?xml version="1.0" encoding="UTF-8"?>
<svg width="24px" height="24px" viewBox="0 0 24 24" version="1.1" xmlns="http://www.w3.org/2000/svg" xmlns:xlink="http://www.w3.org/1999/xlink">
    <title>编组 28</title>
    <defs>
        <filter color-interpolation-filters="auto" id="filter-1">
            <feColorMatrix in="SourceGraphic" type="matrix" values="0 0 0 0 1.000000 0 0 0 0 0.588235 0 0 0 0 0.160784 0 0 0 1.000000 0"></feColorMatrix>
        </filter>
    </defs>
    <g id="发票管理" stroke="none" stroke-width="1" fill="none" fill-rule="evenodd">
        <g id="编组-36备份" transform="translate(-511.000000, -5.000000)">
            <g id="编组-17" transform="translate(511.000000, 5.000000)">
                <circle id="椭圆形" fill="#FFF4E9" cx="12" cy="12" r="12"></circle>
                <g filter="url(#filter-1)" id="采购管理-采购需求">
                    <g transform="translate(4.000000, 4.000000)">
                        <rect id="矩形" fill="#000000" fill-rule="nonzero" opacity="0" x="0" y="0" width="16" height="16"></rect>
                        <path d="M8.596875,1.546875 L8.596875,6.03125 C8.596875,6.3296875 8.8375,6.5703125 9.1359375,6.5703125 L13.6296875,6.5703125 L13.628125,9.2046875 C12.128125,8.103125 10.0203125,8.4265625 8.91875,9.9265625 C7.8734375,11.35 8.1046875,13.3375 9.4484375,14.484375 L2.878125,14.484375 C2.2828125,14.484375 1.8,14.0015625 1.8,13.40625 L1.8,2.625 C1.8,2.0296875 2.2828125,1.546875 2.878125,1.546875 L8.596875,1.546875 Z M11.6375,9.36406091 C13.0515625,9.36406091 14.1984375,10.509375 14.1984375,11.9234375 C14.1984375,13.3375 13.053125,14.484375 11.6390625,14.484375 L11.6375,14.484375 C10.2234375,14.484375 9.078125,13.3375 9.078125,11.9234375 C9.078125,10.509375 10.2234375,9.3625 11.6375,9.36406091 Z M11.8578321,12.8746569 L11.0578321,12.8746569 L11.0578321,13.3326549 L11.8578321,13.3326549 L11.8578321,12.8746569 Z M11.9578321,11.0426649 L10.9578321,11.0426649 L10.9578321,11.4352346 L11.0578321,12.7438003 L11.8578321,12.7438003 L11.9578321,11.4352346 L11.9578321,11.0426649 Z M3.88665572,5.46987535 L3.25194366,5.46987535 C3.17233505,5.46987535 3.10779951,5.53441088 3.10779951,5.61401949 L3.10779951,5.61401949 L3.10779951,7.32622894 C3.10779951,7.40583755 3.17233504,7.47037308 3.25194366,7.47037308 L3.25194366,7.47037308 L3.88665572,7.47037308 C3.96626433,7.47037308 4.03079986,7.40583755 4.03079986,7.32622894 L4.03079986,7.32622894 L4.03079986,5.61401949 C4.03079986,5.53441088 3.96626433,5.46987535 3.88665572,5.46987535 L3.88665572,5.46987535 Z M6.34805634,5.93137552 L5.71334428,5.93137552 C5.67511488,5.93137552 5.63845125,5.94656209 5.61141898,5.97359436 C5.58438671,6.00062664 5.56920014,6.03729026 5.56920014,6.07551967 L5.56920014,6.07551967 L5.56920014,7.32563166 C5.56920014,7.36386106 5.58438671,7.40052469 5.61141898,7.42755696 C5.63845125,7.45458923 5.67511488,7.4697758 5.71334428,7.4697758 L5.71334428,7.4697758 L6.34805634,7.4697758 C6.38628575,7.4697758 6.42294937,7.45458923 6.44998164,7.42755696 C6.47701392,7.40052469 6.49220049,7.36386106 6.49220049,7.32563166 L6.49220049,7.32563166 L6.49220049,6.07551967 C6.49220049,5.99591105 6.42766496,5.93137552 6.34805634,5.93137552 L6.34805634,5.93137552 Z M5.11825195,4.546875 L4.48274352,4.546875 C4.44451411,4.546875 4.40785049,4.56206157 4.38081822,4.58909384 C4.35378594,4.61612611 4.33859937,4.65278974 4.33859937,4.69101914 L4.33859937,4.69101914 L4.33859937,7.32563166 C4.33859937,7.36386106 4.35378594,7.40052469 4.38081822,7.42755696 C4.40785049,7.45458923 4.44451411,7.4697758 4.48274352,7.4697758 L4.48274352,7.4697758 L5.11825195,7.4697758 C5.19786057,7.4697758 5.2623961,7.40524027 5.2623961,7.32563166 L5.2623961,7.32563166 L5.2623961,4.69101914 C5.2623961,4.65278974 5.24720953,4.61612611 5.22017726,4.58909384 C5.19314499,4.56206157 5.15648136,4.546875 5.11825195,4.546875 L5.11825195,4.546875 Z M9.4203125,1.546875 L13.628125,5.7546875 L13.628125,5.7625 L9.4046875,5.7625 L9.4046875,1.546875 L9.4203125,1.546875 Z" id="形状结合" fill="#000000" fill-rule="nonzero"></path>
                    </g>
                </g>
            </g>
        </g>
    </g>
</svg>