<?xml version="1.0" encoding="UTF-8"?>
<svg width="16px" height="16px" viewBox="0 0 16 16" version="1.1" xmlns="http://www.w3.org/2000/svg" xmlns:xlink="http://www.w3.org/1999/xlink">
    <title>统计报表</title>
    <g id="数据统计" stroke="none" stroke-width="1" fill="none" fill-rule="evenodd">
        <g transform="translate(-20.000000, -77.000000)" fill-rule="nonzero" id="统计报表">
            <g transform="translate(20.000000, 77.000000)">
                <rect id="矩形" fill="#000000" opacity="0" x="0" y="0" width="16" height="16"></rect>
                <path d="M14.5,1 C14.7761424,1 15,1.22385763 15,1.5 L15,14.5 C15,14.7761424 14.7761424,15 14.5,15 L1.5,15 C1.22385763,15 1,14.7761424 1,14.5 L1,1.5 C1,1.22385763 1.22385763,1 1.5,1 L14.5,1 Z M14,12 L2,12 L2,14 L14,14 L14,12 Z M14,2 L2,2 L2,11 L14,11 L14,2 Z M11.854,4.146 C12.0246095,4.31698193 12.0485978,4.5854823 11.911,4.784 L11.854,4.854 L8.854,7.854 C8.68301807,8.02460951 8.4145177,8.04859779 8.216,7.911 L8.146,7.854 L6.5,6.207 L4.854,7.854 C4.68301807,8.02460951 4.4145177,8.04859779 4.216,7.911 L4.146,7.854 C3.97539049,7.68301807 3.95140221,7.4145177 4.089,7.216 L4.146,7.146 L6.146,5.146 C6.31698193,4.97539049 6.5854823,4.95140221 6.784,5.089 L6.854,5.146 L8.5,6.793 L11.146,4.146 C11.2398043,4.0519583 11.3671727,3.99910622 11.5,3.99910622 C11.6328273,3.99910622 11.7601957,4.0519583 11.854,4.146 L11.854,4.146 Z" id="形状" fill="#CCCCCC"></path>
            </g>
        </g>
    </g>
</svg>