<?xml version="1.0" encoding="UTF-8"?>
<svg width="18px" height="18px" viewBox="0 0 18 18" version="1.1" xmlns="http://www.w3.org/2000/svg" xmlns:xlink="http://www.w3.org/1999/xlink">
    <title>店铺管理</title>
    <g id="结算单" stroke="none" stroke-width="1" fill="none" fill-rule="evenodd">
        <g id="画板" transform="translate(-20.000000, -90.000000)">
            <g id="右侧边栏备份" fill="#333333">
                <rect id="矩形" x="0" y="0" width="182" height="1063"></rect>
            </g>
            <g id="编组" transform="translate(0.000000, 80.000000)">
                <g id="编组-31备份" fill="#333333">
                    <rect id="矩形备份-3" x="0" y="0" width="182" height="40"></rect>
                </g>
                <g id="3.1店铺" transform="translate(20.000000, 10.000000)" fill-rule="nonzero">
                    <rect id="矩形" fill="#000000" opacity="0" x="0" y="0" width="18" height="18"></rect>
                    <path d="M15.9999664,7.06236521 C16.0014547,6.75981319 15.9534898,6.45622136 15.8656463,6.17978607 C15.8646418,6.17193545 15.863135,6.1646394 15.8616115,6.15834851 C15.8555511,6.12805519 15.8474816,6.09878435 15.8358629,6.07057065 L14.6526291,3.02156797 C14.4476776,2.38929006 13.859091,2.00155972 13.1705566,2 L4.8652017,2 C4.1675766,2 3.62543132,2.38407365 3.42906836,2.99125732 L2.15698657,6.10245837 C2.15092609,6.12074181 2.14436336,6.14791569 2.13882187,6.17560947 C2.04644137,6.46927106 2,6.77078326 2,7.07333527 C2.00077012,7.87548458 2.32162408,8.6249325 2.86775388,9.15955429 L2.87126963,13.7305195 C2.87126963,14.467299 3.45128454,15.0666667 4.16454637,15.0666667 L13.6637493,15.0603931 C14.3760066,15.058816 14.9555193,14.4579059 14.9555193,13.7205892 L14.954565,9.31226872 C15.6091807,8.77192796 16.0003497,7.94728395 15.9999664,7.06236521 Z M13.6622258,14.0152906 L4.16454635,14.0215642 C4.00806203,14.0215642 3.88085886,13.8909285 3.88085886,13.7299822 L3.87782863,9.78543736 C4.15210729,9.87508689 4.4531224,9.9206482 4.77839617,9.9206482 C5.60675691,9.91804865 6.37404409,9.54128838 6.89700341,8.89646334 C7.41745149,9.53605464 8.17867816,9.91019803 9.00553216,9.91541444 C9.82582343,9.90862097 10.5850244,9.53290052 11.1029445,8.89384647 C11.6259038,9.53867151 12.3942122,9.91385473 13.2266077,9.91385473 C13.4811647,9.91253763 13.7212401,9.88376935 13.9450929,9.8281565 L13.94593,13.7210918 C13.94593,13.8830953 13.8182079,14.0147707 13.6622258,14.0152906 Z M14.0711241,8.67075378 C13.8424498,8.80034962 13.5572388,8.86670725 13.2255864,8.86878689 C12.6107489,8.86878689 12.0504389,8.54585446 11.7233235,7.99771506 C11.7001028,7.94596685 11.6612287,7.86028595 11.5885364,7.7777245 C11.5052466,7.6810562 11.3538183,7.56662436 11.1044512,7.56662436 C10.9035513,7.56662436 10.7213182,7.65178536 10.6183403,7.78243833 C10.550185,7.86186299 10.5128343,7.94076775 10.4860811,7.99823497 C10.1630173,8.53959823 9.60722752,8.86565011 9.00501316,8.87036394 C8.39521483,8.86670725 7.83793509,8.5416952 7.51284548,7.99615533 C7.49012703,7.94808114 7.4522574,7.8670794 7.39320955,7.79862481 C7.15594671,7.50548314 6.62491789,7.52062979 6.41795745,7.77616476 C6.34173266,7.8623829 6.30185402,7.94912095 6.27610535,8.00818254 C5.95001123,8.54952848 5.38918227,8.87403795 4.77737493,8.87611759 C4.45128081,8.87611759 4.17213032,8.8128794 3.94698844,8.68851731 L3.9464862,8.68851731 C3.9464862,8.68851731 3.9464862,8.68851731 3.94598395,8.68851731 C3.36849702,8.37029872 3.00958925,7.75160774 3.00908701,7.07439242 C3.00908701,6.87426235 3.04139842,6.67255523 3.1060045,6.47608186 C3.11054149,6.46197501 3.11457624,6.44629111 3.11812547,6.43008729 L4.37102131,3.36382364 C4.39676999,3.28543878 4.47450154,3.04664486 4.86419722,3.04664486 L13.1720801,3.04664486 C13.3320969,3.05657511 13.6077317,3.08582862 13.7056537,3.38420404 L14.8787922,6.40814715 C14.883346,6.43008729 14.8888875,6.4509876 14.8939434,6.46823124 C14.9590685,6.66522453 14.9913653,6.86535459 14.9913653,7.06394225 C14.9923677,7.73330699 14.6395204,8.34886118 14.0711241,8.67075378 Z" id="形状" fill="#CCCCCC"></path>
                </g>
            </g>
        </g>
    </g>
</svg>