<?xml version="1.0" encoding="UTF-8"?>
<svg width="16px" height="16px" viewBox="0 0 16 16" version="1.1" xmlns="http://www.w3.org/2000/svg" xmlns:xlink="http://www.w3.org/1999/xlink">
    <title>任务</title>
    <g id="优惠券" stroke="none" stroke-width="1" fill="none" fill-rule="evenodd">
        <g id="画板" transform="translate(-256.000000, -105.000000)" fill="#FFFFFF" fill-rule="nonzero">
            <g id="任务" transform="translate(255.999065, 104.999065)">
                <path d="M13.714,-3.24861285e-14 L2.28599999,-3.24861285e-14 C1.02348387,-3.24861285e-14 0,1.02348387 0,2.28599999 L0,13.714 C0,14.9765161 1.02348387,16 2.28599999,16 L13.714,16 C14.9765161,16 16,14.9765161 16,13.714 L16,2.28599999 C16,1.02348387 14.9765161,-3.24861285e-14 13.714,-3.24861285e-14 Z M14.8580655,13.7170968 C14.8583052,14.0200424 14.7379611,14.3106268 14.5236009,14.5246964 C14.3092407,14.7387661 14.0184934,14.8587161 13.7155484,14.8580672 L2.28864515,14.8580672 C1.98303225,14.8580672 1.6944516,14.7406452 1.47832259,14.5245161 C1.26219358,14.3083871 1.14193548,14.0227097 1.14193548,13.7170968 L1.14193548,2.28709678 C1.14307381,1.65450929 1.6560567,1.14221906 2.28864515,1.14193548 L13.7155484,1.14193548 C14.0189265,1.14224328 14.309752,1.26307714 14.5240247,1.47784587 C14.7382973,1.6926146 14.8584583,1.98371876 14.8580655,2.28709678 L14.8580655,13.7170968 Z" id="形状"></path>
                <path d="M13.0027097,5.14193548 L8.43070968,5.14193548 C8.11537291,5.14193548 7.85974194,5.39756645 7.85974194,5.71290322 C7.85974194,6.02824 8.11537291,6.28387097 8.43070968,6.28387097 L13.0027097,6.28387097 C13.3180465,6.28387097 13.5736774,6.02824 13.5736774,5.71290322 C13.5736774,5.39756645 13.3180465,5.14193548 13.0027097,5.14193548 L13.0027097,5.14193548 Z M13.0027097,9.71612903 L8.43070968,9.71612903 C8.11537291,9.71612903 7.85974194,9.97176 7.85974194,10.2870968 C7.85974194,10.6024336 8.11537291,10.8580645 8.43070968,10.8580645 L13.0027097,10.8580645 C13.3180465,10.8580645 13.5736774,10.6024336 13.5736774,10.2870968 C13.5736774,9.97176 13.3180465,9.71612903 13.0027097,9.71612903 Z M5.00174194,8.28780646 C3.89703226,8.28780646 3.00174194,9.18335485 3.00174194,10.2878065 C3.00174194,11.392258 3.89729033,12.2878065 5.00174194,12.2878065 C6.10619356,12.2878065 7.00174194,11.3922581 7.00174194,10.2878065 C7.00174194,9.18335483 6.10645161,8.28780646 5.00174194,8.28780646 Z M5.60864517,10.8949677 C5.31906319,11.1842716 4.86545222,11.228747 4.52519403,11.0011975 C4.18493584,10.7736479 4.05278418,10.3374405 4.20954939,9.95931476 C4.36631461,9.58118899 4.76834135,9.36644385 5.16979145,9.44639534 C5.57124156,9.52634684 5.86032079,9.87873039 5.86026079,10.2880645 C5.86083352,10.5158748 5.77022797,10.7344432 5.60864517,10.8950323 L5.60864517,10.8949677 Z M6.31251613,4.16935485 L4.43019355,6.0516129 L3.69096775,5.31232259 C3.46798723,5.08934208 3.10646439,5.08934207 2.88348388,5.31232258 C2.66050336,5.53530309 2.66050336,5.89682594 2.88348387,6.11980645 L4.02645161,7.26283872 C4.13352938,7.36992009 4.27876017,7.43007808 4.43019355,7.43007808 C4.58162693,7.43007808 4.72685772,7.36992009 4.83393549,7.26283872 L7.11993548,4.97683871 C7.34033319,4.75343791 7.3391244,4.39403889 7.11722893,4.17212569 C6.89533346,3.95021249 6.53593453,3.94897499 6.31251613,4.16935485 L6.31251613,4.16935485 Z" id="形状"></path>
            </g>
        </g>
    </g>
</svg>