<?xml version="1.0" encoding="UTF-8"?>
<svg width="24px" height="24px" viewBox="0 0 24 24" version="1.1" xmlns="http://www.w3.org/2000/svg" xmlns:xlink="http://www.w3.org/1999/xlink">
    <title>编组 28</title>
    <g id="采购订单" stroke="none" stroke-width="1" fill="none" fill-rule="evenodd">
        <g transform="translate(-472.000000, -130.000000)" id="编组-35">
            <g transform="translate(472.000000, 130.000000)" id="编组-28">
                <g id="编组-27备份" fill="#E7F1FF">
                    <circle id="椭圆形" cx="12" cy="12" r="12"></circle>
                </g>
                <g id="订单" transform="translate(4.000000, 4.000000)" fill-rule="nonzero">
                    <rect id="矩形" fill="#000000" opacity="0" x="0" y="0" width="16" height="16"></rect>
                    <path d="M12.2010313,12.9012031 L12.2010313,3.39754688 C12.1916875,3.18282813 12.1543438,2.82807813 11.9302969,2.60401562 C11.7715938,2.4453125 11.5382031,2.370625 11.230125,2.370625 C10.5952969,2.370625 10.2778906,2.84673437 10.2778906,3.78964062 L10.2778906,5.53539063 C10.2778906,5.750125 10.1005156,5.93682812 9.87645312,5.93682812 L2.50132813,5.93682812 L2.50132813,12.4624219 C2.50132813,13.5546875 3.20148438,14.4415781 4.29376562,14.4415781 L4.48048437,14.4415781 L12.7518281,14.4322344 C12.4064063,14.0868125 12.2010313,13.5546875 12.2010313,12.9012031 Z M9.95114063,11.2767969 L4.76054688,11.2767969 C4.49914062,11.2767969 4.28442188,11.0620781 4.28442188,10.8006875 C4.28442188,10.5392969 4.49914063,10.3245625 4.76054688,10.3245625 L9.95114063,10.3245625 C10.2125469,10.3245625 10.4272656,10.5392813 10.4272656,10.8006875 C10.4272656,11.0620938 10.2125469,11.2767969 9.95114063,11.2767969 Z M9.95114063,8.73751563 L4.76054688,8.73751563 C4.49914062,8.73751563 4.28442188,8.52279688 4.28442188,8.26139063 C4.28442188,7.99998438 4.49914063,7.78528125 4.76054688,7.78528125 L9.95114063,7.78528125 C10.2125469,7.78528125 10.4272656,8 10.4272656,8.26139063 C10.4272656,8.52278125 10.2125469,8.73751563 9.95114063,8.73751563 Z M13.0038906,12.9012031 C13.0038906,13.2559531 13.0972656,14.0961562 13.9374688,14.0961562 C14.2828906,14.0961562 14.4976094,13.956125 14.637625,13.77875 C14.731,13.629375 14.8056719,13.4613281 14.8430156,13.2839531 L14.8430156,13.2652812 C14.8430156,13.2466094 14.8523594,13.2186094 14.8523594,13.1999375 C14.8616875,13.1065781 14.8710313,13.0225625 14.8710313,12.9665469 L14.8710313,10.6046406 C14.8710313,10.4552656 14.759,10.3339062 14.6002969,10.3339062 L13.0038906,10.3339062 L13.0038906,12.9012031 L13.0038906,12.9012031 Z M1.39971875,5.14329687 L9.484375,5.14329687 L9.484375,3.79896875 C9.484375,2.49198437 10.0631875,1.67979687 11.0527656,1.59576563 C10.9594063,1.57709375 10.8567188,1.56776563 10.7633594,1.56776563 L2.57601562,1.56776563 C1.7825,1.56776563 1.129,2.16523437 1.129,2.90276562 L1.129,4.93792187 C1.129,5.03128125 1.24103125,5.14329687 1.39973437,5.14329687 L1.39971875,5.14329687 Z" id="形状" fill="#137AFF"></path>
                </g>
            </g>
        </g>
    </g>
</svg>