<?xml version="1.0" encoding="UTF-8"?>
<svg width="24px" height="24px" viewBox="0 0 24 24" version="1.1" xmlns="http://www.w3.org/2000/svg" xmlns:xlink="http://www.w3.org/1999/xlink">
    <title>编组 17</title>
    <g id="订单管理" stroke="none" stroke-width="1" fill="none" fill-rule="evenodd">
        <g transform="translate(-1250.000000, -145.000000)" id="编组-35备份-3">
            <g transform="translate(1250.000000, 145.000000)" id="编组-38">
                <g id="编组-17" fill="#FFF4E9">
                    <circle id="椭圆形" cx="12" cy="12" r="12"></circle>
                </g>
                <g id="彩友多_支付-钱包支付" transform="translate(4.000000, 4.000000)" fill-rule="nonzero">
                    <rect id="矩形" fill="#000000" opacity="0" x="0" y="0" width="16" height="16"></rect>
                    <path d="M5.67309127,0.946992648 C6.42619275,0.940555893 7.06986923,-0.359670624 7.64274131,0.0973396896 C8.44090014,0.741016163 8.42158984,1.41043972 8.93009429,1.33963532 C9.61239135,1.24308385 9.020209,0.0973397197 10.7645723,0.0973396896 C12.5153723,0.0973396896 13.1139914,0.811820586 12.8887047,2.22147208 C12.6831823,3.01544181 12.2827269,3.74555388 11.7236502,4.34560448 C11.4983635,4.6159486 11.1572149,4.7639942 10.8096296,4.7639942 L5.59585009,4.7639942 C5.23539125,4.7639942 4.90067949,4.60307509 4.66895596,4.33273097 C4.08964712,3.65043391 3.55537075,2.826528 3.55537075,2.22147208 C3.5489589,0.715269114 4.79125451,0.953429402 5.67309127,0.946992648 L5.67309127,0.946992648 Z M10.989859,5.61364716 C11.4082488,5.61364716 11.813765,5.79387657 12.0905458,6.10284128 C13.7061738,7.93731926 14.9999818,10.4734046 14.9999818,12.4173076 C15.0064003,14.1166135 13.3135311,16.2214356 11.2344561,16.2214356 L4.77194421,16.2214356 C2.68643241,16.2214356 1,14.0973032 1,12.4173076 C1,10.5120252 2.61562798,7.89869867 4.35999124,6.06422069 C4.63677212,5.77456627 5.02297801,5.61364716 5.42849423,5.61364716 L10.989859,5.61364716 Z M6.80323174,7.91432116 L6.25273082,7.91432116 C6.20647025,7.91432116 6.16020965,7.92820198 6.11857513,7.94670623 C5.98441944,8.02072315 5.93353281,8.18726124 6.00754973,8.32604299 L7.16406427,10.4262733 C7.18719457,10.4679079 7.20107274,10.5141684 7.20107272,10.560429 C7.20107272,10.713089 7.07616915,10.8379925 6.92350924,10.8379925 L6.60431123,10.8379925 C6.45165131,10.8379925 6.32674774,10.9628961 6.32674774,11.115556 C6.32674774,11.2682159 6.45165131,11.3931195 6.60431123,11.3931195 L7.42774958,11.3931195 C7.58966162,11.3931195 7.71919124,11.5272752 7.71456517,11.6845612 L7.71456517,11.8187168 C7.71456517,11.9713768 7.5896616,12.0962803 7.43700168,12.0962803 L6.6089373,12.0962803 C6.45627738,12.0962803 6.33137381,12.2211839 6.33137381,12.3738438 C6.33137381,12.5265037 6.45627738,12.6514073 6.6089373,12.6514073 L7.44162776,12.6514073 C7.59428767,12.6514073 7.71919124,12.7763109 7.71919124,12.9289708 L7.71919124,13.6367577 C7.71919124,13.7894176 7.84409481,13.9143212 7.99675473,13.9143212 L8.50099505,13.9143212 C8.65365497,13.9143212 8.77855853,13.7894176 8.77855853,13.6367577 L8.77855853,12.9289708 C8.77855853,12.7763109 8.9034621,12.6514073 9.05612202,12.6514073 L9.89343853,12.6514073 C10.0460984,12.6514073 10.171002,12.5265037 10.171002,12.3738438 C10.171002,12.2211839 10.0460984,12.0962803 9.89343853,12.0962803 L9.05612202,12.0962803 C8.9034621,12.0962803 8.77855853,11.9713768 8.77855853,11.8187168 L8.77855853,11.6799351 C8.77855853,11.5180231 8.90808815,11.3884934 9.07000019,11.3884934 L9.8980646,11.3884934 C10.0507245,11.3884934 10.1756281,11.2635899 10.1756281,11.11093 C10.1756281,10.95827 10.0507245,10.8333665 9.8980646,10.8333665 L9.56961447,10.8333665 C9.52335389,10.8333665 9.4770933,10.8194883 9.43545878,10.8009841 C9.30023126,10.7267454 9.25057373,10.5570822 9.32443338,10.4216473 L10.4809479,8.32141693 C10.5040782,8.27978241 10.5133303,8.23352184 10.5133303,8.18726124 C10.5063848,8.03408972 10.3798422,7.9136702 10.2265147,7.91432116 L9.67601381,7.91432116 C9.57185226,7.91425717 9.47673441,7.97348149 9.43083272,8.06698373 L8.48711688,9.94978937 C8.45936053,10.000676 8.417726,10.0469366 8.36683936,10.0700669 C8.22805762,10.1394578 8.06151952,10.0839451 7.99212865,9.94978937 L7.0484128,8.06698373 C7.00168242,7.9742347 6.90708303,7.91533319 6.80323174,7.91432116 Z" id="形状" fill="#FF9629"></path>
                </g>
            </g>
        </g>
    </g>
</svg>