<?xml version="1.0" encoding="UTF-8"?>
<svg width="24px" height="24px" viewBox="0 0 24 24" version="1.1" xmlns="http://www.w3.org/2000/svg" xmlns:xlink="http://www.w3.org/1999/xlink">
    <title>编组 28</title>
    <g id="订单管理" stroke="none" stroke-width="1" fill="none" fill-rule="evenodd">
        <g transform="translate(-830.000000, -145.000000)" id="编组-35备份-2">
            <g transform="translate(830.000000, 145.000000)" id="编组-27备份">
                <circle id="椭圆形" fill="#E7F1FF" cx="12" cy="12" r="12"></circle>
                <g id="贷款" transform="translate(4.000000, 4.000000)" fill-rule="nonzero">
                    <rect id="矩形" fill="#000000" opacity="0" x="0" y="0" width="16" height="16"></rect>
                    <g id="编组-43" transform="translate(1.000000, 1.000000)" fill="#137AFF">
                        <path d="M14.1201218,9.58814835 L13.4247442,9.47527546 C13.3340428,9.46116635 13.2413258,9.453104 13.1506244,9.453104 C12.8583642,9.453104 12.5681197,9.52768073 12.3121401,9.6748186 L8.71834808,11.7045149 C8.70625456,11.7125773 8.69012986,11.7145929 8.67602075,11.7145929 C8.66191164,11.7145929 8.64578695,11.7105617 8.63369342,11.7024993 L7.54527633,11.0736361 L8.46236851,11.0736361 C8.89773535,11.0736361 9.25046311,10.7209084 9.25046311,10.2855415 L9.25046311,9.82800322 C9.25046311,9.39263639 8.89773535,9.03990863 8.46236851,9.03990863 L4.28607181,9.03990863 C4.21754185,9.03990863 4.15102747,9.04595539 4.08854427,9.05200215 C4.07241957,9.05401774 4.06032605,9.05603332 4.04420135,9.05804891 C3.8950479,9.08022037 3.78015943,9.11045418 3.78015943,9.11045418 L0.0614010276,10.2029024 C0.017058109,10.2170116 -0.00914452472,10.2633701 0.00294899853,10.3097286 L0.799105946,13.0206934 C0.809183882,13.0569739 0.843448864,13.081161 0.881745021,13.081161 C0.88980737,13.081161 0.897869719,13.0791454 0.905932068,13.0771298 L3.60480334,12.285004 C3.61286569,12.2829884 3.62092804,12.2809729 3.62899039,12.2809729 C3.6430995,12.2809729 3.65922419,12.285004 3.67131772,12.2930664 L8.18824865,14.9012362 C8.31119947,14.975813 8.42608794,15 8.52888289,15 C8.75261307,15 8.90781328,14.8790648 8.90781328,14.8790648 L14.2813688,10.1263101 C14.4748652,9.95700081 14.3801326,9.63249127 14.1201218,9.58814835 Z" id="路径"></path>
                        <path d="M3.57053836,8.38685837 C3.62899039,8.37073367 3.9414064,8.28607901 4.28607181,8.28607901 L8.46236851,8.28607901 C9.19805784,8.28607901 9.81281194,8.80206934 9.96801215,9.49140016 C11.4071414,8.57833916 12.3645453,6.97594733 12.3645453,5.14579414 C12.3645453,2.30381618 10.0607292,0 7.2187512,0 C4.37677324,0 2.07295706,2.30381618 2.07295706,5.14579414 C2.07295706,6.4135985 2.53251094,7.57256114 3.29238732,8.46949745 L3.57053836,8.38685837 L3.57053836,8.38685837 Z M5.02780791,4.98857834 L7.06355099,2.95283526 C7.15022124,2.86616501 7.28929675,2.86616501 7.375967,2.95283526 L9.41171008,4.98857834 C9.49838033,5.07524859 9.49838033,5.21432411 9.41171008,5.30099436 L7.375967,7.33673744 C7.28929675,7.42340769 7.15022124,7.42340769 7.06355099,7.33673744 L5.02780791,5.30099436 C4.94113766,5.21633969 4.94113766,5.07524859 5.02780791,4.98857834 L5.02780791,4.98857834 Z" id="形状"></path>
                    </g>
                </g>
            </g>
        </g>
    </g>
</svg>