<?xml version="1.0" encoding="UTF-8"?>
<svg width="24px" height="24px" viewBox="0 0 24 24" version="1.1" xmlns="http://www.w3.org/2000/svg" xmlns:xlink="http://www.w3.org/1999/xlink">
    <title>编组 28 </title>
    <g id="订单管理" stroke="none" stroke-width="1" fill="none" fill-rule="evenodd">
        <g transform="translate(-1054.000000, -145.000000)" id="编组-35备份-4">
            <g transform="translate(1054.000000, 145.000000)" id="编组-28">
                <circle id="椭圆形" fill="#FEECEC" cx="12" cy="12" r="12"></circle>
                <rect id="矩形" fill="#000000" fill-rule="nonzero" opacity="0" x="4" y="4" width="16" height="16"></rect>
                <path d="M17.075,6 C18.138125,6 19,6.86187499 19,7.92499999 L19,10.375 C19,10.6649495 18.7649495,10.9 18.475,10.9 C17.7984512,10.9 17.25,11.4484512 17.25,12.125 C17.25,12.8015488 17.7984512,13.35 18.475,13.35 C18.7649495,13.35 19,13.5850505 19,13.875 L19,16.325 C19,17.388125 18.138125,18.25 17.075,18.25 L6.92500001,18.25 C5.86187501,18.25 5,17.388125 5,16.325 L5,13.875 C5,13.5850505 5.23505051,13.35 5.525,13.35 C6.20154882,13.35 6.75,12.8015488 6.75,12.125 C6.75,11.4484512 6.20154882,10.9 5.525,10.9 C5.23505051,10.9 5,10.6649495 5,10.375 L5,7.92499999 C5,6.86187499 5.86187499,6 6.92500001,6 L17.075,6 Z M10.631325,9.138975 C10.440824,8.93769476 10.1266816,8.91915269 9.91382501,9.09662499 L9.888975,9.11867499 C9.68769475,9.30917599 9.6691527,9.62331836 9.84662501,9.836175 L11.0249,11.25 L10.25,11.25 L10.2192,11.250875 C9.94168123,11.2671842 9.72498451,11.4970024 9.725,11.775 L9.72587501,11.8058 C9.7421842,12.0833188 9.97200242,12.3000155 10.25,12.3 L11.5625,12.3 L11.5625,13 L10.25,13 L10.2192,13.000875 C9.94168124,13.0171842 9.72498452,13.2470024 9.725,13.525 L9.72587501,13.5558 C9.7421842,13.8333188 9.97200242,14.0500155 10.25,14.05 L11.5625,14.05 L11.5625,14.75 L11.563375,14.7808 C11.5796842,15.0583187 11.8095024,15.275 12.0875,15.275 L12.1183,15.274125 C12.3958188,15.2578158 12.6125155,15.0279976 12.6125,14.75 L12.6125,14.05 L13.75,14.05 L13.7808,14.049125 C14.0583188,14.0328158 14.2750155,13.8029976 14.275,13.525 L14.274125,13.4942 C14.2578158,13.2166812 14.0279976,12.9999845 13.75,13 L12.6125,13 L12.6125,12.3 L13.75,12.3 L13.7808,12.299125 C14.0583188,12.2828158 14.2750155,12.0529976 14.275,11.775 L14.274125,11.7442 C14.2578158,11.4666812 14.0279976,11.2499845 13.75,11.25 L12.97475,11.25 L14.153375,9.83599999 L14.17385,9.809925 C14.3431117,9.58112513 14.2992456,9.25912399 14.0749492,9.08393836 C13.8506527,8.90875274 13.5276148,8.94418532 13.346625,9.16382499 L12,10.77995 L10.653375,9.16382499 L10.631325,9.138975 Z" id="形状" fill="#F94646" fill-rule="nonzero"></path>
            </g>
        </g>
    </g>
</svg>