<?xml version="1.0" encoding="UTF-8"?>
<svg width="16px" height="16px" viewBox="0 0 16 16" version="1.1" xmlns="http://www.w3.org/2000/svg" xmlns:xlink="http://www.w3.org/1999/xlink">
    <title>编组 21</title>
    <g id="页面-1" stroke="none" stroke-width="1" fill="none" fill-rule="evenodd">
        <g id="画板" transform="translate(-114.000000, -189.000000)">
            <rect fill="#333333" x="0" y="0" width="374" height="316"></rect>
            <g id="编组-21" transform="translate(114.000000, 189.000000)" stroke="#CCCCCC">
                <path d="M13.171483,8.84615978 C13.6619668,8.84615978 14.1073854,9.02868503 14.429285,9.32813163 C14.7376245,9.61496392 14.9319013,10.0102069 14.9319013,10.4489104 C14.9319013,10.8059031 14.8032815,11.1345564 14.5889639,11.3989244 C14.3215839,11.7287468 13.9222682,11.9593952 13.466079,12.0293536 L13.2924887,12.0479354 L13.292,12.775 L13.0122706,12.0452041 C12.5690551,12.0091495 12.1708052,11.8228213 11.8813326,11.5388215 L11.7780039,11.4278459 C11.5493558,11.1586678 11.4110647,10.8190569 11.4110647,10.4489104 C11.4110647,10.0102069 11.6053416,9.61496392 11.913681,9.32813163 C12.2355806,9.02868503 12.6809992,8.84615978 13.171483,8.84615978 Z M13.171483,8.88942975 C12.7008033,8.88942975 12.28623,9.05947703 11.9853916,9.32134523 C11.6495007,9.61372527 11.4543347,10.0192263 11.4543347,10.4489104 C11.4543347,10.8785944 11.6495007,11.2840954 11.9853916,11.5764755 C12.28623,11.8383437 12.7008033,12.008391 13.171483,12.008391 C13.6421627,12.008391 14.0567361,11.8383437 14.3575744,11.5764755 C14.6934653,11.2840954 14.8886313,10.8785944 14.8886313,10.4489104 C14.8886313,10.0192263 14.6934653,9.61372527 14.3575744,9.32134523 C14.0567361,9.05947703 13.6421627,8.88942975 13.171483,8.88942975 Z M1.85,13.002 L8.54990341,13.3799151 L1.91990037,13.4438759 C1.90081308,13.3479855 1.88431478,13.2537411 1.87030865,13.1610887 L1.85,13.002 Z M7.67143693,0.5 C8.56398856,0.5 9.37186453,0.864887615 9.95671929,1.45428619 C10.5429691,2.0450907 10.9052452,2.86136953 10.9052452,3.76281682 C10.9052452,4.87515191 10.3535386,5.85792577 9.51022154,6.44723975 L9.34874578,6.55306083 L8.38285347,7.14562043 L9.47163728,7.45966604 C9.78131141,7.54898754 10.080146,7.66210036 10.3661185,7.79688647 C9.69041935,7.52862082 8.98952077,7.33685444 8.24552019,7.27138155 C6.45454145,7.25730404 4.96506068,7.78644332 3.84223634,8.66221323 C3.09815513,9.24257466 2.51349729,9.97607402 2.1198615,10.8116519 L2.014,11.049 L2.02715843,11.0070205 C2.16522142,10.596832 2.36163288,10.2264796 2.59547973,9.88431116 L2.71542595,9.71552168 C3.44161045,8.73120557 4.44977782,7.97017462 5.62002463,7.55470005 L5.89290416,7.4650111 L6.96760336,7.13968014 L6.00678143,6.55861231 C5.0660329,5.98968409 4.43762861,4.94996578 4.43762861,3.76281682 C4.43762861,2.86136953 4.79990472,2.0450907 5.38615457,1.45428619 C5.97100932,0.864887615 6.77888529,0.5 7.67143693,0.5 Z M7.67143693,0.543269972 C6.79035198,0.543269972 5.99149227,0.903937877 5.41329185,1.48837227 C4.83769985,2.07017011 4.48089858,2.87383423 4.48089858,3.76281682 C4.48089858,4.65179941 4.83769985,5.45546353 5.41329185,6.03726137 C5.99149227,6.62169576 6.79035198,6.98236367 7.67143693,6.98236367 C8.55252187,6.98236367 9.35138158,6.62169576 9.929582,6.03726137 C10.505174,5.45546353 10.8619753,4.65179941 10.8619753,3.76281682 C10.8619753,2.87383423 10.505174,2.07017011 9.929582,1.48837227 C9.35138158,0.903937877 8.55252187,0.543269972 7.67143693,0.543269972 Z" id="形状结合"></path>
            </g>
        </g>
    </g>
</svg>