<?xml version="1.0" encoding="UTF-8"?>
<svg width="24px" height="24px" viewBox="0 0 24 24" version="1.1" xmlns="http://www.w3.org/2000/svg" xmlns:xlink="http://www.w3.org/1999/xlink">
    <title>编组 28</title>
    <g id="采购订单" stroke="none" stroke-width="1" fill="none" fill-rule="evenodd">
        <g transform="translate(-689.000000, -130.000000)" id="编组-35备份">
            <g transform="translate(689.000000, 130.000000)" id="编组-28">
                <g id="编组-27备份" fill="#FFF4E9">
                    <circle id="椭圆形" cx="12" cy="12" r="12"></circle>
                </g>
                <path d="M7.72365549,12.5703866 C7.61840058,12.6953768 7.56906234,12.855452 7.57344796,13.0506121 C7.57783358,13.2457723 7.64142509,13.4058474 7.76093328,13.5308377 C7.88044146,13.6558279 8.04051664,13.718323 8.24115882,13.718323 L9.67964265,13.718323 C9.629208,13.8685305 9.59960506,14.013256 9.58973741,14.1524995 C9.57986976,14.2928394 9.57986976,14.4375649 9.58973741,14.586676 C9.58973741,15.1666744 9.65771454,15.7137807 9.7925724,16.2279948 C9.92743026,16.7433053 10.1149156,17.2202417 10.3550283,17.6599002 L7.37170937,17.6599002 C6.83227794,17.6401649 6.38275174,17.4504868 6.02313079,17.0897694 C5.66350983,16.7290521 5.4738317,16.2806223 5.453,15.7411909 L5.453,6.43270937 C5.4727353,5.89327794 5.66241342,5.44155893 6.02313079,5.07645595 C6.38275174,4.71135296 6.83227794,4.52386765 7.37170937,4.514 L15.7208362,4.514 C16.2602676,4.52386765 16.7119866,4.71135296 17.0770896,5.07645595 C17.4421926,5.44155893 17.6296779,5.89327794 17.6395455,6.43270937 L17.6395455,8.92154953 C17.3500945,8.78120965 17.0277514,8.68143676 16.672516,8.62223087 C16.3172807,8.56192858 15.9708166,8.53780766 15.6309309,8.54767531 L15.525676,8.54767531 C15.4752414,8.44790242 15.4083606,8.37334686 15.322841,8.32291221 C15.2373214,8.27247756 15.1452234,8.24835664 15.0454505,8.24835664 L8.04599867,8.24835664 C7.89579113,8.24835664 7.76312609,8.29879129 7.64909993,8.39856418 C7.53397737,8.49833707 7.47696429,8.64306257 7.47696429,8.8327407 C7.47696429,9.02241883 7.53397737,9.17043355 7.64909993,9.27459206 C7.76422249,9.37984697 7.89688754,9.45659535 8.04599867,9.50702999 L12.4678015,9.50702999 C11.887803,9.83704801 11.3856494,10.2416216 10.9613405,10.7207507 C10.5359352,11.2009763 10.2048208,11.754661 9.96470804,12.3850941 L8.24115882,12.3850941 C8.00104605,12.3829012 7.82891041,12.4453964 7.72365549,12.5703866 Z M18.4717172,11.6932623 C19.2359117,12.4223718 19.6339069,13.3521236 19.6635098,14.4814211 C19.6339069,15.6205863 19.2359117,16.5700733 18.4717172,17.3298822 C17.7075227,18.0896911 16.7602284,18.4843971 15.6309309,18.514 C14.4917658,18.4843971 13.5422787,18.0798235 12.7824698,17.3002793 C12.0226609,16.5207351 11.627955,15.5811157 11.598352,14.4825175 C11.627955,13.4036546 12.0226609,12.4859633 12.7824698,11.7316365 C13.5422787,10.9773096 14.4917658,10.5847965 15.6309309,10.5551935 C16.7602284,10.5847965 17.7075227,10.9641527 18.4717172,11.6932623 Z M18.1351208,15.6512856 C18.2447613,15.5416451 18.2995816,15.4111728 18.2995816,15.2620617 C18.2995816,15.1129506 18.2447613,14.9802855 18.1351208,14.865163 C18.0254802,14.7500404 17.895008,14.6875453 17.7458969,14.6776777 L15.7219326,14.6776777 L15.7219326,12.5627117 C15.7219326,12.4125042 15.6638231,12.2831284 15.5497969,12.1734878 C15.4346744,12.0638473 15.3020093,12.009027 15.1528982,12.009027 C15.0037871,12.009027 14.8700256,12.0638473 14.7559995,12.1734878 C14.6408769,12.2831284 14.5783818,12.4136006 14.5685141,12.5627117 L14.5685141,15.2609653 C14.5783818,15.4111728 14.6408769,15.5405487 14.7559995,15.6501892 C14.871122,15.7598297 15.0037871,15.820132 15.1528982,15.8299997 L17.7458969,15.8299997 C17.895008,15.8212284 18.0243838,15.7609261 18.1351208,15.6512856 L18.1351208,15.6512856 Z" id="形状" fill="#FF9629" fill-rule="nonzero"></path>
            </g>
        </g>
    </g>
</svg>