<?xml version="1.0" encoding="UTF-8"?>
<svg width="16px" height="16px" viewBox="0 0 16 16" version="1.1" xmlns="http://www.w3.org/2000/svg" xmlns:xlink="http://www.w3.org/1999/xlink">
    <title>协议</title>
    <g id="协议主条款" stroke="none" stroke-width="1" fill="none" fill-rule="evenodd">
        <g id="协议">
            <rect id="矩形" fill="#000000" fill-rule="nonzero" opacity="0" x="0" y="0" width="16" height="16"></rect>
            <path d="M10.9069086,1 C10.9579195,1 11.0070025,1.01949151 11.0441163,1.05448694 L14.6038744,4.41106665 C14.6439499,4.44885479 14.6666667,4.50149806 14.6666667,4.55657971 L14.6666667,13 C14.6666667,14.1045695 13.7712362,15 12.6666667,15 L3.66666667,15 C2.56209717,15 1.66666667,14.1045695 1.66666667,13 L1.66666667,3 C1.66666667,1.8954305 2.56209717,1 3.66666667,1 L10.9069086,1 Z M10.51,2.2 L3.66666667,2.2 C3.25882563,2.2 2.92226509,2.50518815 2.87289981,2.8996497 L2.86666667,3 L2.86666667,13 C2.86666667,13.407841 3.17185482,13.7444016 3.56631637,13.7937669 L3.66666667,13.8 L12.6666667,13.8 C13.0745077,13.8 13.4110683,13.4948119 13.4604335,13.1003503 L13.4666667,13 L13.466,4.988 L10.51,2.2 Z" id="矩形" fill="#CCCCCC" fill-rule="nonzero"></path>
            <path d="" id="矩形" stroke="#CCCCCC" fill="#D8D8D8"></path>
            <path d="" id="矩形备份-27" stroke="#CCCCCC" fill="#D8D8D8"></path>
        </g>
    </g>
</svg>