<?xml version="1.0" encoding="UTF-8"?>
<svg width="32px" height="32px" viewBox="0 0 32 32" version="1.1" xmlns="http://www.w3.org/2000/svg" xmlns:xlink="http://www.w3.org/1999/xlink">
    <title>plus-circle</title>
    <g id="销售订单" stroke="none" stroke-width="1" fill="none" fill-rule="evenodd">
        <g id="销售订单--订单详情-发货页面" transform="translate(-1199.000000, -772.000000)" fill-rule="nonzero">
            <g id="编组-39备份" transform="translate(214.000000, 628.000000)">
                <g id="编组" transform="translate(16.000000, 136.000000)">
                    <g id="plus-circle" transform="translate(969.000000, 8.000000)">
                        <rect id="矩形" fill="#000000" opacity="0" x="0" y="0" width="32" height="32"></rect>
                        <path d="M21.75,15 L17,15 L15,15 L10.25,15 C10.1125,15 10,15.1125 10,15.25 L10,16.75 C10,16.8875 10.1125,17 10.25,17 L15,17 L17,17 L21.75,17 C21.8875,17 22,16.8875 22,16.75 L22,15.25 C22,15.1125 21.8875,15 21.75,15 Z" id="路径" fill="#1790FF"></path>
                        <path d="M16,2 C8.26875,2 2,8.26875 2,16 C2,23.73125 8.26875,30 16,30 C23.73125,30 30,23.73125 30,16 C30,8.26875 23.73125,2 16,2 Z M16,27.625 C9.58125,27.625 4.375,22.41875 4.375,16 C4.375,9.58125 9.58125,4.375 16,4.375 C22.41875,4.375 27.625,9.58125 27.625,16 C27.625,22.41875 22.41875,27.625 16,27.625 Z" id="形状" fill="#1790FF"></path>
                    </g>
                </g>
            </g>
        </g>
    </g>
</svg>