<?xml version="1.0" encoding="UTF-8"?>
<svg width="16px" height="16px" viewBox="0 0 16 16" version="1.1" xmlns="http://www.w3.org/2000/svg" xmlns:xlink="http://www.w3.org/1999/xlink">
    <title>矩形</title>
    <g id="侧边栏" stroke="none" stroke-width="1" fill="none" fill-rule="evenodd">
        <g id="画板" transform="translate(-35.000000, -777.000000)" fill="#CCCCCC" fill-rule="nonzero">
            <g id="关系图" transform="translate(35.000000, 777.000000)">
                <rect id="矩形" opacity="0" x="0" y="0" width="16" height="16"></rect>
                <path d="M13,1 C14.1045695,1 15,1.8954305 15,3 L15,13 C15,14.1045695 14.1045695,15 13,15 L3,15 C1.8954305,15 1,14.1045695 1,13 L1,3 C1,1.8954305 1.8954305,1 3,1 L13,1 Z M13,2 L3,2 C2.44771525,2 2,2.44771525 2,3 L2,13 C2,13.5522847 2.44771525,14 3,14 L13,14 C13.5522847,14 14,13.5522847 14,13 L14,3 C14,2.44771525 13.5522847,2 13,2 Z M11.6585786,9 C11.7690356,9 11.8585786,9.08954305 11.8585786,9.2 L11.8585786,9.8 C11.8585786,9.91045695 11.7690356,10 11.6585786,10 L5.85857864,10 L6.68786796,10.8292893 C6.72692039,10.8683417 6.72692039,10.9316582 6.68786796,10.9707107 C6.66911432,10.9894643 6.64367893,11 6.61715728,11 L5.94142136,11 C5.88837806,11 5.83750727,10.9789286 5.8,10.9414214 L4.02928932,9.17071068 C3.99023689,9.13165825 3.99023689,9.06834175 4.02928932,9.02928932 C4.04286103,9.01571761 4.05993211,9.0064498 4.07838181,9.00236431 L4.09064408,9.00049322 L11.6585786,9 Z M9.91715729,5 C9.97020059,5 10.0210714,5.02107137 10.0585786,5.05857864 L11.8292893,6.82928932 C11.8683417,6.86834175 11.8683417,6.93165825 11.8292893,6.97071068 C11.8157176,6.98428239 11.7986465,6.9935502 11.7801968,6.99763569 C11.7703892,6.99947285 11.7645111,7 11.7585786,7 L4.2,7 C4.08954305,7 4,6.91045695 4,6.8 L4,6.2 C4,6.08954305 4.08954305,6 4.2,6 L10,6 L9.17071068,5.17071068 C9.13165825,5.13165825 9.13165825,5.06834175 9.17071068,5.02928932 C9.18946432,5.01053568 9.21489971,5 9.24142136,5 L9.91715729,5 Z" id="形状结合"></path>
            </g>
        </g>
    </g>
</svg>