<?xml version="1.0" encoding="UTF-8"?>
<svg width="16px" height="16px" viewBox="0 0 16 16" version="1.1" xmlns="http://www.w3.org/2000/svg" xmlns:xlink="http://www.w3.org/1999/xlink">
    <title>财务管理</title>
    <g id="结算单" stroke="none" stroke-width="1" fill="none" fill-rule="evenodd">
        <g id="画板" transform="translate(-20.000000, -213.000000)">
            <g id="编组-3" transform="translate(0.000000, 200.000000)">
                <g id="编组-42" transform="translate(20.000000, 13.000000)">
                    <rect id="矩形备份-17" x="0" y="0" width="16" height="16"></rect>
                    <g id="编组-40备份" transform="translate(2.000000, 1.000000)" fill="#CCCCCC" fill-rule="nonzero">
                        <g id="编组-43">
                            <path d="M7.43076923,0 C8.62547751,0 9.60381497,0.92639362 9.68662937,2.10002862 L9.69230769,2.26153846 L8.61538462,2.26153846 C8.61538462,1.65090978 8.15337309,1.14818968 7.55984613,1.08387424 L7.43076923,1.07692308 L2.26153846,1.07692308 C1.65090978,1.07692308 1.14818968,1.5389346 1.08387424,2.13246156 L1.07692308,2.26153846 L1.07692308,11.7384615 C1.07692308,12.3490902 1.5389346,12.8518103 2.13246156,12.9161258 L2.26153846,12.9230769 L7.43076923,12.9230769 L7.43076923,14 L2.26153846,14 C1.06683018,14 0.0884927218,13.0736064 0.00567832707,11.8999714 L0,11.7384615 L0,2.26153846 C0,1.06683018 0.92639362,0.0884927218 2.10002862,0.00567832707 L2.26153846,0 L7.43076923,0 Z" id="路径"></path>
                            <path d="M10.0153846,1.72307692 C11.1994638,1.72307692 12.1836448,2.58698193 12.2706694,3.70078939 L12.2769231,3.86153846 L12.2769231,11.8615385 C12.2769231,12.9977539 11.3465638,13.913305 10.1831036,13.9941894 L10.0153846,14 L3.98461538,14 C3.68723129,14 3.44615385,13.7589226 3.44615385,13.4615385 C3.44615385,13.197197 3.63663479,12.9773448 3.88782624,12.9317523 L3.98461538,12.9230769 L10.0153846,12.9230769 C10.6339926,12.9230769 11.1297973,12.5009816 11.1931552,11.9755878 L11.2,11.8615385 L11.2,3.86153846 C11.2,3.32301417 10.7454359,2.86501727 10.145951,2.80634446 L10.0153846,2.8 L5.16923077,2.8 C4.87184667,2.8 4.63076923,2.55892256 4.63076923,2.26153846 C4.63076923,1.99719704 4.82125017,1.77734483 5.07244163,1.73175226 L5.16923077,1.72307692 L10.0153846,1.72307692 Z" id="路径"></path>
                        </g>
                        <path d="M3.43438047,4.43878791 C3.6742484,4.23891095 4.03072795,4.27131051 4.23063047,4.51115714 L5.68084201,6.25159945 L7.13105355,4.51115714 C7.26039606,4.35595959 7.46271038,4.28155455 7.66178665,4.31596967 C7.86086293,4.3503848 8.02645674,4.48839162 8.0961905,4.6780043 C8.16592426,4.86761698 8.12920375,5.08002884 7.99986123,5.23522638 L6.73057277,6.75780715 L7.5654574,6.75780715 C7.8648394,6.75779048 8.11233594,6.99115617 8.12989969,7.29002252 L8.13084201,7.32319176 C8.13084201,7.63544506 7.8777107,7.88857638 7.5654574,7.88857638 L6.34045739,7.88857638 L6.34045739,8.64242252 L7.5654574,8.64242252 C7.86483941,8.64240585 8.11233595,8.87577155 8.12989969,9.17463791 L8.13084201,9.20780713 C8.13084201,9.52006043 7.8777107,9.77319175 7.5654574,9.77319175 L6.34045739,9.77319175 L6.34045739,10.5270379 C6.34047407,10.8264199 6.10710838,11.0739165 5.80824202,11.0914802 L5.77507277,11.0924225 C5.46281947,11.0924225 5.20968816,10.8392912 5.20968816,10.5270379 L5.20968816,9.77319175 L3.79622662,9.77319175 C3.49684462,9.77320842 3.24934808,9.53984273 3.23178433,9.24097638 L3.23084201,9.20780713 C3.23084201,8.89555383 3.48397332,8.64242252 3.79622662,8.64242252 L5.20968816,8.64242252 L5.20968816,7.88857638 L3.79622662,7.88857638 C3.49684461,7.88859305 3.24934807,7.65522735 3.23178433,7.35636099 L3.23084201,7.32319176 C3.23084201,7.01093846 3.48397332,6.75780715 3.79622662,6.75780715 L4.63073431,6.75780715 L3.36182279,5.23503791 C3.17081806,5.00583777 3.19078326,4.66766693 3.40743047,4.46253406 L3.43438047,4.43878791 Z" id="路径备份-2"></path>
                    </g>
                </g>
            </g>
        </g>
    </g>
</svg>