<?xml version="1.0" encoding="UTF-8"?>
<svg width="16px" height="16px" viewBox="0 0 16 16" version="1.1" xmlns="http://www.w3.org/2000/svg" xmlns:xlink="http://www.w3.org/1999/xlink">
    <title>编组 22</title>
    <g id="页面-1" stroke="none" stroke-width="1" fill="none" fill-rule="evenodd">
        <g id="画板" transform="translate(-252.000000, -189.000000)" fill="#CCCCCC" fill-rule="nonzero">
            <g id="编组-22" transform="translate(252.000000, 189.000000)">
                <path d="M10,1 C10.5522847,1 11,1.44771525 11,2 L13.5,2 C14.3284271,2 15,2.62680135 15,3.4 L15,14.6 C15,15.3731986 14.3284271,16 13.5,16 L3.5,16 C2.67157288,16 2,15.3731986 2,14.6 L2,3.4 C2,2.62680135 2.67157288,2 3.5,2 L6,2 C6,1.44771525 6.44771525,1 7,1 L10,1 Z M6,3 L3.5,3 C3.25454011,3 3.05039163,3.16326938 3.00805567,3.37857634 L3,3.46153846 L3,14.5384615 C3,14.7650399 3.17687516,14.9534846 3.41012437,14.992564 L3.5,15 L13.5,15 C13.7454599,15 13.9496084,14.8367306 13.9919443,14.6214237 L14,14.5384615 L14,3.46153846 C14,3.2349601 13.8231248,3.04651535 13.5898756,3.007436 L13.5,3 L11,3 C11,3.55228475 10.5522847,4 10,4 L7,4 C6.44771525,4 6,3.55228475 6,3 Z M9,12 C9.27614237,12 9.5,12.2238576 9.5,12.5 C9.5,12.7454599 9.32312484,12.9496084 9.08987563,12.9919443 L9,13 L5,13 C4.72385763,13 4.5,12.7761424 4.5,12.5 C4.5,12.2545401 4.67687516,12.0503916 4.91012437,12.0080557 L5,12 L9,12 Z M12,9 C12.2761424,9 12.5,9.22385763 12.5,9.5 C12.5,9.74545989 12.3231248,9.94960837 12.0898756,9.99194433 L12,10 L5,10 C4.72385763,10 4.5,9.77614237 4.5,9.5 C4.5,9.25454011 4.67687516,9.05039163 4.91012437,9.00805567 L5,9 L12,9 Z M12,6 C12.2761424,6 12.5,6.22385763 12.5,6.5 C12.5,6.74545989 12.3231248,6.94960837 12.0898756,6.99194433 L12,7 L5,7 C4.72385763,7 4.5,6.77614237 4.5,6.5 C4.5,6.25454011 4.67687516,6.05039163 4.91012437,6.00805567 L5,6 L12,6 Z M10,2 L7,2 L7,3 L10,3 L10,2 Z" id="形状结合"></path>
            </g>
        </g>
    </g>
</svg>