<?xml version="1.0" standalone="no"?><!DOCTYPE svg PUBLIC "-//W3C//DTD SVG 1.1//EN" "http://www.w3.org/Graphics/SVG/1.1/DTD/svg11.dtd"><svg t="1629787099124" class="icon" viewBox="0 0 1024 1024" version="1.1" xmlns="http://www.w3.org/2000/svg" p-id="2954" xmlns:xlink="http://www.w3.org/1999/xlink" width="128" height="128"><defs><style type="text/css"></style></defs><path d="M718.72 32c79.616 0 144.64 62.336 149.888 141.12l0.32 10.368v530.112a31.872 31.872 0 0 1-4.544 16.448 44.096 44.096 0 0 1-11.648 26.624L668.352 957.44a44.8 44.8 0 0 1-77.824-30.272V726.4a44.8 44.8 0 0 1 44.8-44.8l169.536-0.064V183.488a87.04 87.04 0 0 0-77.824-87.04L718.72 96H246.208c-44.672 0-81.536 34.56-85.76 79.04L160 183.488v657.024a87.04 87.04 0 0 0 77.888 87.04l8.32 0.448h208.512a32 32 0 0 1 5.76 63.488l-5.76 0.512H246.144a150.72 150.72 0 0 1-149.76-141.12L96 840.512V183.488C96 103.36 157.696 37.696 235.84 32.32L246.144 32h472.64z m57.344 713.536H654.528v132.288l121.536-132.288z m-320.768-145.92a32 32 0 0 1 5.76 63.488l-5.76 0.512H265.472a32 32 0 0 1-5.76-63.488l5.76-0.512h189.824z m223.68-179.328a32 32 0 0 1 5.76 63.488l-5.76 0.512H265.472a32 32 0 0 1-5.76-63.488l5.76-0.512h413.504z m0-179.392a32 32 0 0 1 5.76 63.488l-5.76 0.512H265.472a32 32 0 0 1-5.76-63.488l5.76-0.512h413.504z" p-id="2955"></path></svg>