<?xml version="1.0" standalone="no"?><!DOCTYPE svg PUBLIC "-//W3C//DTD SVG 1.1//EN" "http://www.w3.org/Graphics/SVG/1.1/DTD/svg11.dtd"><svg t="1629787126548" class="icon" viewBox="0 0 1024 1024" version="1.1" xmlns="http://www.w3.org/2000/svg" p-id="3806" xmlns:xlink="http://www.w3.org/1999/xlink" width="128" height="128"><defs><style type="text/css"></style></defs><path d="M500.544 64A244.352 244.352 0 0 1 627.84 516.928c24.128 6.976 47.36 16 69.44 26.752-30.272 8.704-58.304 22.464-83.264 40.32a380.16 380.16 0 0 0-77.888-15.168l-20.48-1.28-15.04-0.32A368.384 368.384 0 0 0 136.96 876.8l-2.048 14.72-0.96 9.856h382.848c9.152 24.64 21.76 47.616 37.312 68.288H98.112A34.112 34.112 0 0 1 64 935.488a436.736 436.736 0 0 1 310.4-417.984A244.352 244.352 0 0 1 500.544 64z m460.032 808.128a32 32 0 0 1 5.76 63.488l-5.76 0.512h-239.104a32 32 0 0 1-5.76-63.488l5.76-0.512h239.104z m0-148.288a32 32 0 0 1 5.76 63.488l-5.76 0.512h-239.104a32 32 0 0 1-5.76-63.488l5.76-0.512h239.104zM500.48 128a180.352 180.352 0 1 0 0 360.64 180.352 180.352 0 0 0 0-360.64z" p-id="3807"></path></svg>