<?xml version="1.0" encoding="UTF-8"?>
<svg width="16px" height="16px" viewBox="0 0 16 16" version="1.1" xmlns="http://www.w3.org/2000/svg" xmlns:xlink="http://www.w3.org/1999/xlink">
    <title>优惠券</title>
    <g id="结算单" stroke="none" stroke-width="1" fill="none" fill-rule="evenodd">
        <g id="画板" transform="translate(-20.000000, -172.000000)" fill="#CCCCCC" fill-rule="nonzero">
            <g id="编组-2" transform="translate(0.000000, 160.000000)">
                <g id="优惠券" transform="translate(20.000000, 12.000000)">
                    <path d="M13.075,2 C14.138125,2 15,2.86187499 15,3.92499999 L15,6.37499999 C15,6.66494948 14.7649495,6.89999999 14.475,6.89999999 C13.7984512,6.89999999 13.25,7.44845117 13.25,8.12499999 C13.25,8.80154881 13.7984512,9.34999999 14.475,9.34999999 C14.7649495,9.34999999 15,9.5850505 15,9.87499999 L15,12.325 C15,13.388125 14.138125,14.25 13.075,14.25 L2.92500001,14.25 C1.86187501,14.25 1,13.388125 1,12.325 L1,9.87499999 C1,9.5850505 1.23505051,9.34999999 1.525,9.34999999 C2.20154882,9.34999999 2.75,8.80154881 2.75,8.12499999 C2.75,7.44845117 2.20154882,6.89999999 1.525,6.89999999 C1.23505051,6.89999999 1,6.66494948 1,6.37499999 L1,3.92499999 C1,2.86187499 1.86187499,2 2.92500001,2 L13.075,2 Z M13.075,3.05 L2.92500001,3.05 C2.69293558,3.05 2.4703759,3.14218723 2.30628157,3.30628156 C2.14218724,3.47037589 2.05,3.69293556 2.05,3.92499999 L2.05,5.91089999 C3.053275,6.14784999 3.8,7.04927499 3.8,8.12499999 C3.8,9.20072499 3.053275,10.10215 2.05,10.3391 L2.05,12.325 C2.05,12.5570644 2.14218724,12.7796241 2.30628157,12.9437184 C2.4703759,13.1078128 2.69293558,13.2 2.92500001,13.2 L13.075,13.2 C13.3070644,13.2 13.5296241,13.1078128 13.6937184,12.9437184 C13.8578128,12.7796241 13.95,12.5570644 13.95,12.325 L13.95,10.3391 C12.946725,10.10215 12.2,9.20072499 12.2,8.12499999 C12.2,7.04927499 12.946725,6.14784999 13.95,5.91089999 L13.95,3.92499999 C13.95,3.69293556 13.8578128,3.47037589 13.6937184,3.30628156 C13.5296241,3.14218723 13.3070644,3.05 13.075,3.05 L13.075,3.05 Z M5.914,5.09662499 C6.13673451,4.91102495 6.46775123,4.94111026 6.653375,5.16382499 L8,6.77994999 L9.346625,5.16382499 C9.46672876,5.01971297 9.65459205,4.95062258 9.8394486,4.98257948 C10.0243051,5.01453639 10.1780708,5.14268558 10.2428236,5.31875449 C10.3075764,5.49482341 10.2734788,5.69206299 10.153375,5.836175 L8.97474999,7.25 L9.75,7.25 C10.0279976,7.24998452 10.2578158,7.46668123 10.274125,7.74419998 L10.275,7.775 C10.275,8.06494949 10.0399495,8.3 9.75,8.3 L8.61249999,8.3 L8.61249999,8.99999998 L9.75,8.99999998 C10.0279976,8.9999845 10.2578158,9.21668122 10.274125,9.49419999 L10.275,9.52499998 C10.275,9.81494948 10.0399495,10.05 9.75,10.05 L8.61249999,10.05 L8.61249999,10.75 C8.61251548,11.0279976 8.39581877,11.2578158 8.11830001,11.274125 L8.08749999,11.275 C7.7975505,11.275 7.56249999,11.0399495 7.56249999,10.75 L7.56249999,10.05 L6.25,10.05 C5.97200242,10.0500155 5.7421842,9.83331875 5.72587501,9.55579999 L5.725,9.52499998 C5.725,9.23505049 5.9600505,8.99999998 6.25,8.99999998 L7.56249999,8.99999998 L7.56249999,8.3 L6.25,8.3 C5.97200242,8.30001548 5.7421842,8.08331875 5.72587501,7.80579999 L5.725,7.775 C5.725,7.4850505 5.9600505,7.25 6.25,7.25 L7.0249,7.25 L5.84662501,5.83599999 C5.66926348,5.62317128 5.68780259,5.30915551 5.888975,5.11867499 L5.914,5.09662499 Z" id="形状"></path>
                </g>
            </g>
        </g>
    </g>
</svg>