<?xml version="1.0" standalone="no"?><!DOCTYPE svg PUBLIC "-//W3C//DTD SVG 1.1//EN" "http://www.w3.org/Graphics/SVG/1.1/DTD/svg11.dtd"><svg t="1629787080313" class="icon" viewBox="0 0 1024 1024" version="1.1" xmlns="http://www.w3.org/2000/svg" p-id="2528" xmlns:xlink="http://www.w3.org/1999/xlink" width="128" height="128"><defs><style type="text/css"></style></defs><path d="M442.24 77.312L16.576 423.936a44.544 44.544 0 0 0-16.512 34.56l0.448 6.144c3.008 22.08 22.336 38.592 44.992 38.592h61.568V864a96 96 0 0 0 96 96H315.52a96 96 0 0 0 96-96v-140.928a32 32 0 0 1 32-32h72.96a32 32 0 0 1 32 32V864a96 96 0 0 0 96 96h104.384l9.28-0.448A96 96 0 0 0 844.8 864V503.232h69.696a45.76 45.76 0 0 0 33.92-14.976 44.352 44.352 0 0 0-4.992-64.32L517.76 77.312a59.968 59.968 0 0 0-75.392 0z m37.76 51.84l380.928 310.08h-46.464a33.6 33.6 0 0 0-33.6 33.6V864a32 32 0 0 1-32 32h-104.32a32 32 0 0 1-32-32v-140.928a96 96 0 0 0-96-96H443.52a96 96 0 0 0-96 96V864a32 32 0 0 1-32 32H203.008a32 32 0 0 1-32-32V484.032l-0.384-6.08a44.8 44.8 0 0 0-44.416-38.72h-27.2L480 129.152z" p-id="2529"></path></svg>