<?xml version="1.0" standalone="no"?><!DOCTYPE svg PUBLIC "-//W3C//DTD SVG 1.1//EN" "http://www.w3.org/Graphics/SVG/1.1/DTD/svg11.dtd"><svg t="1629787107541" class="icon" viewBox="0 0 1024 1024" version="1.1" xmlns="http://www.w3.org/2000/svg" p-id="3238" xmlns:xlink="http://www.w3.org/1999/xlink" width="128" height="128"><defs><style type="text/css"></style></defs><path d="M800 128A160 160 0 0 1 960 288v448a160 160 0 0 1-160 160h-576A160 160 0 0 1 64 736v-448A160 160 0 0 1 224 128h576z m0 64h-576A96 96 0 0 0 128 288v448A96 96 0 0 0 224 832h576a96 96 0 0 0 96-96v-448A96 96 0 0 0 800 192zM514.24 387.648a32 32 0 0 1-35.456 50.944l-114.752-43.2-5.376-2.56a32 32 0 0 1 0-54.72l99.52-60.48 5.184-2.56a32 32 0 0 1 38.784 13.312l2.56 5.12a32 32 0 0 1-3.968 30.208h156.8l9.344 0.384a108.608 108.608 0 0 1-9.344 216.832h-41.408l-0.64 0.064H349.76a44.608 44.608 0 0 0-6.08 88.832l6.08 0.384h265.856a32 32 0 0 1 5.76 63.488l-5.76 0.512H349.696a108.608 108.608 0 0 1-9.408-216.832l9.408-0.384h41.216l0.768-0.064h265.856l6.016-0.384a44.608 44.608 0 0 0-6.016-88.832z" p-id="3239"></path></svg>