<?xml version="1.0" encoding="UTF-8"?>
<svg width="16px" height="16px" viewBox="0 0 16 16" version="1.1" xmlns="http://www.w3.org/2000/svg" xmlns:xlink="http://www.w3.org/1999/xlink">
    <title>员工管理</title>
    <g id="页面-1" stroke="none" stroke-width="1" fill="none" fill-rule="evenodd">
        <g id="画板" transform="translate(-186.000000, -189.000000)">
            <rect fill="#333333" x="0" y="0" width="374" height="316"></rect>
            <g id="员工管理备份" transform="translate(186.000000, 189.000000)" fill-rule="nonzero">
                <rect id="矩形" fill="#000000" opacity="0" x="0" y="0" width="16" height="16"></rect>
                <path d="M13.0636863,0.5 C14.1180481,0.5 14.9818514,1.31587779 15.0582005,2.35073766 L15.0636863,2.5 L15.0636863,13.5 C15.0636863,14.5543618 14.2478085,15.4181651 13.2129486,15.4945143 L13.0636863,15.5 L4.06368627,15.5 C3.00932448,15.5 2.14552115,14.6841222 2.06917201,13.6492623 L2.06368627,13.5 L2.06368627,12.0351921 C2.06368627,11.7590497 2.2875439,11.5351921 2.56368627,11.5351921 C2.80914616,11.5351921 3.01329464,11.7120673 3.0556306,11.9453165 L3.06368627,12.0351921 L3.063,13.5 L3.070414,13.6166211 C3.12373564,14.075703 3.48798328,14.4399506 3.94706515,14.4932723 L4.06368627,14.5 L13.0636863,14.5 C13.5765221,14.5 13.9991934,14.1139598 14.0569585,13.6166211 L14.0636863,13.5 L14.0636863,2.5 C14.0636863,1.98716416 13.6776461,1.56449284 13.1803074,1.50672773 L13.0636863,1.5 L4.06368627,1.5 C3.55085043,1.5 3.12817911,1.88604019 3.070414,2.38337887 L3.06368627,2.5 L3.06368627,4.02289746 C3.06368627,4.29903983 2.83982865,4.52289746 2.56368627,4.52289746 C2.31822638,4.52289746 2.1140779,4.3460223 2.07174194,4.11277309 L2.06368627,4.02289746 L2.06368627,2.5 C2.06368627,1.4456382 2.87956406,0.581834878 3.91442393,0.505485736 L4.06368627,0.5 L13.0636863,0.5 Z M8.56368627,4 C9.66825577,4 10.5636863,4.8954305 10.5636863,6 C10.5636863,6.70116151 10.2028735,7.31805067 9.65679097,7.67512443 C11.0545862,8.13332042 12.0636863,9.44881623 12.0636863,11 L12.0636863,11 L12.0636863,11.5 L5.06368627,11.5 L5.06368627,11 C5.06368627,9.44884343 6.07275098,8.13336655 7.4702682,7.67418153 C6.9244833,7.31802372 6.56368627,6.70114619 6.56368627,6 C6.56368627,4.8954305 7.45911677,4 8.56368627,4 Z M8.56368627,8.5 C7.4038883,8.5 6.42855092,9.2897697 6.14613379,10.3608495 L6.14613379,10.3608495 L6.113,10.5 L11.013,10.5 L10.9812388,10.3608495 C10.7122701,9.3407735 9.81480227,8.57585405 8.72806196,8.50531768 L8.72806196,8.50531768 Z M3.5,8.5 C3.77614237,8.5 4,8.72385763 4,9 C4,9.24545989 3.82312484,9.44960837 3.58987563,9.49194433 L3.5,9.5 L2,9.5 C1.72385763,9.5 1.5,9.27614237 1.5,9 C1.5,8.75454011 1.67687516,8.55039163 1.91012437,8.50805567 L2,8.5 L3.5,8.5 Z M3.5,6.5 C3.77614237,6.5 4,6.72385763 4,7 C4,7.24545989 3.82312484,7.44960837 3.58987563,7.49194433 L3.5,7.5 L2,7.5 C1.72385763,7.5 1.5,7.27614237 1.5,7 C1.5,6.75454011 1.67687516,6.55039163 1.91012437,6.50805567 L2,6.5 L3.5,6.5 Z M8.56368627,5 C8.01140152,5 7.56368627,5.44771525 7.56368627,6 C7.56368627,6.55228475 8.01140152,7 8.56368627,7 C9.11597102,7 9.56368627,6.55228475 9.56368627,6 C9.56368627,5.44771525 9.11597102,5 8.56368627,5 Z" id="形状结合" fill="#CCCCCC"></path>
            </g>
        </g>
    </g>
</svg>