<?xml version="1.0" encoding="UTF-8"?>
<svg width="16px" height="16px" viewBox="0 0 16 16" version="1.1" xmlns="http://www.w3.org/2000/svg" xmlns:xlink="http://www.w3.org/1999/xlink">
    <title>积分管理</title>
    <g id="结算单" stroke="none" stroke-width="1" fill="none" fill-rule="evenodd">
        <g id="画板备份" transform="translate(-20.000000, -132.000000)" fill-rule="nonzero">
            <g id="积分" transform="translate(20.000000, 132.000000)">
                <rect id="矩形" fill="#000000" opacity="0" x="0" y="0" width="16" height="16"></rect>
                <path d="M6.7433042,6.08021115 C8.37789615,6.08021115 10.0778827,5.72074563 11.0989395,5.03526277 L11.0989395,6.28308457 L12.044772,6.28308457 L12.044772,3.55098284 C12.044772,1.90847254 9.31417207,1.021618 6.74494246,1.021618 C4.17571286,1.021618 1.44347461,1.90847254 1.44347461,3.55098284 L1.44347461,11.0078785 C1.44347461,12.6503889 4.17407459,13.5372434 6.7433042,13.5372434 L6.7433042,12.5930491 C4.04465063,12.5930491 2.38766888,11.6694698 2.38766888,11.0080151 L2.38766888,8.76630457 C3.40872569,9.45014914 5.10721049,9.81125294 6.7433042,9.81125294 L6.7433042,8.86528387 C4.04465063,8.86528387 2.38766888,7.94184113 2.38766888,7.28038635 L2.38766888,5.03703758 C3.40872569,5.72074563 5.10884877,6.08021115 6.7433042,6.08021115 Z M6.7433042,1.96594879 C9.44209428,1.96594879 11.0989395,2.88952805 11.0989395,3.55098284 C11.0989395,4.21243761 9.44195776,5.13601687 6.7433042,5.13601687 C4.04465063,5.13601687 2.38766888,4.21243761 2.38766888,3.55098284 C2.38780541,2.88952807 4.04628891,1.96594879 6.7433042,1.96594879 L6.7433042,1.96594879 Z M10.9807104,6.59790701 C8.63360404,6.59790701 7.40639725,7.50073474 7.40639725,8.39223108 L7.40639725,13.1840579 C7.40639725,14.0755542 8.6351058,14.978382 10.9807104,14.978382 C13.3103419,14.978382 14.5357739,14.0883874 14.5548871,13.2031712 L14.5565254,13.2031712 L14.5565254,8.3923676 C14.5548871,7.50073476 13.3278168,6.59790701 10.9807104,6.59790701 L10.9807104,6.59790701 Z M10.9807104,7.54223781 C12.71592,7.54223781 13.6106929,8.13816146 13.6106929,8.39223108 C13.6106929,8.6463007 12.71592,9.24222436 10.9807104,9.24222436 C9.24550089,9.24222436 8.35072803,8.6463007 8.35072803,8.39223108 C8.35072803,8.13816146 9.2455009,7.54223781 10.9807104,7.54223781 L10.9807104,7.54223781 Z M10.9807104,14.0340512 C9.2455009,14.0340512 8.35072803,13.4381276 8.35072803,13.1840579 L8.35072803,12.0399937 C8.94992824,12.3660111 9.83036619,12.583356 10.9807104,12.583356 C12.1310547,12.583356 13.0098544,12.3661476 13.6106929,12.0399937 L13.6106929,13.1840579 C13.6106929,13.4381275 12.71592,14.0340512 10.9807104,14.0340512 L10.9807104,14.0340512 Z M10.9807104,11.6373869 C9.2455009,11.6373869 8.35072803,11.0413267 8.35072803,10.7873936 L8.35072803,9.64332943 C8.94992824,9.96934677 9.83036619,10.1865551 10.9807104,10.1865551 C12.1310547,10.1865551 13.0098544,9.96934677 13.6106929,9.64332943 L13.6106929,10.7873936 C13.6106929,11.0413267 12.71592,11.6373869 10.9807104,11.6373869 L10.9807104,11.6373869 Z" id="形状" fill="#CCCCCC"></path>
            </g>
        </g>
    </g>
</svg>