<?xml version="1.0" standalone="no"?><!DOCTYPE svg PUBLIC "-//W3C//DTD SVG 1.1//EN" "http://www.w3.org/Graphics/SVG/1.1/DTD/svg11.dtd"><svg t="1629787117295" class="icon" viewBox="0 0 1024 1024" version="1.1" xmlns="http://www.w3.org/2000/svg" p-id="3522" xmlns:xlink="http://www.w3.org/1999/xlink" width="128" height="128"><defs><style type="text/css"></style></defs><path d="M736 64A160 160 0 0 1 896 224v576a160 160 0 0 1-160 160h-512A160 160 0 0 1 64 800v-576A160 160 0 0 1 224 64zM226.304 128H224A96 96 0 0 0 128 224v576A96 96 0 0 0 224 896h512a96 96 0 0 0 96-96v-576A96 96 0 0 0 736 128H512v221.12a44.8 44.8 0 0 1-3.84 18.112l-2.88 5.504a44.8 44.8 0 0 1-61.696 14.464l-77.312-47.936-70.464 46.528a44.8 44.8 0 0 1-18.112 6.912l-6.528 0.512a44.8 44.8 0 0 1-44.8-44.8L226.304 128z m427.008 537.408a32 32 0 0 1 5.76 63.488l-5.76 0.512H306.688a32 32 0 0 1-5.76-63.488l5.76-0.512h346.624z m0-162.624a32 32 0 0 1 5.76 63.488l-5.76 0.512H306.688a32 32 0 0 1-5.76-63.488l5.76-0.512h346.624zM448 129.408H290.304v183.296l51.136-33.6a44.8 44.8 0 0 1 41.664-4.032l6.592 3.392 58.24 36.096V129.408z" p-id="3523"></path></svg>