<?xml version="1.0" standalone="no"?><!DOCTYPE svg PUBLIC "-//W3C//DTD SVG 1.1//EN" "http://www.w3.org/Graphics/SVG/1.1/DTD/svg11.dtd"><svg t="1629787130536" class="icon" viewBox="0 0 1024 1024" version="1.1" xmlns="http://www.w3.org/2000/svg" p-id="3948" xmlns:xlink="http://www.w3.org/1999/xlink" width="128" height="128"><defs><style type="text/css"></style></defs><path d="M784 64a128 128 0 0 1 128 128v528a128 128 0 0 1-116.672 127.488l3.776-0.384A128 128 0 0 1 672 960H256a128 128 0 0 1-128-128V304a128 128 0 0 1 109.056-126.592l3.84-0.512-0.384 3.84A128 128 0 0 1 368 64h416z m-544 177.984a64 64 0 0 0-47.552 54.528L192 304V832a64 64 0 0 0 56.512 63.552L256 896h416a64 64 0 0 0 61.952-48H368a128 128 0 0 1-128-128V241.984zM784 128h-416a64 64 0 0 0-63.552 56.512L304 192v528a64 64 0 0 0 56.512 63.552l7.488 0.448h416a64 64 0 0 0 63.552-56.512l0.448-7.488V192a64 64 0 0 0-56.512-63.552L784 128zM715.968 593.472a32 32 0 0 1 5.76 63.488l-5.76 0.512H436.096a32 32 0 0 1-5.76-63.488l5.76-0.512h280z m0-169.472a32 32 0 0 1 5.76 63.488l-5.76 0.512H436.096a32 32 0 0 1-5.76-63.488l5.76-0.512h280z m0-169.472a32 32 0 0 1 5.76 63.488l-5.76 0.512H436.096a32 32 0 0 1-5.76-63.488l5.76-0.512h280z" p-id="3949"></path></svg>