<?xml version="1.0" standalone="no"?><!DOCTYPE svg PUBLIC "-//W3C//DTD SVG 1.1//EN" "http://www.w3.org/Graphics/SVG/1.1/DTD/svg11.dtd"><svg t="1629787111603" class="icon" viewBox="0 0 1024 1024" version="1.1" xmlns="http://www.w3.org/2000/svg" p-id="3380" xmlns:xlink="http://www.w3.org/1999/xlink" width="128" height="128"><defs><style type="text/css"></style></defs><path d="M455.04 78.4a119.552 119.552 0 0 1 123.328 5.76 624.32 624.32 0 0 0 307.712 106.816c41.152 2.88 73.92 35.392 73.92 75.712v299.2c-0.512 46.592-15.488 111.552-57.088 182.272-65.92 112.064-181.504 203.392-356.992 260.672a109.632 109.632 0 0 1-67.84 0c-172.8-56.448-287.616-145.856-354.112-255.808a431.616 431.616 0 0 1-50.368-120.448A310.784 310.784 0 0 1 64 566.72V266.688c0-40.32 32.768-72.832 73.92-75.712a624.32 624.32 0 0 0 307.712-106.88z m87.424 58.752a55.424 55.424 0 0 0-60.928 0 687.232 687.232 0 0 1-339.2 117.696C133.76 255.36 128 261.12 128 266.688v299.264c0.896 38.784 14.464 93.952 50.752 153.92 58.432 96.64 160.768 176.384 319.168 228.096a45.632 45.632 0 0 0 28.16 0c160.768-52.48 263.808-133.76 321.664-232.256 35.328-60.096 47.872-114.304 48.256-150.144v-298.88c0-5.568-5.76-11.264-14.336-11.84a687.232 687.232 0 0 1-339.2-117.76zM512 315.072c75.904 0 138.688 56.512 138.688 128 0 61.12-45.888 111.36-106.624 124.608l-0.064 53.568h72.192a32 32 0 0 1 5.76 63.488l-5.76 0.512H544v64a32 32 0 0 1-63.488 5.76l-0.512-5.76V567.68c-60.8-13.248-106.688-63.424-106.688-124.608 0-71.488 62.784-128 138.688-128z m0 64c-41.92 0-74.688 29.44-74.688 64s32.768 64 74.688 64 74.688-29.44 74.688-64-32.768-64-74.688-64z" p-id="3381"></path></svg>