<?xml version="1.0" encoding="UTF-8"?>
<svg width="16px" height="16px" viewBox="0 0 16 16" version="1.1" xmlns="http://www.w3.org/2000/svg" xmlns:xlink="http://www.w3.org/1999/xlink">
    <title>编组 15</title>
    <g id="流向管理" stroke="none" stroke-width="1" fill="none" fill-rule="evenodd">
        <g id="流向管理-药品流向-一级" transform="translate(-19.000000, -434.000000)" stroke="#FFFFFF">
            <g id="编组-17" transform="translate(0.000000, 63.000000)">
                <g id="编组-19" transform="translate(0.000000, 359.410284)">
                    <g id="编组-15" transform="translate(19.000000, 11.589716)">
                        <g id="编组-14" transform="translate(7.858333, 8.433725) scale(-1, 1) translate(-7.858333, -8.433725) translate(3.858333, 5.933725)" stroke-linecap="round">
                            <path d="M5.35093042,4.82381769 L1.19711428,4.82381769 C0.535966319,4.82381769 8.09672734e-17,4.28785137 0,3.62670341 C-8.09672734e-17,2.96555545 0.535966319,2.42958913 1.19711428,2.42958913 L5.35093042,2.42958913 L5.35093042,2.42958913" id="路径"></path>
                            <path d="M7.20414696,2.42857866 L3.05033082,2.42857866 C2.38918286,2.42857866 1.85321654,1.89261234 1.85321654,1.23146438 C1.85321654,0.570316422 2.38918286,0.0343501027 3.05033082,0.0343501027 L7.20414696,0.0343501027 L7.20414696,0.0343501027" id="路径备份" transform="translate(4.528682, 1.231464) scale(-1, 1) translate(-4.528682, -1.231464) "></path>
                        </g>
                        <rect id="矩形" x="1.625" y="2.91028442" width="13" height="11" rx="2"></rect>
                        <polyline id="路径-14" stroke-linecap="round" stroke-linejoin="round" points="9.7081155 5.17583696 10.3231284 6.12019738 9.61373698 6.795125"></polyline>
                    </g>
                </g>
            </g>
        </g>
    </g>
</svg>