<?xml version="1.0" standalone="no"?><!DOCTYPE svg PUBLIC "-//W3C//DTD SVG 1.1//EN" "http://www.w3.org/Graphics/SVG/1.1/DTD/svg11.dtd"><svg t="1629787041937" class="icon" viewBox="0 0 1024 1024" version="1.1" xmlns="http://www.w3.org/2000/svg" p-id="2244" xmlns:xlink="http://www.w3.org/1999/xlink" width="128" height="128"><defs><style type="text/css"></style></defs><path d="M499.2 64c32.64 0 63.296 12.8 85.76 35.328l403.2 403.2c22.592 22.592 35.84 53.76 35.84 86.272 0 32.896-13.056 63.68-35.84 85.76l-313.28 313.344c-22.4 23.04-53.184 36.096-86.08 36.096-32.64 0-63.296-12.8-85.76-35.328l-403.2-403.2A121.408 121.408 0 0 1 64 499.2V185.6C64 118.656 118.656 64 185.6 64z m0 64H185.6c-31.616 0-57.6 25.984-57.6 57.6v313.6c0 15.616 6.08 30.016 17.088 40.96l403.2 403.2c10.56 10.624 24.96 16.64 40.512 16.64a55.872 55.872 0 0 0 40.512-17.088l313.92-313.856A55.616 55.616 0 0 0 960 588.8c0-15.36-6.4-30.272-17.088-40.96l-403.2-403.2A57.024 57.024 0 0 0 499.2 128zM281.984 194.56a74.688 74.688 0 1 1 0 149.376 74.688 74.688 0 0 1 0-149.376z" p-id="2245"></path></svg>