<?xml version="1.0" standalone="no"?><!DOCTYPE svg PUBLIC "-//W3C//DTD SVG 1.1//EN" "http://www.w3.org/Graphics/SVG/1.1/DTD/svg11.dtd"><svg t="1629787103273" class="icon" viewBox="0 0 1024 1024" version="1.1" xmlns="http://www.w3.org/2000/svg" p-id="3096" xmlns:xlink="http://www.w3.org/1999/xlink" width="128" height="128"><defs><style type="text/css"></style></defs><path d="M547.264 64a449.984 449.984 0 1 1-393.92 667.712 30.016 30.016 0 1 1 52.48-29.056 390.016 390.016 0 1 0-42.048-259.84l27.136-27.2a30.016 30.016 0 0 1 38.272-3.456l4.16 3.456c10.432 10.432 11.52 26.56 3.456 38.272l-3.456 4.16L148.48 542.912a30.016 30.016 0 0 1-38.272 3.456l-4.16-3.456L21.184 458.048A30.016 30.016 0 0 1 59.52 412.16l4.16 3.456 37.76 37.76A450.112 450.112 0 0 1 547.2 64z m137.152 286.336a32 32 0 0 1 0.64 40.96l-4.032 4.16-45.44 39.04h61.696a32 32 0 0 1 5.76 63.552l-5.76 0.512H581.248v38.912h116.032a32 32 0 0 1 5.76 63.488l-5.76 0.576H581.248v67.712a32 32 0 0 1-63.488 5.76l-0.512-5.76V601.472H401.28a32 32 0 0 1-5.76-63.424l5.76-0.512h115.968v-39.04H401.28a32 32 0 0 1-5.76-63.424l5.76-0.512h61.632l-45.44-39.04a32 32 0 0 1 37.056-51.904l4.672 3.328 90.048 77.44 90.048-77.44a32 32 0 0 1 45.12 3.392z" p-id="3097"></path></svg>