<?xml version="1.0" encoding="UTF-8"?>
<svg width="24px" height="24px" viewBox="0 0 24 24" version="1.1" xmlns="http://www.w3.org/2000/svg" xmlns:xlink="http://www.w3.org/1999/xlink">
    <title>编组 29</title>
    <g id="采购订单" stroke="none" stroke-width="1" fill="none" fill-rule="evenodd">
        <g transform="translate(-255.000000, -130.000000)" id="编组-27">
            <g transform="translate(255.000000, 130.000000)" id="编组-29">
                <circle id="椭圆形" fill="#FEECEC" cx="12" cy="12" r="12"></circle>
                <g id="订单" transform="translate(4.000000, 4.000000)" fill-rule="nonzero">
                    <rect id="矩形" fill="#000000" opacity="0" x="0" y="0" width="16" height="16"></rect>
                    <path d="M4.66666667,2 C4.66666667,1.26362034 5.26362034,0.666666672 6,0.666666672 L10,0.666666672 C10.353622,0.666666672 10.6927605,0.807142458 10.942809,1.05719096 C11.1928575,1.30723947 11.3333333,1.64637801 11.3333333,2 L13.3333333,2 C13.6869553,2 14.0260939,2.14047578 14.2761424,2.39052428 C14.5261909,2.64057279 14.6666667,2.97971134 14.6666667,3.33333333 L14.6666667,14 C14.6666667,14.353622 14.5261909,14.6927605 14.2761424,14.942809 C14.0260939,15.1928575 13.6869553,15.3333333 13.3333333,15.3333333 L2.66666667,15.3333333 C2.31304468,15.3333333 1.97390613,15.1928575 1.72385762,14.942809 C1.47380912,14.6927605 1.33333333,14.353622 1.33333333,14 L1.33333333,3.33333333 C1.33333333,2.97971134 1.47380912,2.64057279 1.72385762,2.39052428 C1.97390613,2.14047578 2.31304468,2 2.66666667,2 L4.66666667,2 Z M4,6.66666667 C3.63185003,6.66672303 3.33343539,6.96518336 3.33343539,7.33333334 C3.33343539,7.70148331 3.63185003,7.99994364 4,8 L9.33333333,8 C9.7014833,7.99994364 9.99989794,7.70148331 9.99989794,7.33333334 C9.99989794,6.96518336 9.7014833,6.66672303 9.33333333,6.66666667 L4,6.66666667 L4,6.66666667 Z M4,9.33333333 C3.63181017,9.33333333 3.33333336,9.63181017 3.33333336,10 C3.33333336,10.3681898 3.63181017,10.6666667 4,10.6666667 L10.6666667,10.6666667 C11.0348565,10.6666667 11.3333334,10.3681898 11.3333334,10 C11.3333334,9.63181017 11.0348565,9.33333333 10.6666667,9.33333333 L4,9.33333333 Z" id="形状" fill="#F94646"></path>
                </g>
            </g>
        </g>
    </g>
</svg>