<?xml version="1.0" encoding="UTF-8"?>
<svg width="24px" height="24px" viewBox="0 0 24 24" version="1.1" xmlns="http://www.w3.org/2000/svg" xmlns:xlink="http://www.w3.org/1999/xlink">
    <title>编组 28</title>
    <g id="商家后台" stroke="none" stroke-width="1" fill="none" fill-rule="evenodd">
        <g id="商家后台-财务管理--药_险结算中心-药品结算账单-已结算打款" transform="translate(-875.000000, -131.000000)">
            <g id="编组" transform="translate(198.000000, 116.000000)">
                <g id="编组-17" transform="translate(677.000000, 15.000000)">
                    <circle id="椭圆形" fill="#FFF4E9" cx="12" cy="12" r="12"></circle>
                    <g id="订单" transform="translate(5.000000, 4.000000)" fill="#000000" fill-rule="nonzero" opacity="0">
                        <rect id="矩形" x="0" y="0" width="16" height="16"></rect>
                    </g>
                    <g id="数据库,数据" transform="translate(5.000000, 5.000000)" fill="#FF9629" fill-rule="nonzero">
                        <path d="M13.125,1.69137611 C11.9314453,0.682293193 9.6359375,0 7,0 C4.3640625,0 2.06855469,0.682293193 0.875,1.69137611 C0.3171875,2.16310187 0,2.70456099 0,3.28157047 L0,8.28459811 C0,8.29416935 0,8.3037406 0.0013671875,8.31194453 L0,8.31194453 L0,10.7184295 C0,12.5301299 3.13359375,14 7,14 C10.8664062,14 14,12.5301299 14,10.7184295 L14,8.31331185 L13.9986328,8.31331185 C14,8.28870007 14,8.26545561 14,8.24084383 L14,3.28157047 C14,2.70456099 13.6828125,2.16310187 13.125,1.69137611 Z M0.875,4.87176482 C2.06855469,5.88084774 4.3640625,6.56314093 7,6.56314093 C9.6359375,6.56314093 11.9314453,5.88084774 13.125,4.87176482 L13.125,5.95468307 C12.8802734,6.11192499 12.6123047,6.25822834 12.3210937,6.39496045 C10.8855469,7.06768239 8.99609375,7.43822639 7,7.43822639 C5.00390625,7.43822639 3.11445312,7.06768239 1.67890625,6.39359312 C1.38769531,6.25686102 1.11972656,6.11055767 0.875,5.95331575 L0.875,4.87176482 L0.875,4.87176482 Z M0.875,7.35071784 C2.06855469,8.35980076 4.3640625,9.04209395 7,9.04209395 C9.6359375,9.04209395 11.9314453,8.35980076 13.125,7.35071784 L13.125,8.4336361 C12.8802734,8.58951069 12.6123047,8.73718137 12.3210937,8.87391347 C10.8855469,9.54663541 8.99472656,9.91717941 7,9.91717941 C5.00527344,9.91717941 3.11445312,9.54663541 1.67890625,8.87391347 C1.38769531,8.73718137 1.11972656,8.59087802 0.875,8.4336361 L0.875,7.35071784 Z M12.3210937,11.3528665 C10.8855469,12.0255884 8.99472656,12.3961324 7,12.3961324 C5.00527344,12.3961324 3.11445312,12.0255884 1.67890625,11.3528665 C1.40136719,11.222971 1.14433594,11.0821369 0.9078125,10.9344663 C0.8859375,10.8619982 0.875,10.7908975 0.875,10.7197969 L0.875,9.83103819 C2.06855469,10.8401211 4.3640625,11.5224143 7,11.5224143 C9.6359375,11.5224143 11.9314453,10.8387538 13.125,9.83103819 L13.125,10.7197969 C13.125,10.7895302 13.1140625,10.8619982 13.0921875,10.9344663 C12.8556641,11.0835042 12.5986328,11.222971 12.3210937,11.3528665 Z" id="形状"></path>
                    </g>
                </g>
            </g>
        </g>
    </g>
</svg>