<?xml version="1.0" encoding="UTF-8"?>
<svg width="24px" height="24px" viewBox="0 0 24 24" version="1.1" xmlns="http://www.w3.org/2000/svg" xmlns:xlink="http://www.w3.org/1999/xlink">
    <title>编组 28</title>
    <g id="采购订单" stroke="none" stroke-width="1" fill="none" fill-rule="evenodd">
        <g id="采购订单-退货单" transform="translate(-717.000000, -130.000000)">
            <g id="编组-27备份" transform="translate(717.000000, 130.000000)">
                <circle id="椭圆形" fill="#EAF9F3" cx="12" cy="12" r="12"></circle>
                <g id="订单" transform="translate(4.000000, 4.000000)" fill-rule="nonzero">
                    <rect id="矩形" fill="#000000" opacity="0" x="0" y="0" width="16" height="16"></rect>
                    <path d="M9.94825964,2.81467545 L5.23706491,2.81467545 L5.23706491,0.933207906 L6.18532455,0.933207906 C6.18532455,0.672311073 6.27563499,0.451552214 6.45625588,0.270931328 C6.63687676,0.0903104427 6.85763562,-1.08357767e-13 7.11853245,-1.08357767e-13 L8.06679209,-1.08357767e-13 C8.32768893,-1.08357767e-13 8.54844779,0.0903104427 8.72906867,0.270931328 C8.90968956,0.451552214 9,0.672311073 9,0.933207906 L9.94825964,0.933207906 L9.94825964,2.81467545 Z M7.60018814,1.97177798 C7.76074004,1.97177798 7.89871432,1.91407965 8.014111,1.79868297 C8.12950768,1.68328629 8.18720602,1.54531201 8.18720602,1.38476011 C8.18720602,1.21417371 8.12950768,1.0736908 8.014111,0.963311375 C7.89871432,0.852931948 7.76074004,0.797742234 7.60018814,0.797742234 C7.42960174,0.797742234 7.28911883,0.852931948 7.17873941,0.963311375 C7.06835998,1.0736908 7.01317027,1.21417371 7.01317027,1.38476011 C7.01317027,1.54531201 7.06835998,1.68328629 7.17873941,1.79868297 C7.28911883,1.91407965 7.42960174,1.97177798 7.60018814,1.97177798 Z M11.378175,9.37723425 C11.8297272,9.37723425 12.2561932,9.46503607 12.6575729,9.6406397 C13.0589527,9.81624334 13.4101599,10.0545626 13.7111947,10.3555974 C14.0122295,10.6566322 14.2505488,11.0078395 14.4261524,11.4092192 C14.6017561,11.8105989 14.6895579,12.2370649 14.6895579,12.6886171 C14.6895579,13.1502038 14.601756,13.5816871 14.4261524,13.9830668 C14.2505488,14.3844466 14.0122295,14.7356538 13.7111947,15.0366886 C13.4101599,15.3377235 13.0589526,15.5735341 12.6575729,15.7441204 C12.2561932,15.9147068 11.8297272,16 11.378175,16 C10.9165883,16 10.485105,15.9147068 10.0837253,15.7441204 C9.68234556,15.573534 9.33113828,15.3377234 9.03010347,15.0366886 C8.72906866,14.7356538 8.49074943,14.3844466 8.3151458,13.9830668 C8.13954216,13.5816871 8.05174034,13.1502038 8.05174034,12.6886171 C8.05174034,12.2370649 8.13954216,11.810599 8.3151458,11.4092192 C8.49074943,11.0078395 8.72906866,10.6566322 9.03010347,10.3555974 C9.33113828,10.0545626 9.68234556,9.81624335 10.0837253,9.6406397 C10.485105,9.46503606 10.9165883,9.37723425 11.378175,9.37723425 Z M13.4252117,12.402634 C13.4854186,12.3323926 13.5406083,12.2470994 13.5907808,12.1467545 C13.6409533,12.0464095 13.6259015,11.9560991 13.5456256,11.8758231 C13.5255566,11.8557541 13.4778928,11.8055817 13.4026341,11.7253057 C13.3273754,11.6450298 13.2797115,11.5998746 13.2596425,11.5898401 C13.1592976,11.5195986 13.0639699,11.5095641 12.9736595,11.5597366 C12.883349,11.609909 12.7930386,11.6801505 12.7027281,11.7704609 C12.4719348,12.0012543 12.2436501,12.2270304 12.017874,12.4477892 C11.7920978,12.6685481 11.5788649,12.8792725 11.378175,13.0799623 C11.3079335,13.1502038 11.2301662,13.1928504 11.144873,13.2079021 C11.0595798,13.2229539 10.991847,13.195359 10.9416745,13.1251176 C10.911571,13.0950141 10.8639072,13.0448416 10.798683,12.9746002 C10.7334588,12.9043587 10.6657259,12.8291 10.5954845,12.748824 C10.525243,12.6685481 10.4575102,12.5907808 10.392286,12.5155221 C10.3270618,12.4402634 10.2793979,12.3875823 10.2492945,12.3574788 C10.1890875,12.3073063 10.1213547,12.2746942 10.046096,12.2596425 C9.97083724,12.2445907 9.89306992,12.2721856 9.81279398,12.3424271 C9.80275949,12.3524616 9.77767326,12.3750392 9.73753528,12.4101599 C9.6973973,12.4452806 9.65725933,12.4854186 9.61712136,12.5305738 C9.57698339,12.575729 9.53684542,12.615867 9.49670744,12.6509877 C9.45656946,12.6861085 9.43148322,12.7086861 9.42144873,12.7187206 C9.27093133,12.8792725 9.29100032,13.0649106 9.4816557,13.275635 C9.54186266,13.3458764 9.62213861,13.4336782 9.72248355,13.5390404 C9.82282848,13.6444026 9.92819067,13.7572906 10.0385701,13.8777046 C10.1489495,13.9981185 10.2593289,14.1160238 10.3697084,14.2314205 C10.4800878,14.3468171 10.5754155,14.4396362 10.6556914,14.5098777 C10.7359674,14.5901536 10.8463468,14.627783 10.9868297,14.6227657 C11.1273126,14.6177485 11.2326748,14.5751019 11.3029163,14.4948259 C11.4433992,14.3643775 11.6039511,14.2063342 11.784572,14.0206961 C11.9651928,13.8350579 12.1533396,13.6469112 12.3490122,13.4562558 C12.5446848,13.2656004 12.7353402,13.0774537 12.9209784,12.8918155 C13.1066165,12.7061774 13.2746943,12.5431169 13.4252117,12.402634 L13.4252117,12.402634 Z M7.07337723,12.2370649 C7.07337723,12.3073064 7.07086861,12.3775478 7.06585136,12.4477893 C7.06083411,12.5180307 7.05832548,12.5932894 7.05832548,12.6735654 C7.05832548,13.1251176 7.12354969,13.5540922 7.25399811,13.9604892 C7.38444653,14.3668862 7.57008466,14.740671 7.8109125,15.0818438 L3.41580431,15.0818438 C3.22514894,15.0818438 3.0169332,15.0266541 2.79115709,14.9162747 C2.56538099,14.8058953 2.35465663,14.6603951 2.158984,14.4797742 C1.96331138,14.2991533 1.80025085,14.0934462 1.66980244,13.8626529 C1.53935402,13.6318595 1.47412981,13.3910317 1.47412981,13.1401693 L1.47412981,3.82314205 C1.47412981,3.61241768 1.52430228,3.39416745 1.62464722,3.16839134 C1.72499216,2.94261524 1.85544057,2.7343995 2.01599247,2.54374412 C2.17654436,2.35308875 2.36218249,2.19504547 2.57290686,2.0696143 C2.78363122,1.94418312 3.00439008,1.88146755 3.23518344,1.88146755 L4.303857,1.88146755 L4.303857,3.76293509 L10.8814675,3.76293509 L10.8814675,1.88146755 L11.8146754,1.88146755 C12.0454688,1.88146755 12.2737535,1.93164002 12.4995296,2.03198495 C12.7253057,2.13232989 12.9285042,2.26779555 13.1091251,2.43838194 C13.289746,2.60896832 13.4377548,2.81467544 13.5531515,3.0555033 C13.6685481,3.29633115 13.7262465,3.55221074 13.7262465,3.82314206 L13.7262465,9.15145816 C13.3750392,8.9206648 12.9987457,8.74004392 12.5973659,8.6095955 C12.1959862,8.47914708 11.7695202,8.41392287 11.317968,8.41392287 L11.2126058,8.41392287 C11.3932267,8.34368142 11.5412355,8.22828474 11.6566322,8.06773284 C11.7720288,7.90718095 11.8297272,7.72656006 11.8297272,7.52587019 C11.8297272,7.26497335 11.7369081,7.04421449 11.55127,6.86359361 C11.3656318,6.68297272 11.1423643,6.59266228 10.8814675,6.59266228 L4.30385698,6.59266228 C4.04296015,6.59266228 3.81969267,6.68297272 3.63405453,6.86359361 C3.4484164,7.04421449 3.35559733,7.26497335 3.35559733,7.52587019 C3.35559733,7.78676702 3.4484164,8.01003451 3.63405453,8.19567264 C3.81969267,8.38131078 4.04296015,8.47412984 4.30385698,8.47412984 L10.6105362,8.47412984 C10.0084666,8.57447478 9.46158667,8.78770777 8.96989648,9.11382881 C8.4782063,9.43994985 8.07180931,9.85387271 7.75070552,10.3555974 L4.30385697,10.3555974 C4.04296014,10.3555974 3.81969265,10.4459078 3.63405452,10.6265287 C3.44841638,10.8071496 3.35559731,11.0279085 3.35559731,11.2888053 C3.35559731,11.5497021 3.44841638,11.7729696 3.63405452,11.9586077 C3.81969265,12.1442459 4.04296014,12.237065 4.30385697,12.237065 L7.07337719,12.237065 L7.07337723,12.2370649 Z" id="形状" fill="#31C78A"></path>
                </g>
            </g>
        </g>
    </g>
</svg>