<?xml version="1.0" encoding="UTF-8"?>
<svg width="16px" height="16px" viewBox="0 0 16 16" version="1.1" xmlns="http://www.w3.org/2000/svg" xmlns:xlink="http://www.w3.org/1999/xlink">
    <title>编组 42</title>
    <g id="销售订单" stroke="none" stroke-width="1" fill="none" fill-rule="evenodd">
        <g id="编组-42" fill="#C7C7C7" fill-rule="nonzero">
            <path d="M9.94915082,1.0704394 C9.98283202,1.17198429 10,1.27827614 10,1.38526113 L10,4.13753068 C10.2342439,4.13753068 10.4610546,4.21976224 10.6408715,4.36988251 L14.6408715,7.70928478 C14.8684537,7.89928192 15,8.18046611 15,8.47693295 L15,14.99999 L15.5,15 C15.7761424,15 16,15.2238576 16,15.5 C16,15.7761424 15.7761424,16 15.5,16 L0.5,16 C0.223857625,16 3.38176876e-17,15.7761424 0,15.5 C-3.38176876e-17,15.2238576 0.223857625,15 0.5,15 L1,14.99999 L1,3.70707567 C1,3.27609982 1.27611718,2.89360542 1.68517826,2.75792485 L8.68517826,0.436110318 C9.20937978,0.262239073 9.77527957,0.546237875 9.94915082,1.0704394 Z M9,1.38526113 L2,3.70707567 L2,15 L9,15 L9,1.38526113 Z M10,5.138 L10,15 L14,15 L14,8.47693295 L10,5.138 Z M7,12 C7.27614237,12 7.5,12.2238576 7.5,12.5 C7.5,12.7761424 7.27614237,13 7,13 L4,13 C3.72385763,13 3.5,12.7761424 3.5,12.5 C3.5,12.2238576 3.72385763,12 4,12 L7,12 Z M12.5,11 C12.7761424,11 13,11.2238576 13,11.5 C13,11.7761424 12.7761424,12 12.5,12 L11.5,12 C11.2238576,12 11,11.7761424 11,11.5 C11,11.2238576 11.2238576,11 11.5,11 Z M7,9 C7.27614237,9 7.5,9.22385763 7.5,9.5 C7.5,9.77614237 7.27614237,10 7,10 L4,10 C3.72385763,10 3.5,9.77614237 3.5,9.5 C3.5,9.22385763 3.72385763,9 4,9 L7,9 Z M7,6 C7.27614237,6 7.5,6.22385763 7.5,6.5 C7.5,6.77614237 7.27614237,7 7,7 L4,7 C3.72385763,7 3.5,6.77614237 3.5,6.5 C3.5,6.22385763 3.72385763,6 4,6 L7,6 Z" id="形状结合"></path>
        </g>
    </g>
</svg>