<?xml version="1.0" encoding="UTF-8"?>
<svg width="24px" height="24px" viewBox="0 0 24 24" version="1.1" xmlns="http://www.w3.org/2000/svg" xmlns:xlink="http://www.w3.org/1999/xlink">
    <title>编组 28</title>
    <g id="商家后台" stroke="none" stroke-width="1" fill="none" fill-rule="evenodd">
        <g id="商家后台-财务管理--药_险结算中心-药品结算账单-已结算打款" transform="translate(-260.000000, -132.000000)">
            <g id="编组" transform="translate(198.000000, 116.000000)">
                <g id="编组-28" transform="translate(62.000000, 16.000000)">
                    <g id="编组-27备份" fill="#E7F1FF">
                        <circle id="椭圆形" cx="12" cy="12" r="12"></circle>
                    </g>
                    <g id="金币" transform="translate(5.000000, 5.000000)" fill="#137AFF" fill-rule="nonzero">
                        <path d="M7,14 L7,14 C3.13400391,14 0,10.8659961 0,7 C0,3.13400391 3.13400391,0 7,0 C10.8659961,0 14,3.13400391 14,7 L14,7 C14,10.8659961 10.8659961,14 7,14 C7,14 7,14 7,14 L7,14 Z M6.20000011,6.03666602 L4.1999962,6.03666602 L4.1999962,7.43666602 L6.25665636,7.43666602 L6.25665636,8.4366666 L4.1999962,8.4366666 L4.1999962,9.8366666 L6.25665636,9.8366666 L6.25665636,11.8066607 L7.6666505,11.8066607 L7.6666505,9.8433248 L9.81664855,9.8433248 L9.81664855,8.4433248 L7.6666505,8.4433248 L7.6666505,7.44332422 L9.81664855,7.44332422 L9.81664855,6.04332422 L7.78331261,6.04332422 L10.2366485,3.49998633 L9.23664796,2.52665273 L7.00331984,4.85999063 L4.76665519,2.52665273 L3.76665519,3.49998633 L6.22332706,6.04664648 L6.20000011,6.03666602 Z" id="形状"></path>
                    </g>
                </g>
            </g>
        </g>
    </g>
</svg>