<?xml version="1.0" encoding="UTF-8"?>
<svg width="24px" height="24px" viewBox="0 0 24 24" version="1.1" xmlns="http://www.w3.org/2000/svg" xmlns:xlink="http://www.w3.org/1999/xlink">
    <title>编组 29</title>
    <defs>
        <filter color-interpolation-filters="auto" id="filter-1">
            <feColorMatrix in="SourceGraphic" type="matrix" values="0 0 0 0 0.976471 0 0 0 0 0.274510 0 0 0 0 0.274510 0 0 0 1.000000 0"></feColorMatrix>
        </filter>
    </defs>
    <g id="发票管理" stroke="none" stroke-width="1" fill="none" fill-rule="evenodd">
        <g id="发票管理--申请发票页面/否备份" transform="translate(-525.000000, -177.000000)">
            <g id="编组-36" transform="translate(239.000000, 172.000000)">
                <g id="编组-29" transform="translate(286.000000, 5.000000)">
                    <circle id="椭圆形" fill="#FEECEC" cx="12" cy="12" r="12"></circle>
                    <g filter="url(#filter-1)" id="银行卡">
                        <g transform="translate(4.000000, 4.000000)">
                            <rect id="矩形" fill="#000000" fill-rule="nonzero" opacity="0" x="0" y="0" width="16" height="16"></rect>
                            <path d="M15.003125,5.1203125 L15.003125,3.921875 C15.003125,3.334375 14.528125,2.859375 13.940625,2.859375 L2.0625,2.859375 C1.475,2.859375 1,3.334375 1,3.921875 L1,5.1203125 C1,5.2234375 1.084375,5.3078125 1.1875,5.3078125 L14.815625,5.3078125 C14.91875,5.3078125 15.003125,5.2234375 15.003125,5.1203125 Z M14.815625,6.3015625 L1.1875,6.3015625 C1.084375,6.3015625 1,6.3859375 1,6.4890625 L1,12.5875 C1,13.175 1.475,13.65 2.0625,13.65 L13.940625,13.65 C14.528125,13.65 15.003125,13.175 15.003125,12.5875 L15.003125,6.4890625 C15.003125,6.3859375 14.91875,6.3015625 14.815625,6.3015625 Z M7.9984375,10.21875 L7.7125,11.840625 C7.696875,11.9296875 7.61875,11.9953125 7.528125,11.9953125 L6.909375,11.9953125 C6.7921875,11.9953125 6.7046875,11.890625 6.725,11.775 L7.0109375,10.153125 C7.0265625,10.0640625 7.1046875,9.9984375 7.1953125,9.9984375 L7.8140625,9.9984375 C7.93125,10 8.01875,10.1046875 7.9984375,10.21875 Z M10,10.21875 L9.7140625,11.840625 C9.6984375,11.9296875 9.6203125,11.9953125 9.5296875,11.9953125 L8.9109375,11.9953125 C8.79375,11.9953125 8.70625,11.890625 8.7265625,11.775 L9.0125,10.153125 C9.028125,10.0640625 9.10625,9.9984375 9.196875,9.9984375 L9.815625,9.9984375 C9.9328125,10 10.0203125,10.1046875 10,10.21875 Z M13,10.21875 L12.7140625,11.840625 C12.6984375,11.9296875 12.6203125,11.9953125 12.5296875,11.9953125 L10.9125,11.9953125 C10.7953125,11.9953125 10.7078125,11.890625 10.728125,11.775 L11.0140625,10.153125 C11.0296875,10.0640625 11.1078125,9.9984375 11.1984375,9.9984375 L12.815625,9.9984375 C12.93125,10 13.0203125,10.1046875 13,10.21875 L13,10.21875 Z" id="形状" fill="#000000" fill-rule="nonzero"></path>
                        </g>
                    </g>
                </g>
            </g>
        </g>
    </g>
</svg>