<?xml version="1.0" encoding="UTF-8"?>
<svg width="24px" height="24px" viewBox="0 0 24 24" version="1.1" xmlns="http://www.w3.org/2000/svg" xmlns:xlink="http://www.w3.org/1999/xlink">
    <title>编组 28</title>
    <defs>
        <filter color-interpolation-filters="auto" id="filter-1">
            <feColorMatrix in="SourceGraphic" type="matrix" values="0 0 0 0 0.074510 0 0 0 0 0.478431 0 0 0 0 1.000000 0 0 0 1.000000 0"></feColorMatrix>
        </filter>
    </defs>
    <g id="发票管理" stroke="none" stroke-width="1" fill="none" fill-rule="evenodd">
        <g id="发票管理--申请发票页面/否备份" transform="translate(-239.000000, -177.000000)">
            <g id="编组-36" transform="translate(239.000000, 172.000000)">
                <g id="编组-28" transform="translate(0.000000, 5.000000)">
                    <g id="编组-27备份" fill="#E7F1FF">
                        <circle id="椭圆形" cx="12" cy="12" r="12"></circle>
                    </g>
                    <g filter="url(#filter-1)" id="发票管理">
                        <g transform="translate(4.000000, 4.000000)">
                            <rect id="矩形" fill="#000000" fill-rule="nonzero" opacity="0" x="0" y="0" width="15.9999485" height="15.9999485"></rect>
                            <path d="M11.90525,2 C12.23375,2 12.5,2.26775 12.5,2.60225 L12.5,7.562 C10.7746608,6.80613028 8.75633989,7.44744926 7.78374865,9.06058303 C6.8111574,10.6737168 7.18614938,12.7580129 8.66,13.931 C8.45088304,14.0234919 8.20757787,13.9910512 8.03,13.847 L7.175,13.166 L6.40925,13.847 C6.3000327,13.9422207 6.15964013,13.9940005 6.01475,13.9925 C5.87128254,13.9938446 5.73228615,13.9426213 5.624,13.8485 L4.85975,13.1675 L4.0865,13.8545 C3.97726149,13.9491853 3.83730986,14.0009008 3.69275,14.0000428 C3.54898873,14.001739 3.40962129,13.9504775 3.30125,13.856 L2.40425,13.058 C2.37629621,13.0337832 2.35159135,13.0060533 2.33075,12.9755 C2.1264801,12.8298004 2.00368702,12.5956304 2,12.34475 L2,2.60225 C2,2.27 2.27,2 2.59475,2 L11.90525,2 Z M11,8 C12.6568542,8 14,9.34314575 14,11 C14,12.6568542 12.6568542,14 11,14 C9.34314575,14 8,12.6568542 8,11 C8,9.34314575 9.34314575,8 11,8 Z M12.06125,9.46700001 L11.144,10.3805 L10.2275,9.46775 C10.1295338,9.37050828 9.9714662,9.37050828 9.87349999,9.46775 C9.82632077,9.51426241 9.79975898,9.57774833 9.79975898,9.644 C9.79975898,9.71025167 9.82632077,9.77373759 9.87349999,9.82025001 L10.52,10.463 L9.9155,10.463 C9.78348778,10.4702533 9.68016043,10.5794137 9.68016043,10.711625 C9.68016043,10.8438363 9.78348778,10.9529967 9.9155,10.96025 L10.91525,10.96025 L10.91525,11.4575 L9.91475,11.4575 C9.7772311,11.4575 9.66575,11.5689811 9.66575,11.7065 C9.66575,11.8440189 9.7772311,11.9555 9.91475,11.9555 L10.91525,11.9555 L10.91525,12.53525 C10.91525,12.6733902 11.0272348,12.785375 11.165375,12.785375 C11.3035152,12.785375 11.4155,12.6733902 11.4155,12.53525 L11.4155,11.9555 L12.41525,11.9555 C12.5527689,11.9555 12.66425,11.8440189 12.66425,11.7065 C12.66425,11.5689811 12.5527689,11.4575 12.41525,11.4575 L11.4155,11.4575 L11.4155,10.9595 L12.41525,10.9595 C12.5085477,10.9667577 12.5980371,10.9210925 12.6469082,10.8412881 C12.6957793,10.7614836 12.6957793,10.6610164 12.6469082,10.5812119 C12.5980371,10.5014075 12.5085477,10.4557423 12.41525,10.463 L11.76875,10.463 L12.41375,9.8195 C12.4609292,9.77298758 12.487491,9.70950167 12.487491,9.64325 C12.487491,9.57699833 12.4609292,9.51351242 12.41375,9.46700001 C12.3159621,9.37074673 12.1590379,9.37074673 12.06125,9.46700001 Z M5.61125,9.1055 L3.48875,9.1055 C3.32749728,9.10755889 3.19833284,9.23974275 3.19998404,9.401 C3.19998404,9.56 3.329,9.69725 3.48875,9.69725 L5.61125,9.69725 C5.68882786,9.69626179 5.76283502,9.66449309 5.81698751,9.60893404 C5.87114001,9.55337499 5.90100096,9.4785777 5.90002438,9.401 C5.90002438,9.24039996 5.77180814,9.10916852 5.61125,9.1055 Z M6.2075,6.73699588 L3.4925,6.73699588 C3.41414392,6.73658332 3.33893093,6.76778391 3.28387807,6.82354258 C3.2288252,6.87930126 3.19858523,6.95490559 3.2,7.03325 C3.2,7.19149999 3.33125,7.32875 3.4925,7.32875 L6.2075,7.32875 C6.37475,7.32875 6.5,7.19675 6.5,7.03325 C6.49920985,6.8714198 6.36930701,6.73985154 6.2075,6.73699588 Z M7.40450001,4.07224613 L3.49549999,4.07224613 C3.41687527,4.07184654 3.34136494,4.10295316 3.28583865,4.15862039 C3.23031235,4.21428762 3.19939724,4.28987655 3.19999135,4.3685 C3.19999135,4.5275 3.332,4.66475 3.49549999,4.66475 L7.40450001,4.66475 C7.5695,4.66475 7.69999135,4.53199999 7.69999135,4.3685 C7.6987809,4.20568504 7.56731135,4.07388181 7.40450001,4.07224613 Z" id="形状结合" fill="#666666" fill-rule="nonzero"></path>
                        </g>
                    </g>
                </g>
            </g>
        </g>
    </g>
</svg>