<?xml version="1.0" encoding="UTF-8"?>
<svg width="24px" height="24px" viewBox="0 0 24 24" version="1.1" xmlns="http://www.w3.org/2000/svg" xmlns:xlink="http://www.w3.org/1999/xlink">
    <title>编组 28</title>
    <defs>
        <filter color-interpolation-filters="auto" id="filter-1">
            <feColorMatrix in="SourceGraphic" type="matrix" values="0 0 0 0 0.976471 0 0 0 0 0.274510 0 0 0 0 0.274510 0 0 0 1.000000 0"></feColorMatrix>
        </filter>
    </defs>
    <g id="发票管理" stroke="none" stroke-width="1" fill="none" fill-rule="evenodd">
        <g id="发票管理--申请发票页面/否备份" transform="translate(-964.000000, -177.000000)">
            <g id="编组-36" transform="translate(239.000000, 172.000000)">
                <g id="编组-17" transform="translate(725.000000, 5.000000)">
                    <circle id="椭圆形" fill="#FEECEC" cx="12" cy="12" r="12"></circle>
                    <g filter="url(#filter-1)" id="券">
                        <g transform="translate(4.000000, 4.000000)">
                            <rect id="矩形" fill="#000000" fill-rule="nonzero" opacity="0" x="0" y="0" width="16" height="16"></rect>
                            <path d="M1.248,5.904 C1.248,5.616 1.296,5.41066667 1.392,5.288 C1.488,5.16533333 1.70133333,5.104 2.032,5.104 L4.08,5.104 L4.08,13.104 L3.2,13.104 C2.96533333,13.104 2.73333333,13.1013333 2.504,13.096 C2.27466667,13.0906667 2.11733333,13.088 2.032,13.088 C1.744,13.0986667 1.54133333,13.0506667 1.424,12.944 C1.30666667,12.8373333 1.248,12.6346667 1.248,12.336 L1.248,10.032 C1.248,9.91466667 1.26666667,9.82666667 1.304,9.768 C1.34133333,9.70933333 1.41866667,9.66933333 1.536,9.648 C1.57866667,9.648 1.63733333,9.632 1.712,9.6 C1.78666667,9.568 1.86133333,9.51733333 1.936,9.448 C2.01066667,9.37866667 2.07466667,9.288 2.128,9.176 C2.18133333,9.064 2.208,8.928 2.208,8.768 C2.208,8.52266667 2.14133333,8.33066667 2.008,8.192 C1.87466667,8.05333333 1.73333333,7.97333333 1.584,7.952 C1.46666667,7.93066667 1.38133333,7.896 1.328,7.848 C1.27466667,7.8 1.248,7.71733333 1.248,7.6 L1.248,5.904 L1.248,5.904 Z M2.576,4.384 L2.576,4.192 L2.576,4.176 L2.576,4.16 L2.576,3.968 C2.576,3.75466667 2.65866667,3.55733333 2.824,3.376 C2.98933333,3.19466667 3.168,3.104 3.36,3.104 L5.568,3.104 L5.568,4.384 L2.576,4.384 Z M15.616,7.856 C15.5306667,7.87733333 15.4693333,7.92266667 15.432,7.992 C15.3946667,8.06133333 15.376,8.13866667 15.376,8.224 C15.376,8.30933333 15.3946667,8.392 15.432,8.472 C15.4693333,8.552 15.5306667,8.608 15.616,8.64 C15.7013333,8.672 15.768,8.736 15.816,8.832 C15.864,8.928 15.8906667,9.02933333 15.896,9.136 C15.9013333,9.24266667 15.888,9.344 15.856,9.44 C15.824,9.536 15.776,9.60533333 15.712,9.648 C15.4986667,9.776 15.392,9.92 15.392,10.08 C15.392,10.24 15.4986667,10.4 15.712,10.56 C15.7546667,10.592 15.7946667,10.6506667 15.832,10.736 C15.8693333,10.8213333 15.888,10.9066667 15.888,10.992 C15.888,11.0773333 15.8666667,11.152 15.824,11.216 C15.7813333,11.28 15.7066667,11.312 15.6,11.312 L14.736,11.312 C14.672,11.312 14.6373333,11.3066667 14.632,11.296 C14.6266667,11.2853333 14.6346667,11.2666667 14.656,11.24 C14.6773333,11.2133333 14.704,11.184 14.736,11.152 C14.768,11.12 14.7946667,11.0826667 14.816,11.04 C14.8693333,10.8906667 14.8693333,10.7626667 14.816,10.656 C14.7626667,10.5493333 14.672,10.4586667 14.544,10.384 C14.4586667,10.3413333 14.3973333,10.2746667 14.36,10.184 C14.3226667,10.0933333 14.3066667,10 14.312,9.904 C14.3173333,9.808 14.336,9.72266667 14.368,9.648 C14.4,9.57333333 14.448,9.52 14.512,9.488 C14.5973333,9.456 14.6613333,9.39733333 14.704,9.312 C14.7466667,9.22666667 14.768,9.136 14.768,9.04 C14.768,8.944 14.752,8.856 14.72,8.776 C14.688,8.696 14.64,8.64 14.576,8.608 C14.4906667,8.56533333 14.424,8.50133333 14.376,8.416 C14.328,8.33066667 14.304,8.23466667 14.304,8.128 C14.304,8.02133333 14.3253333,7.91733333 14.368,7.816 C14.4106667,7.71466667 14.48,7.632 14.576,7.568 C14.64,7.52533333 14.6933333,7.46666667 14.736,7.392 C14.7786667,7.31733333 14.8026667,7.23733333 14.808,7.152 C14.8133333,7.06666667 14.7973333,6.984 14.76,6.904 C14.7226667,6.824 14.656,6.75733333 14.56,6.704 C14.4533333,6.65066667 14.376,6.57333333 14.328,6.472 C14.28,6.37066667 14.256,6.26666667 14.256,6.16 C14.256,6.05333333 14.28,5.952 14.328,5.856 C14.376,5.76 14.4426667,5.68533333 14.528,5.632 C14.7093333,5.536 14.808,5.40533333 14.824,5.24 C14.84,5.07466667 14.8266667,4.92266667 14.784,4.784 C14.752,4.67733333 14.688,4.58133333 14.592,4.496 C14.496,4.41066667 14.3733333,4.368 14.224,4.368 L6.544,4.368 L6.544,3.104 L15.552,3.104 C15.6266667,3.104 15.6906667,3.13066667 15.744,3.184 C15.7973333,3.23733333 15.832,3.30133333 15.848,3.376 C15.864,3.45066667 15.8586667,3.528 15.832,3.608 C15.8053333,3.688 15.7546667,3.75466667 15.68,3.808 C15.616,3.86133333 15.56,3.93066667 15.512,4.016 C15.464,4.10133333 15.4373333,4.18933333 15.432,4.28 C15.4266667,4.37066667 15.44,4.46133333 15.472,4.552 C15.504,4.64266667 15.5626667,4.70933333 15.648,4.752 C15.7653333,4.816 15.8533333,4.904 15.912,5.016 C15.9706667,5.128 16,5.24 16,5.352 C16,5.464 15.9706667,5.568 15.912,5.664 C15.8533333,5.76 15.7706667,5.82933333 15.664,5.872 C15.5466667,5.91466667 15.4613333,5.976 15.408,6.056 C15.3546667,6.136 15.3253333,6.224 15.32,6.32 C15.3146667,6.416 15.336,6.50933333 15.384,6.6 C15.432,6.69066667 15.5093333,6.768 15.616,6.832 C15.7226667,6.896 15.8,6.98133333 15.848,7.088 C15.896,7.19466667 15.9173333,7.30133333 15.912,7.408 C15.9066667,7.51466667 15.88,7.61333333 15.832,7.704 C15.784,7.79466667 15.712,7.84533333 15.616,7.856 L15.616,7.856 Z M13.536,7.616 C13.408,7.648 13.3093333,7.70933333 13.24,7.8 C13.1706667,7.89066667 13.1333333,7.984 13.128,8.08 C13.1226667,8.176 13.1493333,8.272 13.208,8.368 C13.2666667,8.464 13.3546667,8.53333333 13.472,8.576 C13.5786667,8.61866667 13.6586667,8.68266667 13.712,8.768 C13.7653333,8.85333333 13.7946667,8.944 13.8,9.04 C13.8053333,9.136 13.7866667,9.22666667 13.744,9.312 C13.7013333,9.39733333 13.6373333,9.46133333 13.552,9.504 C13.2853333,9.632 13.1466667,9.78666667 13.136,9.968 C13.1253333,10.1493333 13.2266667,10.2933333 13.44,10.4 C13.536,10.4426667 13.6133333,10.5093333 13.672,10.6 C13.7306667,10.6906667 13.7626667,10.7866667 13.768,10.888 C13.7733333,10.9893333 13.7546667,11.08 13.712,11.16 C13.6693333,11.24 13.6,11.296 13.504,11.328 C13.376,11.36 13.2773333,11.4186667 13.208,11.504 C13.1386667,11.5893333 13.1013333,11.68 13.096,11.776 C13.0906667,11.872 13.1173333,11.968 13.176,12.064 C13.2346667,12.16 13.328,12.24 13.456,12.304 C13.5413333,12.3466667 13.6026667,12.4133333 13.64,12.504 C13.6773333,12.5946667 13.6906667,12.6826667 13.68,12.768 C13.6693333,12.8533333 13.64,12.9306667 13.592,13 C13.544,13.0693333 13.4773333,13.104 13.392,13.104 L5.024,13.104 L5.024,5.104 L13.488,5.104 C13.5733333,5.104 13.64,5.13866667 13.688,5.208 C13.736,5.27733333 13.7626667,5.35466667 13.768,5.44 C13.7733333,5.52533333 13.7546667,5.61066667 13.712,5.696 C13.6693333,5.78133333 13.6,5.84 13.504,5.872 C13.408,5.904 13.3306667,5.95733333 13.272,6.032 C13.2133333,6.10666667 13.1786667,6.18933333 13.168,6.28 C13.1573333,6.37066667 13.1786667,6.45866667 13.232,6.544 C13.2853333,6.62933333 13.376,6.69333333 13.504,6.736 C13.6,6.77866667 13.6773333,6.84266667 13.736,6.928 C13.7946667,7.01333333 13.8266667,7.10133333 13.832,7.192 C13.8373333,7.28266667 13.816,7.368 13.768,7.448 C13.72,7.528 13.6426667,7.584 13.536,7.616 L13.536,7.616 Z M9.68,8.688 C9.62666667,8.688 9.57066667,8.68266667 9.512,8.672 C9.45333333,8.66133333 9.44,8.62933333 9.472,8.576 C9.48266667,8.55466667 9.53333333,8.48 9.624,8.352 C9.71466667,8.224 9.816,8.088 9.928,7.944 C10.04,7.8 10.144,7.664 10.24,7.536 C10.336,7.408 10.3946667,7.328 10.416,7.296 C10.4693333,7.21066667 10.4373333,7.10933333 10.32,6.992 C10.2986667,6.97066667 10.256,6.93866667 10.192,6.896 C10.128,6.85333333 10.0693333,6.82133333 10.016,6.8 C9.93066667,6.768 9.86933333,6.76266667 9.832,6.784 C9.79466667,6.80533333 9.74933333,6.85333333 9.696,6.928 C9.67466667,6.96 9.62133333,7.03733333 9.536,7.16 C9.45066667,7.28266667 9.36,7.41333333 9.264,7.552 C9.168,7.69066667 9.08,7.816 9,7.928 C8.92,8.04 8.87466667,8.10666667 8.864,8.128 C8.84266667,8.17066667 8.80266667,8.18666667 8.744,8.176 C8.68533333,8.16533333 8.64533333,8.13866667 8.624,8.096 C8.61333333,8.07466667 8.56533333,8.01333333 8.48,7.912 C8.39466667,7.81066667 8.304,7.696 8.208,7.568 C8.112,7.44 8.01866667,7.32 7.928,7.208 C7.83733333,7.096 7.776,7.01866667 7.744,6.976 C7.648,6.79466667 7.54666667,6.736 7.44,6.8 C7.36533333,6.84266667 7.29866667,6.888 7.24,6.936 C7.18133333,6.984 7.12533333,7.024 7.072,7.056 C6.96533333,7.13066667 6.94933333,7.22666667 7.024,7.344 C7.20533333,7.55733333 7.36533333,7.75466667 7.504,7.936 C7.62133333,8.08533333 7.73333333,8.22933333 7.84,8.368 C7.94666667,8.50666667 8.01066667,8.58666667 8.032,8.608 C8.05333333,8.65066667 8.032,8.672 7.968,8.672 L7.776,8.672 C7.72266667,8.672 7.64533333,8.67466667 7.544,8.68 C7.44266667,8.68533333 7.34933333,8.68266667 7.264,8.672 C7.17866667,8.672 7.10933333,8.69333333 7.056,8.736 C7.00266667,8.77866667 6.98666667,8.832 7.008,8.896 C7.01866667,8.93866667 7.024,9.00266667 7.024,9.088 L7.024,9.28 C7.024,9.33333333 7.04,9.36266667 7.072,9.368 C7.104,9.37333333 7.14133333,9.376 7.184,9.376 L8.112,9.376 C8.24,9.376 8.304,9.40266667 8.304,9.456 L8.304,9.76 C8.304,9.81333333 8.29333333,9.84 8.272,9.84 L8.192,9.84 L8.032,9.84 L7.712,9.84 L7.392,9.84 L7.2,9.84 C7.136,9.82933333 7.09333333,9.84533333 7.072,9.888 C7.05066667,9.93066667 7.03466667,9.97866667 7.024,10.032 C7.01333333,10.0853333 7.01333333,10.136 7.024,10.184 C7.03466667,10.232 7.04,10.272 7.04,10.304 C7.04,10.4426667 7.10933333,10.512 7.248,10.512 L8.208,10.512 C8.26133333,10.512 8.29333333,10.52 8.304,10.536 C8.31466667,10.552 8.32,10.5866667 8.32,10.64 C8.33066667,10.6933333 8.33333333,10.7893333 8.328,10.928 C8.32266667,11.0666667 8.32,11.1573333 8.32,11.2 C8.32,11.3173333 8.38933333,11.376 8.528,11.376 L9.04,11.376 C9.12533333,11.376 9.168,11.3493333 9.168,11.296 L9.168,11.184 L9.168,10.656 C9.168,10.5493333 9.216,10.496 9.312,10.496 L9.456,10.496 C9.53066667,10.496 9.61333333,10.4933333 9.704,10.488 C9.79466667,10.4826667 9.88266667,10.48 9.968,10.48 L10.176,10.48 C10.3253333,10.48 10.4,10.4266667 10.4,10.32 L10.4,9.968 C10.4,9.872 10.3466667,9.824 10.24,9.824 L9.312,9.824 C9.20533333,9.84533333 9.152,9.824 9.152,9.76 C9.152,9.728 9.14933333,9.688 9.144,9.64 C9.13866667,9.592 9.136,9.54666667 9.136,9.504 C9.136,9.46133333 9.15466667,9.42933333 9.192,9.408 C9.22933333,9.38666667 9.26933333,9.376 9.312,9.376 L10.256,9.376 C10.3626667,9.376 10.416,9.33866667 10.416,9.264 L10.416,8.88 C10.416,8.83733333 10.3973333,8.79466667 10.36,8.752 C10.3226667,8.70933333 10.2773333,8.688 10.224,8.688 L9.68,8.688 L9.68,8.688 Z" id="形状" fill="#000000" fill-rule="nonzero"></path>
                        </g>
                    </g>
                </g>
            </g>
        </g>
    </g>
</svg>