<?xml version="1.0" encoding="UTF-8"?>
<svg width="24px" height="24px" viewBox="0 0 24 24" version="1.1" xmlns="http://www.w3.org/2000/svg" xmlns:xlink="http://www.w3.org/1999/xlink">
    <title>编组 28</title>
    <defs>
        <filter color-interpolation-filters="auto" id="filter-1">
            <feColorMatrix in="SourceGraphic" type="matrix" values="0 0 0 0 1.000000 0 0 0 0 0.588235 0 0 0 0 0.160784 0 0 0 1.000000 0"></feColorMatrix>
        </filter>
    </defs>
    <g id="发票管理" stroke="none" stroke-width="1" fill="none" fill-rule="evenodd">
        <g id="发票管理--申请发票页面/否备份" transform="translate(-750.000000, -177.000000)">
            <g id="编组-36" transform="translate(239.000000, 172.000000)">
                <g id="编组-17" transform="translate(511.000000, 5.000000)">
                    <circle id="椭圆形" fill="#FFF4E9" cx="12" cy="12" r="12"></circle>
                    <g filter="url(#filter-1)" id="折扣券">
                        <g transform="translate(4.000000, 4.000000)">
                            <rect id="矩形" fill="#000000" fill-rule="nonzero" opacity="0" x="0" y="0" width="16" height="16"></rect>
                            <path d="M12.7064,2.2392 C14.084,2.2392 15.2,3.356 15.2,4.7328 L15.2,4.7328 L15.2,5.6872 C15.199724,5.77798293 15.1330309,5.85488419 15.0432,5.868 C13.9832,6.024 13.1696,6.9368 13.1696,8.04 C13.1696,9.1432 13.9832,10.056 15.0432,10.2112 C15.1336,10.2248 15.2,10.3016 15.2,10.392 L15.2,10.392 L15.2,11.3472 C15.2,12.7248 14.0832,13.8408 12.7064,13.8408 L12.7064,13.8408 L3.4016,13.8408 C2.024,13.8408 0.907999491,12.724 0.907999491,11.3472 L0.907999491,11.3472 L0.907999491,10.3424 C0.907805519,10.2598163 0.963357166,10.1875005 1.0432,10.1664 C1.9904,9.9224 2.6904,9.0632 2.6904,8.04 C2.6904,7.0168 1.9904,6.1576 1.0432,5.9136 C0.9632,5.8936 0.907999491,5.82 0.907999491,5.7376 L0.907999491,5.7376 L0.907999491,4.7328 C0.907999491,3.3552 2.0248,2.2392 3.4016,2.2392 L3.4016,2.2392 Z M9.63280001,9.60744842 C9.30706255,9.4193838 8.90573745,9.4193838 8.57999999,9.60744842 C8.25426253,9.79551303 8.0536,10.1430708 8.0536,10.5192 C8.0536,11.1006454 8.52495462,11.572 9.1064,11.572 C9.68784538,11.572 10.1592,11.1006454 10.1592,10.5192 C10.1592,10.1430708 9.95853747,9.79551303 9.63280001,9.60744842 Z M10.5632,5.2248 C10.2448,4.8936 9.7184,4.884 9.388,5.2024 L9.388,5.2024 L5.5208,8.9264 C5.1896,9.2448 5.18,9.7712 5.4984,10.1016 C5.6616,10.2704 5.8792,10.356 6.0968,10.356 C6.304,10.356 6.512,10.2792 6.6736,10.124 L6.6736,10.124 L10.5408,6.4 C10.872,6.0816 10.8816,5.5552 10.5632,5.2248 Z M6.4304,4.4144 C5.84895462,4.4144 5.3776,4.88575462 5.3776,5.4672 C5.3776,6.04864538 5.84895462,6.52 6.4304,6.52 C7.01184538,6.52 7.4832,6.04864538 7.4832,5.4672 C7.4832,4.88575462 7.01184538,4.4144 6.4304,4.4144 Z" id="形状结合" fill="#8C7BFD" fill-rule="nonzero"></path>
                        </g>
                    </g>
                </g>
            </g>
        </g>
    </g>
</svg>